<?xml version="1.0" encoding="utf-8"?>
<!-- Generator: Adobe Illustrator 24.0.0, SVG Export Plug-In . SVG Version: 6.00 Build 0)  -->
<svg version="1.1" id="Layer_1" xmlns="http://www.w3.org/2000/svg" xmlns:xlink="http://www.w3.org/1999/xlink" x="0px" y="0px"
	 viewBox="0 0 512 512" style="enable-background:new 0 0 512 512;" xml:space="preserve">
<style type="text/css">
	.st0{fill:#FAB991;}
	.st1{fill:#F0915A;}
	.st2{fill:#555A6E;}
	.st3{fill:#463C4B;}
	.st4{fill:#73788C;}
	.st5{fill:#F58CAA;}
	.st6{fill:#FAC3C8;}
	.st7{fill:#F05A4B;}
	.st8{fill:#D73728;}
	.st9{fill:#D7E6F0;}
	.st10{fill:#A5C3DC;}
	.st11{fill:#FF7869;}
	.st12{fill:#2387C3;}
	.st13{fill:#FAA032;}
	.st14{fill:#FAD741;}
	.st15{fill:#3FAFE1;}
	.st16{fill:#5AD7FF;}
	.st17{fill:#FFFFFF;}
	.st18{fill:#FFF55F;}
	.st19{fill:#0569A5;}
	.st20{fill:#D76E8C;}
	.st21{fill:#3CB44B;}
	.st22{fill:#DC6950;}
	.st23{fill:#D7E123;}
	.st24{fill:#735078;}
	.st25{fill:#9B7896;}
	.st26{fill:#3C413C;}
	.st27{fill:#1E962D;}
	.st28{fill:#8ACB37;}
	.st29{fill:#FFD7AF;}
	.st30{fill:#FFE1E6;}
	.st31{fill:#C85541;}
	.st32{fill:#FA876E;}
	.st33{fill:#353744;}
	.st34{fill:#56525C;}
	.st35{fill:#C82819;}
</style>
<g>
	<g>
		<path class="st0" d="M340,160H52v336h408V280C460,213.726,406.274,160,340,160z"/>
	</g>
	<g>
		<path class="st1" d="M172,96V16H52v192c0-26.51,21.49-48,48-48h240L172,96z"/>
	</g>
	<g>
		<path class="st1" d="M340,288L340,288l0,120c0,35.346-28.654,64-64,64H108c-30.928,0-56-25.072-56-56v0v80h312V312
			C364,298.745,353.255,288,340,288z"/>
	</g>
	<g>
		<circle class="st1" cx="268" cy="408" r="24"/>
	</g>
</g>
</svg>
