<?xml version="1.0" encoding="utf-8"?>
<!-- Generator: Adobe Illustrator 22.0.0, SVG Export Plug-In . SVG Version: 6.00 Build 0)  -->
<svg version="1.1" xmlns="http://www.w3.org/2000/svg" xmlns:xlink="http://www.w3.org/1999/xlink" x="0px" y="0px"
	 viewBox="0 0 512 512" enable-background="new 0 0 512 512" xml:space="preserve">
<g id="Layer_1">
</g>
<g id="Layer_2">
	<g>
		<g>
			<g>
				<polygon fill="#CDCDC6" points="211.13,53.334 211.13,192.674 186.081,254.529 210.117,254.529 235.165,192.674 235.165,53.334 
									"/>
			</g>
			<g>
				<path fill="#E15F4F" d="M413.881,471.744l-87.843-216.923H185.963L98.119,471.744c-6.148,15.738,5.459,32.732,22.355,32.732
					h271.052C408.422,504.476,420.028,487.482,413.881,471.744z"/>
			</g>
			<g>
				<path fill="#CA4336" d="M122.354,471.744l87.844-216.923h-24.234L98.119,471.744c-6.147,15.738,5.459,32.732,22.355,32.732
					h24.234C127.813,504.476,116.206,487.482,122.354,471.744z"/>
			</g>
			<g>
				<rect x="216.561" y="7.524" fill="#EEAD2C" width="78.761" height="23.907"/>
			</g>
			<g>
				<path fill="#FFFFFF" d="M303.479,31.43H208.52c-5.736,0-10.387,4.65-10.387,10.387v1.13c0,5.737,4.651,10.387,10.387,10.387
					h94.959c5.737,0,10.388-4.65,10.388-10.387v-1.13C313.867,36.081,309.217,31.43,303.479,31.43z"/>
			</g>
			<g>
				<rect x="216.561" y="7.525" fill="#D79522" width="24.402" height="23.905"/>
			</g>
			<g>
				<path fill="#CDCDC6" d="M208.52,31.43c-5.736,0-10.387,4.65-10.387,10.387v1.13c0,5.63,4.483,10.203,10.072,10.371h14.33V31.43
					H208.52z"/>
			</g>
			<g>
				<rect x="232.331" y="53.335" fill="#D79522" width="47.338" height="24.283"/>
			</g>
			<g>
				<circle fill="#CA4336" cx="222.517" cy="431.977" r="31.672"/>
			</g>
			<g>
				<circle fill="#CA4336" cx="331.047" cy="391.858" r="23.649"/>
			</g>
			<g>
				<circle fill="#CA4336" cx="273.193" cy="306.977" r="24.071"/>
			</g>
		</g>
		<path d="M305.87,191.7V58.129c7.35-1.154,12.997-7.513,12.997-15.182v-1.13c0-8.485-6.903-15.387-15.388-15.387h-3.157V7.524
			c0-2.761-2.238-5-5-5h-78.762c-2.761,0-5,2.239-5,5V26.43h-3.041c-8.484,0-15.387,6.903-15.387,15.387v1.13
			c0,7.67,5.646,14.028,12.997,15.182V191.7L93.462,469.925c-3.489,8.931-2.343,18.99,3.064,26.907
			c5.408,7.917,14.36,12.644,23.948,12.644h271.051c9.588,0,18.541-4.727,23.948-12.645c5.407-7.917,6.553-17.976,3.042-26.964
			L305.87,191.7z M221.561,12.524h68.762V26.43h-68.762V12.524z M203.133,42.947v-1.13c0-2.97,2.417-5.387,5.387-5.387h94.959
			c2.971,0,5.388,2.417,5.388,5.387v1.13c0,2.97-2.417,5.387-5.388,5.387H208.52C205.549,48.334,203.133,45.918,203.133,42.947z
			 M274.669,58.334v14.283h-37.338V58.334H274.669z M215.764,194.551c0.242-0.596,0.366-1.233,0.366-1.877V58.334h11.201v19.283
			c0,2.761,2.239,5,5,5h47.338c2.762,0,5-2.239,5-5V58.334h11.201v134.339c0,0.643,0.124,1.281,0.365,1.877l22.382,55.271H193.382
			L215.764,194.551z M407.216,491.192c-3.596,5.265-9.314,8.284-15.69,8.284H120.474c-6.375,0-12.094-3.02-15.69-8.284
			c-3.596-5.265-4.327-11.69-2.031-17.571l86.579-213.799h133.335l86.556,213.742C411.543,479.502,410.812,485.927,407.216,491.192z
			"/>
		<path d="M222.517,395.304c-20.221,0-36.672,16.451-36.672,36.672s16.451,36.672,36.672,36.672
			c20.221,0,36.671-16.451,36.671-36.672S242.738,395.304,222.517,395.304z M222.517,458.649c-14.707,0-26.672-11.965-26.672-26.672
			c0-14.707,11.965-26.672,26.672-26.672s26.672,11.965,26.672,26.672C249.189,446.684,237.224,458.649,222.517,458.649z"/>
		<path d="M331.047,363.21c-15.797,0-28.648,12.852-28.648,28.648s12.852,28.649,28.648,28.649s28.649-12.852,28.649-28.649
			S346.844,363.21,331.047,363.21z M331.047,410.507c-10.283,0-18.648-8.366-18.648-18.649c0-10.283,8.365-18.648,18.648-18.648
			s18.649,8.366,18.649,18.648C349.696,402.141,341.33,410.507,331.047,410.507z"/>
		<path d="M273.192,277.906c-16.029,0-29.071,13.041-29.071,29.071s13.042,29.071,29.071,29.071
			c16.03,0,29.071-13.041,29.071-29.071S289.223,277.906,273.192,277.906z M273.192,326.048c-10.516,0-19.071-8.555-19.071-19.071
			c0-10.516,8.555-19.071,19.071-19.071s19.071,8.555,19.071,19.071C292.264,317.492,283.708,326.048,273.192,326.048z"/>
	</g>
</g>
</svg>
