<svg id="Capa_1" enable-background="new 0 0 512 512" height="512" viewBox="0 0 512 512" width="512" xmlns="http://www.w3.org/2000/svg"><g><g><circle cx="256" cy="256" fill="#ff3ba0" r="248.5"/><circle cx="256" cy="256" fill="#ffb0e4" r="186.616"/><g><circle cx="260.733" cy="305.272" fill="#6c7fd8" r="27.296"/></g><g><circle cx="303.798" cy="323.507" fill="#c4e2ff" r="27.296"/></g><g><circle cx="224.752" cy="332.568" fill="#c4e2ff" r="27.296"/></g><g><circle cx="266.339" cy="338.641" fill="#d8ecfe" r="27.296"/></g><g><circle cx="342.321" cy="343.743" fill="#6c7fd8" r="27.296"/></g><g><circle cx="303.798" cy="365.936" fill="#4f66d0" r="27.296"/></g><g><circle cx="184.128" cy="350.803" fill="#6c7fd8" r="27.296"/></g><g><circle cx="224.752" cy="371.038" fill="#4f66d0" r="27.296"/></g><g><circle cx="259.338" cy="382.246" fill="#6c7fd8" r="27.296"/></g><g><circle cx="389.796" cy="338.641" fill="#d8ecfe" r="27.296"/></g><g><circle cx="142.882" cy="371.038" fill="#d8ecfe" r="27.296"/></g><g><circle cx="184.128" cy="391.096" fill="#c4e2ff" r="27.296"/></g><g><circle cx="221.956" cy="417.274" fill="#d8ecfe" r="27.296"/></g><g><circle cx="273.622" cy="417.274" fill="#c4e2ff" r="27.296"/></g><g><circle cx="318.324" cy="398.334" fill="#d8ecfe" r="27.296"/></g><g><circle cx="364.494" cy="375.559" fill="#c4e2ff" r="27.296"/></g><path d="m229.172 454.551c0-16.66 13.505-30.165 30.165-30.165s30.165 13.505 30.165 30.165-13.505 18.275-30.165 18.275-30.165-1.615-30.165-18.275z" fill="#fe4fb7"/><path d="m174.32 438.949c4.694-15.985 21.457-25.138 37.442-20.445 15.985 4.694 25.138 21.457 20.445 37.442-4.694 15.985-18.107 13.73-34.092 9.036-15.985-4.693-28.488-10.048-23.795-26.033z" fill="#fe73c5"/><path d="m126.087 408.527c9.007-14.015 27.67-18.075 41.685-9.068s18.075 27.67 9.068 41.685-21.242 8.073-35.257-.934c-14.015-9.008-24.503-17.668-15.496-31.683z" fill="#fe4fb7"/><path d="m88.377 365.747c12.591-10.91 31.641-9.547 42.551 3.043 10.91 12.591 9.547 31.641-3.043 42.551s-22.656 1.761-33.565-10.83-18.534-23.855-5.943-34.764z" fill="#fe73c5"/><path d="m64.247 314.078c15.154-6.921 33.05-.246 39.97 14.908s.246 33.05-14.908 39.97c-15.154 6.921-22.234-4.693-29.155-19.847s-11.061-28.11 4.093-35.031z" fill="#fe4fb7"/><path d="m55.652 257.702c16.49-2.371 31.78 9.075 34.151 25.565s-9.075 31.78-25.565 34.151-20.011-10.767-22.382-27.257-2.694-30.088 13.796-32.459z" fill="#fe73c5"/><path d="m63.289 201.189c16.49 2.371 27.936 17.661 25.565 34.151s-17.661 27.936-34.151 25.565-16.167-15.969-13.796-32.459 5.891-29.628 22.382-27.257z" fill="#fe4fb7"/><path d="m86.537 149.116c15.154 6.921 21.829 24.816 14.908 39.97s-24.816 21.829-39.97 14.908-11.013-19.877-4.093-35.031 14-26.768 29.155-19.847z" fill="#fe73c5"/><path d="m123.514 105.701c12.591 10.91 13.953 29.961 3.043 42.551s-29.961 13.953-42.551 3.043c-12.591-10.91-4.967-22.174 5.942-34.765s20.976-21.739 33.566-10.829z" fill="#fe4fb7"/><path d="m171.225 74.464c9.007 14.015 4.947 32.678-9.068 41.685s-32.678 4.947-41.685-9.068 1.481-22.676 15.496-31.683 26.25-14.949 35.257-.934z" fill="#fe73c5"/><path d="m225.803 57.934c4.694 15.985-4.46 32.748-20.445 37.442s-32.748-4.46-37.442-20.445 7.81-21.34 23.795-26.033 29.399-6.949 34.092 9.036z" fill="#fe4fb7"/><path d="m282.828 57.449c0 16.66-13.505 30.165-30.165 30.165s-30.165-13.505-30.165-30.165 13.505-18.275 30.165-18.275 30.165 1.615 30.165 18.275z" fill="#fe73c5"/><path d="m337.679 73.05c-4.694 15.985-21.457 25.138-37.442 20.445-15.985-4.694-25.138-21.457-20.445-37.442s18.107-13.73 34.092-9.036c15.986 4.693 28.489 10.048 23.795 26.033z" fill="#fe4fb7"/><path d="m385.913 103.472c-9.007 14.015-27.67 18.075-41.685 9.068s-18.075-27.67-9.068-41.685 21.242-8.073 35.257.934 24.503 17.668 15.496 31.683z" fill="#fe73c5"/><path d="m423.622 146.252c-12.591 10.91-31.641 9.547-42.551-3.043-10.91-12.591-9.547-31.641 3.043-42.551 12.591-10.91 22.656-1.761 33.565 10.83 10.911 12.589 18.534 23.854 5.943 34.764z" fill="#fe4fb7"/><path d="m447.753 197.922c-15.154 6.921-33.05.246-39.97-14.908-6.921-15.154-.246-33.05 14.908-39.97 15.154-6.921 22.234 4.693 29.155 19.847s11.062 28.11-4.093 35.031z" fill="#fe73c5"/><path d="m456.348 254.298c-16.49 2.371-31.78-9.075-34.151-25.565s9.075-31.78 25.565-34.151 20.011 10.767 22.382 27.257 2.694 30.088-13.796 32.459z" fill="#fe4fb7"/><path d="m448.711 310.811c-16.49-2.371-27.936-17.661-25.565-34.151s17.661-27.936 34.151-25.565 16.167 15.969 13.796 32.459c-2.37 16.49-5.891 29.628-22.382 27.257z" fill="#fe73c5"/><path d="m425.463 362.883c-15.154-6.921-21.829-24.816-14.908-39.97s24.816-21.829 39.97-14.908 11.013 19.877 4.093 35.031-14 26.768-29.155 19.847z" fill="#fe4fb7"/><path d="m388.485 406.298c-12.591-10.91-13.953-29.961-3.043-42.551 10.91-12.591 29.961-13.953 42.551-3.043 12.591 10.91 4.967 22.174-5.942 34.765-10.91 12.59-20.975 21.739-33.566 10.829z" fill="#fe73c5"/><path d="m340.775 437.535c-9.007-14.015-4.947-32.678 9.068-41.685s32.678-4.947 41.685 9.068-1.481 22.676-15.496 31.683-26.25 14.949-35.257.934z" fill="#fe4fb7"/><path d="m286.197 454.065c-4.694-15.985 4.46-32.748 20.445-37.442s32.748 4.46 37.442 20.445-7.81 21.34-23.795 26.033c-15.985 4.694-29.398 6.949-34.092-9.036z" fill="#fe73c5"/></g><g><path d="m33.483 227.379c-1.419 9.869-1.954 17.847.051 24.697.736 2.517 1.963 5.287 3.997 7.834-6.276 9.21-4.362 22.521-3.098 31.318 1.419 9.87 3.154 17.674 7.007 23.683 1.415 2.208 3.373 4.52 6.042 6.391-3.427 10.606 2.159 22.838 5.851 30.922 4.142 9.07 8.005 16.07 13.395 20.75 1.98 1.719 4.51 3.386 7.598 4.43-.298 11.14 8.507 21.303 14.326 28.019 5.559 6.417 15.289 17.647 27.241 18.26 2.858 10.767 14.163 18.033 21.636 22.835 8.388 5.391 15.422 9.19 22.487 10.214 1.099.159 2.275.257 3.507.257 1.677 0 3.456-.182 5.279-.638 5.771 9.534 18.674 13.323 27.201 15.827 7.652 2.247 14.187 3.761 20.111 3.761 1.482 0 2.928-.095 4.342-.296 2.596-.371 5.512-1.191 8.323-2.841 8.224 7.523 21.672 7.524 30.559 7.524 9.39 0 23.69 0 31.725-8.632 3.029 1.467 6.727 2.355 11.242 2.355.417 0 .841-.008 1.271-.023 4.14-.147 7.375-3.623 7.228-7.763-.147-4.141-3.649-7.368-7.763-7.228-5.646.214-8.007-1.495-9.647-7.085-1.726-5.878-1.012-11.997 1.854-17.247 2.901-5.313 7.698-9.18 13.508-10.885 5.808-1.707 11.934-1.047 17.247 1.854 5.301 2.894 9.176 7.686 10.885 13.508 1.737 5.914.985 9.258-8.405 13.215-3.816 1.608-5.606 6.007-3.998 9.824 1.609 3.818 6.01 5.608 9.824 3.998 7.905-3.332 13.26-7.715 16.042-13.109 1.202.203 2.408.298 3.613.298 9.789 0 19.474-6.223 26.123-10.496 7.141-4.59 19.642-12.624 21.952-24.365 11.063-1.297 19.864-11.454 25.68-18.167 6.53-7.535 11.292-13.957 13.311-20.804.741-2.516 1.207-5.51.873-8.752 10.259-4.355 15.847-16.588 19.538-24.672 4.143-9.069 6.902-16.573 6.909-23.711.003-2.622-.394-5.625-1.627-8.643 8.616-7.07 10.531-20.38 11.795-29.177 1.419-9.87 1.953-17.847-.051-24.697-.736-2.517-1.963-5.287-3.997-7.834 6.276-9.211 4.363-22.521 3.098-31.318-1.419-9.87-3.154-17.674-7.007-23.683-1.416-2.208-3.373-4.521-6.042-6.392 3.426-10.606-2.159-22.838-5.851-30.921-3.526-7.722-9.701-21.239-20.994-25.196.29-11.134-8.51-21.292-14.326-28.005-5.559-6.415-15.29-17.643-27.24-18.258-2.857-10.768-14.164-18.034-21.637-22.836-7.147-4.594-19.661-12.638-31.309-9.841-4.156-6.888-11.5-10.098-14.512-11.415-3.795-1.661-8.218.074-9.876 3.868-1.659 3.796.073 8.217 3.868 9.876 5.349 2.338 7.328 4.492 8.067 6.2-.633.812-1.253 1.689-1.86 2.632-3.048 4.744-4.894 9.92-5.617 15.171-5.779 4.813-13.571 6.479-20.882 4.327-11.991-3.521-18.883-16.142-15.362-28.133 1.671-5.69 4.142-7.381 10.083-7.067 4.116.195 7.67-2.951 7.892-7.087.223-4.136-2.95-7.669-7.087-7.892-6.206-.335-10.983.918-14.659 3.074-8.224-7.52-21.668-7.521-30.554-7.521-8.489 0-23.349 0-31.64 8.629-10.008-4.891-22.903-1.105-31.425 1.397-8.144 2.392-22.401 6.579-27.925 17.193-10.981-1.874-22.288 5.392-29.76 10.195-7.141 4.59-19.642 12.624-21.951 24.365-11.064 1.297-19.864 11.453-25.681 18.167-6.53 7.535-11.292 13.956-13.31 20.803-.741 2.516-1.207 5.51-.873 8.753-10.258 4.356-15.846 16.588-19.538 24.672-3.526 7.722-9.699 21.239-5.294 32.365-8.606 7.075-10.519 20.377-11.783 29.169zm22.053-18.002c.881.501 1.821.982 2.823 1.439 5.058 2.31 10.362 3.402 15.59 3.401.075 0 .149 0 .224-.001 5.587 5.034 8.342 12.511 7.257 20.056-1.779 12.37-13.292 20.982-25.66 19.209-7.768-1.117-10.221-4.627-7.44-23.968 1.754-12.196 3.766-18.05 7.206-20.136zm26.844 74.958c.862 5.992-.662 11.962-4.29 16.809-3.542 4.731-8.789 7.97-14.919 8.851-4.056.585-6.991.117-9.104-3.18-2.536-3.955-3.799-10.854-4.786-17.721-1.754-12.203-1.471-18.388 1.245-21.356 2.605.625 5.559.977 8.494.977 3.705 0 7.317-.549 10.747-1.579 6.778 3.256 11.528 9.654 12.613 17.199zm-20.224 40.816c1.009-.051 2.058-.152 3.149-.309 5.501-.791 10.651-2.74 15.174-5.683 7.408 1.223 13.754 6.019 16.916 12.942 5.191 11.368.167 24.841-11.202 30.032-3.691 1.687-6.66 2.094-9.632-.486-3.547-3.08-6.703-9.344-9.584-15.653-5.122-11.215-6.592-17.229-4.821-20.843zm339.782 21.212c-4.555.764-8.875 2.342-12.791 4.648-5.145-5.147-11.815-8.578-18.979-9.776-.112-.856-.168-1.723-.168-2.595 0-10.915 8.881-19.796 19.796-19.796 4.596 0 9.022 1.603 12.536 4.476-2.57 7.538-2.659 15.587-.394 23.043zm-118.667 79.125c-6.649-5.468-15.086-8.603-23.933-8.603-1.863 0-3.704.136-5.511.401 0-.004 0-.008 0-.013 0-10.915 8.88-19.796 19.795-19.796 3.538 0 6.943.921 9.954 2.679.33 6.405 2.398 12.512 5.972 17.749-2.395 2.221-4.505 4.762-6.277 7.583zm-118.87-36.034c.838-10.15 9.365-18.154 19.728-18.154 9.759 0 17.891 7.099 19.505 16.404-8.812 5.48-15.008 14.786-16.246 25.579-.021.01-.041.02-.061.029-2.654-8.313-8.064-15.384-15.499-20.162-2.367-1.521-4.858-2.753-7.427-3.696zm60.351-38.212c4.533 0 8.853 1.546 12.311 4.292-7.648 6.388-12.521 15.991-12.521 26.711 0 .109.001.218.002.326-.855-.062-1.718-.094-2.588-.094-1.371 0-2.723.08-4.052.235-1.833-7.383-6.03-13.843-11.737-18.526 2.819-7.733 10.139-12.944 18.585-12.944zm21.791-12.601c0-10.915 8.88-19.796 19.796-19.796 10.021 0 18.326 7.485 19.62 17.158-5.6 3.324-10.202 8.198-13.201 14.141-4.132-1.734-8.667-2.693-13.422-2.693-2.805 0-5.533.334-8.147.964-1.147-1.341-2.387-2.584-3.707-3.724-.623-1.945-.939-3.976-.939-6.05zm27.079 43.838c-10.22 0-19.425 4.43-25.797 11.469-2.209-2.461-4.748-4.582-7.54-6.306-.493-1.746-.743-3.556-.743-5.396 0-10.915 8.88-19.796 19.796-19.796 11.148 0 20.153 9.256 19.785 20.459-1.806-.285-3.643-.43-5.501-.43zm-51.666 15c7.762 0 14.649 4.41 17.909 11.344-.678 2.707-1.038 5.538-1.038 8.452 0 1.816.14 3.622.419 5.403-1.696 1.07-3.308 2.277-4.818 3.61-4.889-7.229-12.072-12.49-20.553-14.98-3.381-.993-6.825-1.495-10.24-1.532 2.961-7.209 10.058-12.297 18.321-12.297zm71.255-23.207c-1.356-5.762-4.149-10.977-7.978-15.244 2.835-7.703 10.141-12.888 18.565-12.888 10.234 0 18.68 7.808 19.694 17.779-1.698-.252-3.425-.382-5.169-.382-9.859.001-18.774 4.124-25.112 10.735zm55.679 13.476c-2.72-3.462-4.192-7.699-4.192-12.189 0-10.915 8.881-19.796 19.796-19.796 5.098 0 9.857 1.898 13.491 5.301-4.955 6.669-7.498 14.671-7.418 22.773-7.266-.865-14.819.369-21.677 3.911zm6.275-45.715c-7.455 2.077-13.909 6.58-18.455 12.601-2.435-7.071-7.089-13.119-13.126-17.307 2.693-7.896 10.178-13.38 18.738-13.38 5.254 0 10.183 2.038 13.868 5.666-.774 2.88-1.188 5.907-1.188 9.028-.001 1.135.054 2.268.163 3.392zm-45.478-10.393c-1.914-.328-3.882-.499-5.888-.499-1.16 0-2.308.056-3.441.166-1.714-7.956-6.155-14.909-12.294-19.828 3.703-4.865 9.454-7.768 15.735-7.768 7.919 0 15.02 4.798 18.13 11.839-5.498 3.976-9.816 9.536-12.242 16.09zm-35.238-26.841c-2.603-.624-5.318-.955-8.11-.955-6.083 0-11.806 1.569-16.786 4.324-2.462-2.495-5.278-4.592-8.335-6.235 1.591-9.331 9.736-16.458 19.514-16.458 8.447 0 15.911 5.407 18.668 13.186-1.856 1.831-3.52 3.885-4.951 6.138zm-36.185 13.307c-3.906 5.326-6.335 11.799-6.679 18.811-2.227-.445-4.514-.675-6.833-.675-2.945 0-5.812.361-8.555 1.045-2.13-5.038-5.408-9.438-9.474-12.911 3.169-6.956 10.214-11.605 18.028-11.605 5.038 0 9.875 1.948 13.513 5.335zm-35.53 25.915c-4.309 3.51-7.77 8.062-10.006 13.354-2.751-.702-5.632-1.076-8.599-1.076-3.169 0-6.24.426-9.159 1.224-2.151-5.157-5.463-9.617-9.588-13.103 2.687-7.906 10.201-13.414 18.747-13.414 8.384.001 15.801 5.328 18.605 13.015zm-41.124 20.569c-6.577 5.596-11.052 13.59-12.061 22.617-1.264.065-2.526.194-3.781.387-.206-8.438-3.226-16.854-9.171-23.716-2.3-2.653-4.913-4.931-7.754-6.804 3.66-3.685 8.675-5.832 14.04-5.832 8.591 0 16.017 5.392 18.727 13.348zm-61.622 31.011c-8.072-9.317-11.178-14.673-10.498-18.639 5.763-2.012 11.439-5.741 15.863-10.91 7.462-.925 14.916 1.889 19.908 7.649 8.184 9.445 7.158 23.788-2.287 31.973-5.888 5.101-10.12 4.774-22.986-10.073zm62.176 46.286c-4.649-.673-10.69-4.236-16.526-7.987-10.366-6.662-14.855-10.925-15.323-14.92.822-.593 1.649-1.248 2.482-1.969 4.261-3.692 7.49-8.139 9.662-12.972 6.901-2.989 14.847-2.392 21.259 1.73 5.093 3.272 8.606 8.333 9.893 14.249 1.286 5.911.191 11.983-3.08 17.071-2.21 3.437-4.492 5.367-8.367 4.798zm56.171 18.907c-4.648.66-11.451-1.053-18.107-3.008-11.828-3.473-17.336-6.3-18.908-10.004.622-.796 1.233-1.656 1.83-2.584 3.005-4.675 4.904-9.843 5.642-15.189 5.776-4.796 13.557-6.451 20.858-4.309 5.809 1.705 10.605 5.571 13.507 10.885 2.887 5.287 3.568 11.412 1.854 17.247-1.147 3.904-2.785 6.406-6.676 6.962zm41.003 4.532c-12.329 0-18.411-1.161-20.962-4.273.373-.939.717-1.936 1.027-2.994 1.566-5.333 1.932-10.825 1.134-16.163 4.19-6.23 11.189-10.01 18.8-10.01 7.293 0 14.125 3.545 18.363 9.392-.566 4.938-.142 9.987 1.3 14.9.427 1.455.967 2.954 1.648 4.437-2.03 3.072-7.207 4.711-21.31 4.711zm45.191-55.899c-.715.21-1.421.44-2.117.689-2.52-3.392-3.884-7.493-3.884-11.782 0-10.915 8.881-19.796 19.796-19.796 4.417 0 8.64 1.451 12.091 4.119 1.086 5.29 3.389 10.222 6.771 14.479-3.366 4.041-5.839 8.736-7.269 13.782-8.021-3.438-16.907-3.981-25.388-1.491zm81.579 9.149c-2.543 3.949-8.295 7.965-14.131 11.716-10.364 6.66-16.109 8.974-19.937 7.74-.2-1.005-.454-2.031-.761-3.077-1.566-5.333-4.227-10.152-7.785-14.211.157-7.506 4.001-14.47 10.403-18.584 10.514-6.757 24.564-3.699 31.32 6.813 2.221 3.454 3.007 6.318.891 9.603zm30.275-28.018c-8.067 9.311-12.926 13.15-16.947 13.044-.47-.898-1.002-1.811-1.597-2.738-3.049-4.744-6.991-8.573-11.466-11.412-1.977-7.254-.253-15.034 4.738-20.793 3.965-4.575 9.474-7.333 15.513-7.766 5.857-.414 11.75 1.399 16.459 5.479 5.928 5.139 6.095 9.419-6.7 24.186zm31.413-50.637c-5.119 11.21-8.707 16.268-12.593 17.294-.7-.729-1.464-1.457-2.298-2.18-4.202-3.642-9.046-6.26-14.234-7.751-3.924-6.399-4.454-14.333-1.293-21.255 2.515-5.507 7.024-9.705 12.696-11.82 5.506-2.053 11.667-1.969 17.336.619 7.137 3.261 8.503 7.32.386 25.093zm-17.226-62.193c1.778-12.37 13.289-20.988 25.66-19.209 3.96.569 6.734 1.833 7.84 5.616 1.319 4.509.587 11.484-.4 18.352-1.754 12.201-3.768 18.057-7.211 20.14-.877-.503-1.814-.985-2.818-1.443-5.057-2.311-10.444-3.455-15.842-3.424-5.568-5.036-8.312-12.501-7.229-20.032zm-.949-50.063c-.861-5.992.662-11.962 4.29-16.809 3.542-4.73 8.786-7.969 14.918-8.851 4.017-.578 6.982-.133 9.105 3.181 2.536 3.954 3.799 10.854 4.786 17.72 1.754 12.203 1.471 18.387-1.246 21.355-.983-.235-2.018-.434-3.11-.591-5.582-.803-11.058-.332-16.133 1.192-6.777-3.257-11.526-9.653-12.61-17.197zm20.224-40.817c-1.009.051-2.059.153-3.151.31-5.501.791-10.65 2.739-15.174 5.683-7.407-1.224-13.753-6.02-16.915-12.942-5.191-11.368-.167-24.841 11.201-30.032 3.744-1.708 6.687-2.072 9.633.486 3.548 3.08 6.703 9.344 9.585 15.653 5.121 11.214 6.592 17.228 4.821 20.842zm-37.833-70.451c8.068 9.313 11.175 14.669 10.498 18.634-.955.337-1.933.733-2.935 1.19-5.056 2.309-9.447 5.629-12.958 9.728-7.453.914-14.894-1.899-19.879-7.651-8.184-9.445-7.158-23.788 2.287-31.973 6.028-5.221 10.307-4.56 22.987 10.072zm-45.65-38.297c10.366 6.661 14.856 10.924 15.323 14.92-.822.593-1.649 1.249-2.482 1.97-4.261 3.692-7.491 8.139-9.663 12.972-6.9 2.99-14.844 2.39-21.258-1.73-10.513-6.757-13.569-20.808-6.813-31.321 4.421-6.876 8.848-7.122 24.893 3.189zm-68.237 22.591c3.517 1.032 7.097 1.535 10.645 1.535 5.515 0 10.949-1.216 15.923-3.548 2.574 8.038 7.844 15.263 15.481 20.172 6.204 3.987 13.269 5.991 20.351 5.991 1.907 0 3.815-.146 5.707-.437.205 8.437 3.226 16.854 9.171 23.716 6.125 7.068 14.478 11.468 23.419 12.668-2.261 8.428-1.533 17.301 2.139 25.34 3.885 8.508 10.66 15.083 18.901 18.753-4.544 7.451-6.346 16.169-5.088 24.917 1.332 9.264 5.985 17.486 12.865 23.331-6.242 5.681-10.624 13.476-11.916 22.462-1.331 9.257.814 18.451 5.761 25.994-4.413 2.143-8.313 5.091-11.535 8.69-5.838-4.145-12.872-6.432-20.152-6.432-10.559 0-20.034 4.728-26.42 12.177-5.982-4.562-13.317-7.075-21.055-7.075-2.262 0-4.481.219-6.635.636-5.456-12.41-17.951-20.872-31.887-20.872-3.995 0-7.869.669-11.494 1.927-5.603-12.036-17.85-20.162-31.573-20.162-16.633 0-30.577 11.731-33.994 27.354-.659-.038-1.322-.058-1.986-.058-13.4 0-25.512 7.784-31.269 19.524-2.992-.841-6.133-1.289-9.355-1.289-14.225 0-26.824 8.691-32.133 21.426-2.912-.778-5.968-1.19-9.114-1.19-11.594 0-22.256 5.701-28.702 15.116-.34-.055-.68-.105-1.021-.151 2.179-8.152 1.652-17.078-2.119-25.336-3.885-8.508-10.661-15.083-18.901-18.753 4.544-7.451 6.346-16.169 5.088-24.917-1.332-9.265-5.987-17.487-12.867-23.332 6.242-5.681 10.625-13.475 11.918-22.461 1.332-9.265-.818-18.466-5.773-26.013 7.59-3.692 13.992-9.935 17.763-18.192 3.886-8.508 4.418-17.935 1.795-26.566 8.606-1.445 16.375-5.793 22.163-12.473 6.125-7.068 9.291-15.962 9.207-24.982 1.499.179 2.998.269 4.491.269 7.139 0 14.139-2.04 20.288-5.992 7.868-5.056 13.412-12.698 15.872-21.376 4.696 2.013 9.689 3.033 14.724 3.033 3.563 0 7.149-.511 10.664-1.543 8.98-2.636 16.457-8.413 21.263-16.056 6.511 5.37 14.85 8.599 23.929 8.599 9.359 0 18.161-3.437 24.925-9.416 4.733 6.987 11.825 12.434 20.536 14.992zm-45.462-54.017c12.328 0 18.411 1.162 20.963 4.275-.4 1.004-.74 2.007-1.029 2.991-1.588 5.41-1.901 10.897-1.115 16.138-4.188 6.246-11.196 10.037-18.818 10.037-12.498 0-22.665-10.168-22.665-22.665-.001-8 3.398-10.776 22.664-10.776zm-58.839 9.419c11.823-3.472 17.984-4.071 21.31-1.809-.09 1.009-.136 2.063-.136 3.165 0 5.638 1.246 10.991 3.476 15.798-2.259 7.173-7.915 12.784-15.228 14.931-5.81 1.704-11.936 1.046-17.248-1.854-5.289-2.887-9.171-7.671-10.885-13.507-2.247-7.652.141-11.271 18.711-16.724zm-67.932 37.33c2.543-3.949 8.294-7.965 14.13-11.715 10.365-6.662 16.108-8.976 19.937-7.741.198.994.451 2.02.761 3.077 1.566 5.333 4.228 10.152 7.785 14.21-.157 7.506-4.001 14.47-10.404 18.584-5.092 3.273-11.154 4.367-17.071 3.081-5.721-1.245-10.87-4.636-14.249-9.895-2.226-3.462-3.003-6.32-.889-9.601zm-40.533 43.24c1.328-4.506 5.715-9.978 10.258-15.221 8.068-9.312 12.924-13.154 16.947-13.046.47.898 1.002 1.812 1.598 2.739 3.005 4.676 6.917 8.55 11.474 11.442 1.964 7.247.238 15.011-4.746 20.764-3.965 4.575-9.474 7.333-15.512 7.765-6.039.426-11.885-1.515-16.46-5.479-3.084-2.672-4.669-5.199-3.559-8.964zm-21.155 35.416c5.12-11.212 8.707-16.266 12.594-17.294.699.729 1.463 1.456 2.296 2.178 4.2 3.64 9.045 6.256 14.232 7.747 3.927 6.4 4.458 14.337 1.296 21.261-5.191 11.367-18.665 16.395-30.032 11.201-7.306-3.337-8.387-7.574-.386-25.093z"/><path d="m256 0c-94.144 0-180.479 51.49-225.313 134.377-1.971 3.644-.615 8.194 3.028 10.165s8.195.613 10.165-3.028c42.211-78.036 123.49-126.514 212.12-126.514 132.887 0 241 108.112 241 241s-108.113 241-241 241-241-108.112-241-241c0-30.736 5.711-60.683 16.976-89.007 1.53-3.849-.349-8.21-4.198-9.74-3.849-1.532-8.21.349-9.741 4.197-11.968 30.096-18.037 61.907-18.037 94.55 0 68.38 26.628 132.667 74.98 181.02 48.353 48.351 112.64 74.98 181.02 74.98s132.667-26.629 181.019-74.98c48.352-48.353 74.981-112.64 74.981-181.02s-26.629-132.668-74.98-181.02-112.639-74.98-181.02-74.98z"/></g></g></svg>