<?xml version="1.0" encoding="utf-8"?>
<!-- Generator: Adobe Illustrator 24.0.0, SVG Export Plug-In . SVG Version: 6.00 Build 0)  -->
<svg version="1.1" id="Layer_1" xmlns="http://www.w3.org/2000/svg" xmlns:xlink="http://www.w3.org/1999/xlink" x="0px" y="0px"
	 viewBox="0 0 512 512" style="enable-background:new 0 0 512 512;" xml:space="preserve">
<style type="text/css">
	.st0{fill:#FAB991;}
	.st1{fill:#F0915A;}
	.st2{fill:#555A6E;}
	.st3{fill:#463C4B;}
	.st4{fill:#73788C;}
	.st5{fill:#F58CAA;}
	.st6{fill:#FAC3C8;}
	.st7{fill:#F05A4B;}
	.st8{fill:#D73728;}
	.st9{fill:#D7E6F0;}
	.st10{fill:#A5C3DC;}
	.st11{fill:#FF7869;}
	.st12{fill:#2387C3;}
	.st13{fill:#FAA032;}
	.st14{fill:#FAD741;}
	.st15{fill:#3FAFE1;}
	.st16{fill:#5AD7FF;}
	.st17{fill:#FFFFFF;}
	.st18{fill:#FFF55F;}
	.st19{fill:#0569A5;}
	.st20{fill:#D76E8C;}
	.st21{fill:#3CB44B;}
	.st22{fill:#DC6950;}
	.st23{fill:#D7E123;}
	.st24{fill:#735078;}
	.st25{fill:#9B7896;}
	.st26{fill:#3C413C;}
	.st27{fill:#1E962D;}
	.st28{fill:#8ACB37;}
	.st29{fill:#FFD7AF;}
	.st30{fill:#FFE1E6;}
	.st31{fill:#C85541;}
	.st32{fill:#FA876E;}
	.st33{fill:#353744;}
	.st34{fill:#56525C;}
	.st35{fill:#C82819;}
</style>
<g>
	<g>
		<rect x="232" y="176" class="st1" width="48" height="16"/>
	</g>
	<g>
		<path class="st0" d="M352,192H160c-26.51,0-48,21.49-48,48v64h48v192h80v-16h32v16h80V304h48v-64C400,213.49,378.51,192,352,192z"
			/>
	</g>
	<g>
		<path class="st1" d="M160,272L160,272l0,32h-10.667v-21.333C149.333,276.776,154.109,272,160,272z"/>
	</g>
	<g>
		<path class="st1" d="M282.667,464L282.667,464v32H272v-21.333C272,468.776,276.776,464,282.667,464z"/>
	</g>
	<g>
		<path class="st1" d="M229.333,464L229.333,464l0,32H240v-21.333C240,468.776,235.224,464,229.333,464z"/>
	</g>
	<g>
		<path class="st1" d="M352,272L352,272v32h10.667v-21.333C362.667,276.776,357.891,272,352,272z"/>
	</g>
	<g>
		<path class="st2" d="M320,464H192c-8.837,0-16-7.163-16-16V272c0-35.346,28.654-64,64-64h32c35.346,0,64,28.654,64,64v176
			C336,456.837,328.837,464,320,464z"/>
	</g>
	<g>
		<path class="st0" d="M240,16h-8c-35.346,0-64,28.654-64,64v16c-7.364,0-13.333,5.97-13.333,13.333v5.333
			c0,7.364,5.969,13.333,13.333,13.333v24c0,13.255,10.745,24,24,24h72c8.836,0,16,7.163,16,16v-48c13.255,0,24-10.745,24-24V80
			C304,44.654,275.346,16,240,16z"/>
	</g>
	<g>
		<path class="st7" d="M264,208h-16v-32c0-17.645-14.355-32-32-32h-48v-16h48c26.467,0,48,21.533,48,48V208z"/>
	</g>
	<path class="st5" d="M296,288h-32v-80h-16v80c0,8.822,7.178,16,16,16c4.411,0,8,3.589,8,8v32c0,4.411-3.589,8-8,8h-24
		c-13.233,0-24,10.766-24,24v16h16v-16c0-4.411,3.589-8,8-8h56c13.233,0,24-10.766,24-24v-32C320,298.766,309.233,288,296,288z"/>
	<path class="st6" d="M296,288h-8v24c0,8.822,7.178,16,16,16h16v-16C320,298.766,309.233,288,296,288z"/>
	<g>
		<path class="st22" d="M204.564,368H200c-4.418,0-8-3.582-8-8v-24c0-17.673,14.327-32,32-32h64c4.418,0,8,3.582,8,8v0
			c0,4.932-2.694,9.469-7.023,11.831l-77.96,42.524C209.037,367.434,206.818,368,204.564,368z"/>
	</g>
	<g>
		<path class="st31" d="M237.333,317.333V352l51.644-28.169C293.306,321.469,296,316.932,296,312v0c0-4.418-3.582-8-8-8h-64h0
			C231.364,304,237.333,309.97,237.333,317.333z"/>
	</g>
	<g>
		<path class="st5" d="M288,440h-64c-13.255,0-24-10.745-24-24v0c0-13.255,10.745-24,24-24h64c13.255,0,24,10.745,24,24v0
			C312,429.255,301.255,440,288,440z"/>
	</g>
	<g>
		<path class="st20" d="M256,392L256,392c2.946,0,5.333,2.388,5.333,5.333v32h-10.667v-32C250.667,394.388,253.054,392,256,392z"/>
	</g>
	<g>
		<path class="st20" d="M234.667,410.667L234.667,410.667c2.946,0,5.333,2.388,5.333,5.333v24h-10.667v-24
			C229.333,413.054,231.721,410.667,234.667,410.667z"/>
	</g>
	<g>
		<path class="st20" d="M208,392h10.667v18.667c0,2.945-2.388,5.333-5.333,5.333h0c-2.946,0-5.333-2.388-5.333-5.333V392z"/>
	</g>
	<g>
		<path class="st20" d="M277.333,410.667L277.333,410.667c-2.946,0-5.333,2.388-5.333,5.333v24h10.667v-24
			C282.667,413.054,280.279,410.667,277.333,410.667z"/>
	</g>
	<g>
		<path class="st20" d="M304,392h-10.667v18.667c0,2.945,2.388,5.333,5.333,5.333h0c2.945,0,5.333-2.388,5.333-5.333V392z"/>
	</g>
	<path class="st6" d="M288,384h-64c-17.645,0-32,14.355-32,32s14.355,32,32,32h8c4.418,0,8-3.582,8-8s-3.582-8-8-8h-8
		c-8.822,0-16-7.178-16-16s7.178-16,16-16h64c8.822,0,16,7.178,16,16s-7.178,16-16,16h-8c-17.645,0-32,14.355-32,32h16
		c0-8.822,7.178-16,16-16h8c17.645,0,32-14.355,32-32S305.645,384,288,384z"/>
	<g>
		<path class="st14" d="M288,384h-56v-8c0-4.418,3.582-8,8-8h48c4.418,0,8,3.582,8,8l0,0C296,380.418,292.418,384,288,384z"/>
	</g>
</g>
</svg>
