<svg width="609" height="494" viewBox="0 0 609 494" fill="none" xmlns="http://www.w3.org/2000/svg">
<g filter="url(#filter0_d_2498_10)">
<g opacity="0.9">
<rect width="600" height="483" rx="15" fill="white"/>
<path d="M200.312 45.4682H204.792V48.1082H196.892V34.0682H200.312V45.4682ZM205.744 42.5082C205.744 41.3615 205.957 40.3548 206.384 39.4882C206.824 38.6215 207.417 37.9548 208.164 37.4882C208.91 37.0215 209.744 36.7882 210.664 36.7882C211.45 36.7882 212.137 36.9482 212.724 37.2682C213.324 37.5882 213.784 38.0082 214.104 38.5282V36.9482H217.524V48.1082H214.104V46.5282C213.77 47.0482 213.304 47.4682 212.704 47.7882C212.117 48.1082 211.43 48.2682 210.644 48.2682C209.737 48.2682 208.91 48.0348 208.164 47.5682C207.417 47.0882 206.824 46.4148 206.384 45.5482C205.957 44.6682 205.744 43.6548 205.744 42.5082ZM214.104 42.5282C214.104 41.6748 213.864 41.0015 213.384 40.5082C212.917 40.0148 212.344 39.7682 211.664 39.7682C210.984 39.7682 210.404 40.0148 209.924 40.5082C209.457 40.9882 209.224 41.6548 209.224 42.5082C209.224 43.3615 209.457 44.0415 209.924 44.5482C210.404 45.0415 210.984 45.2882 211.664 45.2882C212.344 45.2882 212.917 45.0415 213.384 44.5482C213.864 44.0548 214.104 43.3815 214.104 42.5282ZM223.556 42.5282C223.556 41.3682 223.789 40.3548 224.256 39.4882C224.736 38.6215 225.396 37.9548 226.236 37.4882C227.089 37.0215 228.063 36.7882 229.156 36.7882C230.556 36.7882 231.723 37.1548 232.656 37.8882C233.603 38.6215 234.223 39.6548 234.516 40.9882H230.876C230.569 40.1348 229.976 39.7082 229.096 39.7082C228.469 39.7082 227.969 39.9548 227.596 40.4482C227.223 40.9282 227.036 41.6215 227.036 42.5282C227.036 43.4348 227.223 44.1348 227.596 44.6282C227.969 45.1082 228.469 45.3482 229.096 45.3482C229.976 45.3482 230.569 44.9215 230.876 44.0682H234.516C234.223 45.3748 233.603 46.4015 232.656 47.1482C231.709 47.8948 230.543 48.2682 229.156 48.2682C228.063 48.2682 227.089 48.0348 226.236 47.5682C225.396 47.1015 224.736 46.4348 224.256 45.5682C223.789 44.7015 223.556 43.6882 223.556 42.5282ZM247.365 36.9482V48.1082H243.945V46.5882C243.599 47.0815 243.125 47.4815 242.525 47.7882C241.939 48.0815 241.285 48.2282 240.565 48.2282C239.712 48.2282 238.959 48.0415 238.305 47.6682C237.652 47.2815 237.145 46.7282 236.785 46.0082C236.425 45.2882 236.245 44.4415 236.245 43.4682V36.9482H239.645V43.0082C239.645 43.7548 239.839 44.3348 240.225 44.7482C240.612 45.1615 241.132 45.3682 241.785 45.3682C242.452 45.3682 242.979 45.1615 243.365 44.7482C243.752 44.3348 243.945 43.7548 243.945 43.0082V36.9482H247.365ZM253.242 38.8082C253.642 38.1948 254.142 37.7148 254.742 37.3682C255.342 37.0082 256.009 36.8282 256.742 36.8282V40.4482H255.802C254.949 40.4482 254.309 40.6348 253.882 41.0082C253.455 41.3682 253.242 42.0082 253.242 42.9282V48.1082H249.822V36.9482H253.242V38.8082ZM263.397 44.9082L265.817 36.9482H269.457L265.497 48.1082H261.277L257.317 36.9482H260.977L263.397 44.9082ZM270.216 42.5082C270.216 41.3615 270.43 40.3548 270.856 39.4882C271.296 38.6215 271.89 37.9548 272.636 37.4882C273.383 37.0215 274.216 36.7882 275.136 36.7882C275.923 36.7882 276.61 36.9482 277.196 37.2682C277.796 37.5882 278.256 38.0082 278.576 38.5282V36.9482H281.996V48.1082H278.576V46.5282C278.243 47.0482 277.776 47.4682 277.176 47.7882C276.59 48.1082 275.903 48.2682 275.116 48.2682C274.21 48.2682 273.383 48.0348 272.636 47.5682C271.89 47.0882 271.296 46.4148 270.856 45.5482C270.43 44.6682 270.216 43.6548 270.216 42.5082ZM278.576 42.5282C278.576 41.6748 278.336 41.0015 277.856 40.5082C277.39 40.0148 276.816 39.7682 276.136 39.7682C275.456 39.7682 274.876 40.0148 274.396 40.5082C273.93 40.9882 273.696 41.6548 273.696 42.5082C273.696 43.3615 273.93 44.0415 274.396 44.5482C274.876 45.0415 275.456 45.2882 276.136 45.2882C276.816 45.2882 277.39 45.0415 277.856 44.5482C278.336 44.0548 278.576 43.3815 278.576 42.5282ZM288.029 42.5082C288.029 41.3615 288.242 40.3548 288.669 39.4882C289.109 38.6215 289.702 37.9548 290.449 37.4882C291.195 37.0215 292.029 36.7882 292.949 36.7882C293.682 36.7882 294.349 36.9415 294.949 37.2482C295.562 37.5548 296.042 37.9682 296.389 38.4882V33.3082H299.809V48.1082H296.389V46.5082C296.069 47.0415 295.609 47.4682 295.009 47.7882C294.422 48.1082 293.735 48.2682 292.949 48.2682C292.029 48.2682 291.195 48.0348 290.449 47.5682C289.702 47.0882 289.109 46.4148 288.669 45.5482C288.242 44.6682 288.029 43.6548 288.029 42.5082ZM296.389 42.5282C296.389 41.6748 296.149 41.0015 295.669 40.5082C295.202 40.0148 294.629 39.7682 293.949 39.7682C293.269 39.7682 292.689 40.0148 292.209 40.5082C291.742 40.9882 291.509 41.6548 291.509 42.5082C291.509 43.3615 291.742 44.0415 292.209 44.5482C292.689 45.0415 293.269 45.2882 293.949 45.2882C294.629 45.2882 295.202 45.0415 295.669 44.5482C296.149 44.0548 296.389 43.3815 296.389 42.5282ZM312.803 42.3482C312.803 42.6682 312.783 43.0015 312.743 43.3482H305.003C305.056 44.0415 305.276 44.5748 305.663 44.9482C306.063 45.3082 306.55 45.4882 307.123 45.4882C307.976 45.4882 308.57 45.1282 308.903 44.4082H312.543C312.356 45.1415 312.016 45.8015 311.523 46.3882C311.043 46.9748 310.436 47.4348 309.703 47.7682C308.97 48.1015 308.15 48.2682 307.243 48.2682C306.15 48.2682 305.176 48.0348 304.323 47.5682C303.47 47.1015 302.803 46.4348 302.323 45.5682C301.843 44.7015 301.603 43.6882 301.603 42.5282C301.603 41.3682 301.836 40.3548 302.303 39.4882C302.783 38.6215 303.45 37.9548 304.303 37.4882C305.156 37.0215 306.136 36.7882 307.243 36.7882C308.323 36.7882 309.283 37.0148 310.123 37.4682C310.963 37.9215 311.616 38.5682 312.083 39.4082C312.563 40.2482 312.803 41.2282 312.803 42.3482ZM309.303 41.4482C309.303 40.8615 309.103 40.3948 308.703 40.0482C308.303 39.7015 307.803 39.5282 307.203 39.5282C306.63 39.5282 306.143 39.6948 305.743 40.0282C305.356 40.3615 305.116 40.8348 305.023 41.4482H309.303ZM318.027 33.3082V48.1082H314.607V33.3082H318.027ZM329.824 48.2682C328.731 48.2682 327.744 48.0348 326.864 47.5682C325.997 47.1015 325.311 46.4348 324.804 45.5682C324.311 44.7015 324.064 43.6882 324.064 42.5282C324.064 41.3815 324.317 40.3748 324.824 39.5082C325.331 38.6282 326.024 37.9548 326.904 37.4882C327.784 37.0215 328.771 36.7882 329.864 36.7882C330.957 36.7882 331.944 37.0215 332.824 37.4882C333.704 37.9548 334.397 38.6282 334.904 39.5082C335.411 40.3748 335.664 41.3815 335.664 42.5282C335.664 43.6748 335.404 44.6882 334.884 45.5682C334.377 46.4348 333.677 47.1015 332.784 47.5682C331.904 48.0348 330.917 48.2682 329.824 48.2682ZM329.824 45.3082C330.477 45.3082 331.031 45.0682 331.484 44.5882C331.951 44.1082 332.184 43.4215 332.184 42.5282C332.184 41.6348 331.957 40.9482 331.504 40.4682C331.064 39.9882 330.517 39.7482 329.864 39.7482C329.197 39.7482 328.644 39.9882 328.204 40.4682C327.764 40.9348 327.544 41.6215 327.544 42.5282C327.544 43.4215 327.757 44.1082 328.184 44.5882C328.624 45.0682 329.171 45.3082 329.824 45.3082ZM340.898 33.3082V48.1082H337.478V33.3082H340.898ZM348.397 44.9082L350.817 36.9482H354.457L350.497 48.1082H346.277L342.317 36.9482H345.977L348.397 44.9082ZM357.616 35.7882C357.016 35.7882 356.523 35.6148 356.136 35.2682C355.763 34.9082 355.576 34.4682 355.576 33.9482C355.576 33.4148 355.763 32.9748 356.136 32.6282C356.523 32.2682 357.016 32.0882 357.616 32.0882C358.203 32.0882 358.683 32.2682 359.056 32.6282C359.443 32.9748 359.636 33.4148 359.636 33.9482C359.636 34.4682 359.443 34.9082 359.056 35.2682C358.683 35.6148 358.203 35.7882 357.616 35.7882ZM359.316 36.9482V48.1082H355.896V36.9482H359.316ZM361.115 42.5082C361.115 41.3615 361.328 40.3548 361.755 39.4882C362.195 38.6215 362.788 37.9548 363.535 37.4882C364.281 37.0215 365.115 36.7882 366.035 36.7882C366.768 36.7882 367.435 36.9415 368.035 37.2482C368.648 37.5548 369.128 37.9682 369.475 38.4882V33.3082H372.895V48.1082H369.475V46.5082C369.155 47.0415 368.695 47.4682 368.095 47.7882C367.508 48.1082 366.821 48.2682 366.035 48.2682C365.115 48.2682 364.281 48.0348 363.535 47.5682C362.788 47.0882 362.195 46.4148 361.755 45.5482C361.328 44.6682 361.115 43.6548 361.115 42.5082ZM369.475 42.5282C369.475 41.6748 369.235 41.0015 368.755 40.5082C368.288 40.0148 367.715 39.7682 367.035 39.7682C366.355 39.7682 365.775 40.0148 365.295 40.5082C364.828 40.9882 364.595 41.6548 364.595 42.5082C364.595 43.3615 364.828 44.0415 365.295 44.5482C365.775 45.0415 366.355 45.2882 367.035 45.2882C367.715 45.2882 368.288 45.0415 368.755 44.5482C369.235 44.0548 369.475 43.3815 369.475 42.5282ZM380.449 48.2682C379.356 48.2682 378.369 48.0348 377.489 47.5682C376.622 47.1015 375.936 46.4348 375.429 45.5682C374.936 44.7015 374.689 43.6882 374.689 42.5282C374.689 41.3815 374.942 40.3748 375.449 39.5082C375.956 38.6282 376.649 37.9548 377.529 37.4882C378.409 37.0215 379.396 36.7882 380.489 36.7882C381.582 36.7882 382.569 37.0215 383.449 37.4882C384.329 37.9548 385.022 38.6282 385.529 39.5082C386.036 40.3748 386.289 41.3815 386.289 42.5282C386.289 43.6748 386.029 44.6882 385.509 45.5682C385.002 46.4348 384.302 47.1015 383.409 47.5682C382.529 48.0348 381.542 48.2682 380.449 48.2682ZM380.449 45.3082C381.102 45.3082 381.656 45.0682 382.109 44.5882C382.576 44.1082 382.809 43.4215 382.809 42.5282C382.809 41.6348 382.582 40.9482 382.129 40.4682C381.689 39.9882 381.142 39.7482 380.489 39.7482C379.822 39.7482 379.269 39.9882 378.829 40.4682C378.389 40.9348 378.169 41.6215 378.169 42.5282C378.169 43.4215 378.382 44.1082 378.809 44.5882C379.249 45.0682 379.796 45.3082 380.449 45.3082Z" fill="#00A199"/>
<line x1="200" y1="119" x2="460" y2="119" stroke="#DCE9E2" stroke-width="2"/>
<path d="M459.293 148.707C459.683 149.098 460.317 149.098 460.707 148.707L467.071 142.343C467.462 141.953 467.462 141.319 467.071 140.929C466.681 140.538 466.047 140.538 465.657 140.929L460 146.586L454.343 140.929C453.953 140.538 453.319 140.538 452.929 140.929C452.538 141.319 452.538 141.953 452.929 142.343L459.293 148.707ZM459 118V148H461V118H459Z" fill="#DCE9E2"/>
<path d="M299.793 150.707C300.183 151.098 300.817 151.098 301.207 150.707L307.571 144.343C307.962 143.953 307.962 143.319 307.571 142.929C307.181 142.538 306.547 142.538 306.157 142.929L300.5 148.586L294.843 142.929C294.453 142.538 293.819 142.538 293.429 142.929C293.038 143.319 293.038 143.953 293.429 144.343L299.793 150.707ZM299.5 120V150H301.5V120H299.5Z" fill="#DCE9E2"/>
<path d="M199.293 148.707C199.683 149.098 200.317 149.098 200.707 148.707L207.071 142.343C207.462 141.953 207.462 141.319 207.071 140.929C206.681 140.538 206.047 140.538 205.657 140.929L200 146.586L194.343 140.929C193.953 140.538 193.319 140.538 192.929 140.929C192.538 141.319 192.538 141.953 192.929 142.343L199.293 148.707ZM199 118V148H201V118H199Z" fill="#DCE9E2"/>
<path d="M212.46 104L210.562 100.555H210.029V104H207.806V94.874H211.537C212.256 94.874 212.867 94.9997 213.37 95.251C213.881 95.5023 214.263 95.849 214.514 96.291C214.765 96.7243 214.891 97.2097 214.891 97.747C214.891 98.3537 214.718 98.8953 214.371 99.372C214.033 99.8487 213.53 100.187 212.863 100.386L214.969 104H212.46ZM210.029 98.982H211.407C211.814 98.982 212.118 98.8823 212.317 98.683C212.525 98.4837 212.629 98.202 212.629 97.838C212.629 97.4913 212.525 97.2183 212.317 97.019C212.118 96.8197 211.814 96.72 211.407 96.72H210.029V98.982ZM223.124 100.256C223.124 100.464 223.111 100.681 223.085 100.906H218.054C218.089 101.357 218.232 101.703 218.483 101.946C218.743 102.18 219.06 102.297 219.432 102.297C219.987 102.297 220.373 102.063 220.589 101.595H222.955C222.834 102.072 222.613 102.501 222.292 102.882C221.98 103.263 221.586 103.562 221.109 103.779C220.633 103.996 220.1 104.104 219.51 104.104C218.8 104.104 218.167 103.952 217.612 103.649C217.058 103.346 216.624 102.912 216.312 102.349C216 101.786 215.844 101.127 215.844 100.373C215.844 99.619 215.996 98.9603 216.299 98.397C216.611 97.8337 217.045 97.4003 217.599 97.097C218.154 96.7937 218.791 96.642 219.51 96.642C220.212 96.642 220.836 96.7893 221.382 97.084C221.928 97.3787 222.353 97.799 222.656 98.345C222.968 98.891 223.124 99.528 223.124 100.256ZM220.849 99.671C220.849 99.2897 220.719 98.9863 220.459 98.761C220.199 98.5357 219.874 98.423 219.484 98.423C219.112 98.423 218.795 98.5313 218.535 98.748C218.284 98.9647 218.128 99.2723 218.067 99.671H220.849ZM226.52 97.773C226.737 97.435 227.036 97.162 227.417 96.954C227.799 96.746 228.245 96.642 228.756 96.642C229.354 96.642 229.896 96.7937 230.381 97.097C230.867 97.4003 231.248 97.8337 231.525 98.397C231.811 98.9603 231.954 99.6147 231.954 100.36C231.954 101.105 231.811 101.764 231.525 102.336C231.248 102.899 230.867 103.337 230.381 103.649C229.896 103.952 229.354 104.104 228.756 104.104C228.254 104.104 227.807 104 227.417 103.792C227.036 103.584 226.737 103.315 226.52 102.986V107.458H224.297V96.746H226.52V97.773ZM229.692 100.36C229.692 99.8053 229.536 99.372 229.224 99.06C228.921 98.7393 228.544 98.579 228.093 98.579C227.651 98.579 227.274 98.7393 226.962 99.06C226.659 99.3807 226.507 99.8183 226.507 100.373C226.507 100.928 226.659 101.365 226.962 101.686C227.274 102.007 227.651 102.167 228.093 102.167C228.535 102.167 228.912 102.007 229.224 101.686C229.536 101.357 229.692 100.915 229.692 100.36ZM232.678 100.36C232.678 99.6147 232.817 98.9603 233.094 98.397C233.38 97.8337 233.766 97.4003 234.251 97.097C234.737 96.7937 235.278 96.642 235.876 96.642C236.388 96.642 236.834 96.746 237.215 96.954C237.605 97.162 237.904 97.435 238.112 97.773V96.746H240.335V104H238.112V102.973C237.896 103.311 237.592 103.584 237.202 103.792C236.821 104 236.375 104.104 235.863 104.104C235.274 104.104 234.737 103.952 234.251 103.649C233.766 103.337 233.38 102.899 233.094 102.336C232.817 101.764 232.678 101.105 232.678 100.36ZM238.112 100.373C238.112 99.8183 237.956 99.3807 237.644 99.06C237.341 98.7393 236.968 98.579 236.526 98.579C236.084 98.579 235.707 98.7393 235.395 99.06C235.092 99.372 234.94 99.8053 234.94 100.36C234.94 100.915 235.092 101.357 235.395 101.686C235.707 102.007 236.084 102.167 236.526 102.167C236.968 102.167 237.341 102.007 237.644 101.686C237.956 101.365 238.112 100.928 238.112 100.373ZM244.895 104.104C244.262 104.104 243.699 103.996 243.205 103.779C242.711 103.562 242.321 103.268 242.035 102.895C241.749 102.514 241.588 102.089 241.554 101.621H243.751C243.777 101.872 243.894 102.076 244.102 102.232C244.31 102.388 244.565 102.466 244.869 102.466C245.146 102.466 245.358 102.414 245.506 102.31C245.662 102.197 245.74 102.054 245.74 101.881C245.74 101.673 245.631 101.521 245.415 101.426C245.198 101.322 244.847 101.209 244.362 101.088C243.842 100.967 243.408 100.841 243.062 100.711C242.715 100.572 242.416 100.36 242.165 100.074C241.913 99.7793 241.788 99.385 241.788 98.891C241.788 98.475 241.9 98.098 242.126 97.76C242.36 97.4133 242.698 97.1403 243.14 96.941C243.59 96.7417 244.123 96.642 244.739 96.642C245.649 96.642 246.364 96.8673 246.884 97.318C247.412 97.7687 247.716 98.3667 247.794 99.112H245.74C245.705 98.8607 245.592 98.6613 245.402 98.514C245.22 98.3667 244.977 98.293 244.674 98.293C244.414 98.293 244.214 98.345 244.076 98.449C243.937 98.5443 243.868 98.6787 243.868 98.852C243.868 99.06 243.976 99.216 244.193 99.32C244.418 99.424 244.765 99.528 245.233 99.632C245.77 99.7707 246.208 99.9093 246.546 100.048C246.884 100.178 247.178 100.395 247.43 100.698C247.69 100.993 247.824 101.391 247.833 101.894C247.833 102.319 247.711 102.7 247.469 103.038C247.235 103.367 246.892 103.627 246.442 103.818C246 104.009 245.484 104.104 244.895 104.104ZM252.495 104.104C251.784 104.104 251.143 103.952 250.571 103.649C250.007 103.346 249.561 102.912 249.232 102.349C248.911 101.786 248.751 101.127 248.751 100.373C248.751 99.6277 248.915 98.9733 249.245 98.41C249.574 97.838 250.025 97.4003 250.597 97.097C251.169 96.7937 251.81 96.642 252.521 96.642C253.231 96.642 253.873 96.7937 254.445 97.097C255.017 97.4003 255.467 97.838 255.797 98.41C256.126 98.9733 256.291 99.6277 256.291 100.373C256.291 101.118 256.122 101.777 255.784 102.349C255.454 102.912 254.999 103.346 254.419 103.649C253.847 103.952 253.205 104.104 252.495 104.104ZM252.495 102.18C252.919 102.18 253.279 102.024 253.574 101.712C253.877 101.4 254.029 100.954 254.029 100.373C254.029 99.7923 253.881 99.346 253.587 99.034C253.301 98.722 252.945 98.566 252.521 98.566C252.087 98.566 251.728 98.722 251.442 99.034C251.156 99.3373 251.013 99.7837 251.013 100.373C251.013 100.954 251.151 101.4 251.429 101.712C251.715 102.024 252.07 102.18 252.495 102.18ZM259.783 100.373C259.783 99.619 259.935 98.9603 260.238 98.397C260.55 97.8337 260.979 97.4003 261.525 97.097C262.08 96.7937 262.712 96.642 263.423 96.642C264.333 96.642 265.091 96.8803 265.698 97.357C266.313 97.8337 266.716 98.5053 266.907 99.372H264.541C264.342 98.8173 263.956 98.54 263.384 98.54C262.977 98.54 262.652 98.7003 262.409 99.021C262.166 99.333 262.045 99.7837 262.045 100.373C262.045 100.962 262.166 101.417 262.409 101.738C262.652 102.05 262.977 102.206 263.384 102.206C263.956 102.206 264.342 101.929 264.541 101.374H266.907C266.716 102.223 266.313 102.891 265.698 103.376C265.083 103.861 264.324 104.104 263.423 104.104C262.712 104.104 262.08 103.952 261.525 103.649C260.979 103.346 260.55 102.912 260.238 102.349C259.935 101.786 259.783 101.127 259.783 100.373ZM271.398 104.104C270.687 104.104 270.046 103.952 269.474 103.649C268.911 103.346 268.464 102.912 268.135 102.349C267.814 101.786 267.654 101.127 267.654 100.373C267.654 99.6277 267.819 98.9733 268.148 98.41C268.477 97.838 268.928 97.4003 269.5 97.097C270.072 96.7937 270.713 96.642 271.424 96.642C272.135 96.642 272.776 96.7937 273.348 97.097C273.92 97.4003 274.371 97.838 274.7 98.41C275.029 98.9733 275.194 99.6277 275.194 100.373C275.194 101.118 275.025 101.777 274.687 102.349C274.358 102.912 273.903 103.346 273.322 103.649C272.75 103.952 272.109 104.104 271.398 104.104ZM271.398 102.18C271.823 102.18 272.182 102.024 272.477 101.712C272.78 101.4 272.932 100.954 272.932 100.373C272.932 99.7923 272.785 99.346 272.49 99.034C272.204 98.722 271.849 98.566 271.424 98.566C270.991 98.566 270.631 98.722 270.345 99.034C270.059 99.3373 269.916 99.7837 269.916 100.373C269.916 100.954 270.055 101.4 270.332 101.712C270.618 102.024 270.973 102.18 271.398 102.18ZM280.793 96.668C281.643 96.668 282.319 96.9453 282.821 97.5C283.333 98.046 283.588 98.8 283.588 99.762V104H281.378V100.061C281.378 99.5757 281.253 99.1987 281.001 98.93C280.75 98.6613 280.412 98.527 279.987 98.527C279.563 98.527 279.225 98.6613 278.973 98.93C278.722 99.1987 278.596 99.5757 278.596 100.061V104H276.373V96.746H278.596V97.708C278.822 97.3873 279.125 97.136 279.506 96.954C279.888 96.7633 280.317 96.668 280.793 96.668ZM298.223 94.874V104H296V98.527L293.959 104H292.165L290.111 98.514V104H287.888V94.874H290.514L293.075 101.192L295.61 94.874H298.223ZM306.66 100.256C306.66 100.464 306.647 100.681 306.621 100.906H301.59C301.624 101.357 301.767 101.703 302.019 101.946C302.279 102.18 302.595 102.297 302.968 102.297C303.522 102.297 303.908 102.063 304.125 101.595H306.491C306.369 102.072 306.148 102.501 305.828 102.882C305.516 103.263 305.121 103.562 304.645 103.779C304.168 103.996 303.635 104.104 303.046 104.104C302.335 104.104 301.702 103.952 301.148 103.649C300.593 103.346 300.16 102.912 299.848 102.349C299.536 101.786 299.38 101.127 299.38 100.373C299.38 99.619 299.531 98.9603 299.835 98.397C300.147 97.8337 300.58 97.4003 301.135 97.097C301.689 96.7937 302.326 96.642 303.046 96.642C303.748 96.642 304.372 96.7893 304.918 97.084C305.464 97.3787 305.888 97.799 306.192 98.345C306.504 98.891 306.66 99.528 306.66 100.256ZM304.385 99.671C304.385 99.2897 304.255 98.9863 303.995 98.761C303.735 98.5357 303.41 98.423 303.02 98.423C302.647 98.423 302.331 98.5313 302.071 98.748C301.819 98.9647 301.663 99.2723 301.603 99.671H304.385ZM307.39 100.36C307.39 99.6147 307.529 98.9603 307.806 98.397C308.092 97.8337 308.478 97.4003 308.963 97.097C309.449 96.7937 309.99 96.642 310.588 96.642C311.065 96.642 311.498 96.7417 311.888 96.941C312.287 97.1403 312.599 97.409 312.824 97.747V94.38H315.047V104H312.824V102.96C312.616 103.307 312.317 103.584 311.927 103.792C311.546 104 311.1 104.104 310.588 104.104C309.99 104.104 309.449 103.952 308.963 103.649C308.478 103.337 308.092 102.899 307.806 102.336C307.529 101.764 307.39 101.105 307.39 100.36ZM312.824 100.373C312.824 99.8183 312.668 99.3807 312.356 99.06C312.053 98.7393 311.68 98.579 311.238 98.579C310.796 98.579 310.419 98.7393 310.107 99.06C309.804 99.372 309.652 99.8053 309.652 100.36C309.652 100.915 309.804 101.357 310.107 101.686C310.419 102.007 310.796 102.167 311.238 102.167C311.68 102.167 312.053 102.007 312.356 101.686C312.668 101.365 312.824 100.928 312.824 100.373ZM320.296 98.592H319.1V104H316.877V98.592H316.071V96.746H316.877V96.538C316.877 95.6453 317.132 94.9693 317.644 94.51C318.155 94.042 318.905 93.808 319.893 93.808C320.057 93.808 320.179 93.8123 320.257 93.821V95.706C319.832 95.68 319.533 95.7407 319.36 95.888C319.186 96.0353 319.1 96.2997 319.1 96.681V96.746H320.296V98.592ZM328.75 96.746L324.2 107.445H321.808L323.472 103.753L320.521 96.746H323.004L324.681 101.283L326.345 96.746H328.75ZM331.867 100.36C331.867 99.6147 332.006 98.9603 332.283 98.397C332.569 97.8337 332.955 97.4003 333.44 97.097C333.925 96.7937 334.467 96.642 335.065 96.642C335.576 96.642 336.023 96.746 336.404 96.954C336.794 97.162 337.093 97.435 337.301 97.773V96.746H339.524V104H337.301V102.973C337.084 103.311 336.781 103.584 336.391 103.792C336.01 104 335.563 104.104 335.052 104.104C334.463 104.104 333.925 103.952 333.44 103.649C332.955 103.337 332.569 102.899 332.283 102.336C332.006 101.764 331.867 101.105 331.867 100.36ZM337.301 100.373C337.301 99.8183 337.145 99.3807 336.833 99.06C336.53 98.7393 336.157 98.579 335.715 98.579C335.273 98.579 334.896 98.7393 334.584 99.06C334.281 99.372 334.129 99.8053 334.129 100.36C334.129 100.915 334.281 101.357 334.584 101.686C334.896 102.007 335.273 102.167 335.715 102.167C336.157 102.167 336.53 102.007 336.833 101.686C337.145 101.365 337.301 100.928 337.301 100.373ZM345.552 96.668C346.402 96.668 347.078 96.9453 347.58 97.5C348.092 98.046 348.347 98.8 348.347 99.762V104H346.137V100.061C346.137 99.5757 346.012 99.1987 345.76 98.93C345.509 98.6613 345.171 98.527 344.746 98.527C344.322 98.527 343.984 98.6613 343.732 98.93C343.481 99.1987 343.355 99.5757 343.355 100.061V104H341.132V96.746H343.355V97.708C343.581 97.3873 343.884 97.136 344.265 96.954C344.647 96.7633 345.076 96.668 345.552 96.668ZM353.935 102.115V104H352.804C351.998 104 351.37 103.805 350.919 103.415C350.468 103.016 350.243 102.371 350.243 101.478V98.592H349.359V96.746H350.243V94.978H352.466V96.746H353.922V98.592H352.466V101.504C352.466 101.721 352.518 101.877 352.622 101.972C352.726 102.067 352.899 102.115 353.142 102.115H353.935ZM362.011 100.256C362.011 100.464 361.998 100.681 361.972 100.906H356.941C356.976 101.357 357.119 101.703 357.37 101.946C357.63 102.18 357.947 102.297 358.319 102.297C358.874 102.297 359.26 102.063 359.476 101.595H361.842C361.721 102.072 361.5 102.501 361.179 102.882C360.867 103.263 360.473 103.562 359.996 103.779C359.52 103.996 358.987 104.104 358.397 104.104C357.687 104.104 357.054 103.952 356.499 103.649C355.945 103.346 355.511 102.912 355.199 102.349C354.887 101.786 354.731 101.127 354.731 100.373C354.731 99.619 354.883 98.9603 355.186 98.397C355.498 97.8337 355.932 97.4003 356.486 97.097C357.041 96.7937 357.678 96.642 358.397 96.642C359.099 96.642 359.723 96.7893 360.269 97.084C360.815 97.3787 361.24 97.799 361.543 98.345C361.855 98.891 362.011 99.528 362.011 100.256ZM359.736 99.671C359.736 99.2897 359.606 98.9863 359.346 98.761C359.086 98.5357 358.761 98.423 358.371 98.423C357.999 98.423 357.682 98.5313 357.422 98.748C357.171 98.9647 357.015 99.2723 356.954 99.671H359.736ZM366.135 104.104C365.502 104.104 364.939 103.996 364.445 103.779C363.951 103.562 363.561 103.268 363.275 102.895C362.989 102.514 362.829 102.089 362.794 101.621H364.991C365.017 101.872 365.134 102.076 365.342 102.232C365.55 102.388 365.806 102.466 366.109 102.466C366.386 102.466 366.599 102.414 366.746 102.31C366.902 102.197 366.98 102.054 366.98 101.881C366.98 101.673 366.872 101.521 366.655 101.426C366.438 101.322 366.087 101.209 365.602 101.088C365.082 100.967 364.649 100.841 364.302 100.711C363.955 100.572 363.656 100.36 363.405 100.074C363.154 99.7793 363.028 99.385 363.028 98.891C363.028 98.475 363.141 98.098 363.366 97.76C363.6 97.4133 363.938 97.1403 364.38 96.941C364.831 96.7417 365.364 96.642 365.979 96.642C366.889 96.642 367.604 96.8673 368.124 97.318C368.653 97.7687 368.956 98.3667 369.034 99.112H366.98C366.945 98.8607 366.833 98.6613 366.642 98.514C366.46 98.3667 366.217 98.293 365.914 98.293C365.654 98.293 365.455 98.345 365.316 98.449C365.177 98.5443 365.108 98.6787 365.108 98.852C365.108 99.06 365.216 99.216 365.433 99.32C365.658 99.424 366.005 99.528 366.473 99.632C367.01 99.7707 367.448 99.9093 367.786 100.048C368.124 100.178 368.419 100.395 368.67 100.698C368.93 100.993 369.064 101.391 369.073 101.894C369.073 102.319 368.952 102.7 368.709 103.038C368.475 103.367 368.133 103.627 367.682 103.818C367.24 104.009 366.724 104.104 366.135 104.104ZM372.746 100.386C372.746 99.6667 372.893 99.0253 373.188 98.462C373.491 97.8987 373.894 97.461 374.397 97.149C374.908 96.8283 375.463 96.668 376.061 96.668C376.52 96.668 376.932 96.7503 377.296 96.915C377.66 97.071 377.955 97.292 378.18 97.578V96.746H380.403V107.458H378.18V103.09C377.929 103.393 377.621 103.636 377.257 103.818C376.902 104 376.494 104.091 376.035 104.091C375.446 104.091 374.9 103.935 374.397 103.623C373.894 103.311 373.491 102.873 373.188 102.31C372.893 101.747 372.746 101.105 372.746 100.386ZM378.18 100.373C378.18 99.983 378.102 99.658 377.946 99.398C377.799 99.1293 377.604 98.93 377.361 98.8C377.118 98.6613 376.863 98.592 376.594 98.592C376.334 98.592 376.083 98.6613 375.84 98.8C375.597 98.93 375.398 99.1293 375.242 99.398C375.086 99.6667 375.008 99.996 375.008 100.386C375.008 100.776 375.086 101.105 375.242 101.374C375.398 101.634 375.597 101.833 375.84 101.972C376.083 102.102 376.334 102.167 376.594 102.167C376.854 102.167 377.105 102.102 377.348 101.972C377.599 101.833 377.799 101.63 377.946 101.361C378.102 101.092 378.18 100.763 378.18 100.373ZM389.174 96.746V104H386.951V103.012C386.726 103.333 386.418 103.593 386.028 103.792C385.647 103.983 385.222 104.078 384.754 104.078C384.199 104.078 383.71 103.957 383.285 103.714C382.86 103.463 382.531 103.103 382.297 102.635C382.063 102.167 381.946 101.617 381.946 100.984V96.746H384.156V100.685C384.156 101.17 384.282 101.547 384.533 101.816C384.784 102.085 385.122 102.219 385.547 102.219C385.98 102.219 386.323 102.085 386.574 101.816C386.825 101.547 386.951 101.17 386.951 100.685V96.746H389.174ZM397.609 100.256C397.609 100.464 397.596 100.681 397.57 100.906H392.539C392.574 101.357 392.717 101.703 392.968 101.946C393.228 102.18 393.544 102.297 393.917 102.297C394.472 102.297 394.857 102.063 395.074 101.595H397.44C397.319 102.072 397.098 102.501 396.777 102.882C396.465 103.263 396.071 103.562 395.594 103.779C395.117 103.996 394.584 104.104 393.995 104.104C393.284 104.104 392.652 103.952 392.097 103.649C391.542 103.346 391.109 102.912 390.797 102.349C390.485 101.786 390.329 101.127 390.329 100.373C390.329 99.619 390.481 98.9603 390.784 98.397C391.096 97.8337 391.529 97.4003 392.084 97.097C392.639 96.7937 393.276 96.642 393.995 96.642C394.697 96.642 395.321 96.7893 395.867 97.084C396.413 97.3787 396.838 97.799 397.141 98.345C397.453 98.891 397.609 99.528 397.609 100.256ZM395.334 99.671C395.334 99.2897 395.204 98.9863 394.944 98.761C394.684 98.5357 394.359 98.423 393.969 98.423C393.596 98.423 393.28 98.5313 393.02 98.748C392.769 98.9647 392.613 99.2723 392.552 99.671H395.334ZM404.487 104.104C403.855 104.104 403.291 103.996 402.797 103.779C402.303 103.562 401.913 103.268 401.627 102.895C401.341 102.514 401.181 102.089 401.146 101.621H403.343C403.369 101.872 403.486 102.076 403.694 102.232C403.902 102.388 404.158 102.466 404.461 102.466C404.739 102.466 404.951 102.414 405.098 102.31C405.254 102.197 405.332 102.054 405.332 101.881C405.332 101.673 405.224 101.521 405.007 101.426C404.791 101.322 404.44 101.209 403.954 101.088C403.434 100.967 403.001 100.841 402.654 100.711C402.308 100.572 402.009 100.36 401.757 100.074C401.506 99.7793 401.38 99.385 401.38 98.891C401.38 98.475 401.493 98.098 401.718 97.76C401.952 97.4133 402.29 97.1403 402.732 96.941C403.183 96.7417 403.716 96.642 404.331 96.642C405.241 96.642 405.956 96.8673 406.476 97.318C407.005 97.7687 407.308 98.3667 407.386 99.112H405.332C405.298 98.8607 405.185 98.6613 404.994 98.514C404.812 98.3667 404.57 98.293 404.266 98.293C404.006 98.293 403.807 98.345 403.668 98.449C403.53 98.5443 403.46 98.6787 403.46 98.852C403.46 99.06 403.569 99.216 403.785 99.32C404.011 99.424 404.357 99.528 404.825 99.632C405.363 99.7707 405.8 99.9093 406.138 100.048C406.476 100.178 406.771 100.395 407.022 100.698C407.282 100.993 407.417 101.391 407.425 101.894C407.425 102.319 407.304 102.7 407.061 103.038C406.827 103.367 406.485 103.627 406.034 103.818C405.592 104.009 405.077 104.104 404.487 104.104ZM415.623 100.256C415.623 100.464 415.61 100.681 415.584 100.906H410.553C410.588 101.357 410.731 101.703 410.982 101.946C411.242 102.18 411.559 102.297 411.931 102.297C412.486 102.297 412.872 102.063 413.088 101.595H415.454C415.333 102.072 415.112 102.501 414.791 102.882C414.479 103.263 414.085 103.562 413.608 103.779C413.132 103.996 412.599 104.104 412.009 104.104C411.299 104.104 410.666 103.952 410.111 103.649C409.557 103.346 409.123 102.912 408.811 102.349C408.499 101.786 408.343 101.127 408.343 100.373C408.343 99.619 408.495 98.9603 408.798 98.397C409.11 97.8337 409.544 97.4003 410.098 97.097C410.653 96.7937 411.29 96.642 412.009 96.642C412.711 96.642 413.335 96.7893 413.881 97.084C414.427 97.3787 414.852 97.799 415.155 98.345C415.467 98.891 415.623 99.528 415.623 100.256ZM413.348 99.671C413.348 99.2897 413.218 98.9863 412.958 98.761C412.698 98.5357 412.373 98.423 411.983 98.423C411.611 98.423 411.294 98.5313 411.034 98.748C410.783 98.9647 410.627 99.2723 410.566 99.671H413.348ZM422.853 104.104C422.142 104.104 421.501 103.952 420.929 103.649C420.366 103.346 419.919 102.912 419.59 102.349C419.269 101.786 419.109 101.127 419.109 100.373C419.109 99.6277 419.274 98.9733 419.603 98.41C419.932 97.838 420.383 97.4003 420.955 97.097C421.527 96.7937 422.168 96.642 422.879 96.642C423.59 96.642 424.231 96.7937 424.803 97.097C425.375 97.4003 425.826 97.838 426.155 98.41C426.484 98.9733 426.649 99.6277 426.649 100.373C426.649 101.118 426.48 101.777 426.142 102.349C425.813 102.912 425.358 103.346 424.777 103.649C424.205 103.952 423.564 104.104 422.853 104.104ZM422.853 102.18C423.278 102.18 423.637 102.024 423.932 101.712C424.235 101.4 424.387 100.954 424.387 100.373C424.387 99.7923 424.24 99.346 423.945 99.034C423.659 98.722 423.304 98.566 422.879 98.566C422.446 98.566 422.086 98.722 421.8 99.034C421.514 99.3373 421.371 99.7837 421.371 100.373C421.371 100.954 421.51 101.4 421.787 101.712C422.073 102.024 422.428 102.18 422.853 102.18ZM430.051 94.38V104H427.828V94.38H430.051ZM434.925 101.92L436.498 96.746H438.864L436.29 104H433.547L430.973 96.746H433.352L434.925 101.92ZM440.918 95.992C440.528 95.992 440.207 95.8793 439.956 95.654C439.713 95.42 439.592 95.134 439.592 94.796C439.592 94.4493 439.713 94.1633 439.956 93.938C440.207 93.704 440.528 93.587 440.918 93.587C441.299 93.587 441.611 93.704 441.854 93.938C442.105 94.1633 442.231 94.4493 442.231 94.796C442.231 95.134 442.105 95.42 441.854 95.654C441.611 95.8793 441.299 95.992 440.918 95.992ZM442.023 96.746V104H439.8V96.746H442.023ZM443.192 100.36C443.192 99.6147 443.331 98.9603 443.608 98.397C443.894 97.8337 444.28 97.4003 444.765 97.097C445.25 96.7937 445.792 96.642 446.39 96.642C446.867 96.642 447.3 96.7417 447.69 96.941C448.089 97.1403 448.401 97.409 448.626 97.747V94.38H450.849V104H448.626V102.96C448.418 103.307 448.119 103.584 447.729 103.792C447.348 104 446.901 104.104 446.39 104.104C445.792 104.104 445.25 103.952 444.765 103.649C444.28 103.337 443.894 102.899 443.608 102.336C443.331 101.764 443.192 101.105 443.192 100.36ZM448.626 100.373C448.626 99.8183 448.47 99.3807 448.158 99.06C447.855 98.7393 447.482 98.579 447.04 98.579C446.598 98.579 446.221 98.7393 445.909 99.06C445.606 99.372 445.454 99.8053 445.454 100.36C445.454 100.915 445.606 101.357 445.909 101.686C446.221 102.007 446.598 102.167 447.04 102.167C447.482 102.167 447.855 102.007 448.158 101.686C448.47 101.365 448.626 100.928 448.626 100.373ZM459.295 100.256C459.295 100.464 459.282 100.681 459.256 100.906H454.225C454.26 101.357 454.403 101.703 454.654 101.946C454.914 102.18 455.231 102.297 455.603 102.297C456.158 102.297 456.544 102.063 456.76 101.595H459.126C459.005 102.072 458.784 102.501 458.463 102.882C458.151 103.263 457.757 103.562 457.28 103.779C456.804 103.996 456.271 104.104 455.681 104.104C454.971 104.104 454.338 103.952 453.783 103.649C453.229 103.346 452.795 102.912 452.483 102.349C452.171 101.786 452.015 101.127 452.015 100.373C452.015 99.619 452.167 98.9603 452.47 98.397C452.782 97.8337 453.216 97.4003 453.77 97.097C454.325 96.7937 454.962 96.642 455.681 96.642C456.383 96.642 457.007 96.7893 457.553 97.084C458.099 97.3787 458.524 97.799 458.827 98.345C459.139 98.891 459.295 99.528 459.295 100.256ZM457.02 99.671C457.02 99.2897 456.89 98.9863 456.63 98.761C456.37 98.5357 456.045 98.423 455.655 98.423C455.283 98.423 454.966 98.5313 454.706 98.748C454.455 98.9647 454.299 99.2723 454.238 99.671H457.02Z" fill="#00A199"/>
<line x1="327" y1="118" x2="327" y2="109" stroke="#DCE9E2" stroke-width="2"/>
</g>
<path d="M290.9 439.576C291.788 439.576 292.564 439.752 293.228 440.104C293.892 440.456 294.404 440.952 294.764 441.592C295.132 442.224 295.316 442.956 295.316 443.788C295.316 444.612 295.132 445.344 294.764 445.984C294.404 446.624 293.888 447.12 293.216 447.472C292.552 447.824 291.78 448 290.9 448H287.744V439.576H290.9ZM290.768 446.224C291.544 446.224 292.148 446.012 292.58 445.588C293.012 445.164 293.228 444.564 293.228 443.788C293.228 443.012 293.012 442.408 292.58 441.976C292.148 441.544 291.544 441.328 290.768 441.328H289.796V446.224H290.768ZM298.671 441.304V448H296.619V441.304H298.671ZM299.043 439.636L296.151 440.848V439.432L299.043 438.04V439.636ZM299.91 444.64C299.91 443.952 300.038 443.348 300.294 442.828C300.558 442.308 300.914 441.908 301.362 441.628C301.81 441.348 302.31 441.208 302.862 441.208C303.334 441.208 303.746 441.304 304.098 441.496C304.458 441.688 304.734 441.94 304.926 442.252V441.304H306.978V448H304.926V447.052C304.726 447.364 304.446 447.616 304.086 447.808C303.734 448 303.322 448.096 302.85 448.096C302.306 448.096 301.81 447.956 301.362 447.676C300.914 447.388 300.558 446.984 300.294 446.464C300.038 445.936 299.91 445.328 299.91 444.64ZM304.926 444.652C304.926 444.14 304.782 443.736 304.494 443.44C304.214 443.144 303.87 442.996 303.462 442.996C303.054 442.996 302.706 443.144 302.418 443.44C302.138 443.728 301.998 444.128 301.998 444.64C301.998 445.152 302.138 445.56 302.418 445.864C302.706 446.16 303.054 446.308 303.462 446.308C303.87 446.308 304.214 446.16 304.494 445.864C304.782 445.568 304.926 445.164 304.926 444.652ZM311.187 448.096C310.603 448.096 310.083 447.996 309.627 447.796C309.171 447.596 308.811 447.324 308.547 446.98C308.283 446.628 308.135 446.236 308.103 445.804H310.131C310.155 446.036 310.263 446.224 310.455 446.368C310.647 446.512 310.883 446.584 311.163 446.584C311.419 446.584 311.615 446.536 311.751 446.44C311.895 446.336 311.967 446.204 311.967 446.044C311.967 445.852 311.867 445.712 311.667 445.624C311.467 445.528 311.143 445.424 310.695 445.312C310.215 445.2 309.815 445.084 309.495 444.964C309.175 444.836 308.899 444.64 308.667 444.376C308.435 444.104 308.319 443.74 308.319 443.284C308.319 442.9 308.423 442.552 308.631 442.24C308.847 441.92 309.159 441.668 309.567 441.484C309.983 441.3 310.475 441.208 311.043 441.208C311.883 441.208 312.543 441.416 313.023 441.832C313.511 442.248 313.791 442.8 313.863 443.488H311.967C311.935 443.256 311.831 443.072 311.655 442.936C311.487 442.8 311.263 442.732 310.983 442.732C310.743 442.732 310.559 442.78 310.431 442.876C310.303 442.964 310.239 443.088 310.239 443.248C310.239 443.44 310.339 443.584 310.539 443.68C310.747 443.776 311.067 443.872 311.499 443.968C311.995 444.096 312.399 444.224 312.711 444.352C313.023 444.472 313.295 444.672 313.527 444.952C313.767 445.224 313.891 445.592 313.899 446.056C313.899 446.448 313.787 446.8 313.563 447.112C313.347 447.416 313.031 447.656 312.615 447.832C312.207 448.008 311.731 448.096 311.187 448.096ZM317.289 444.652C317.289 443.956 317.429 443.348 317.709 442.828C317.997 442.308 318.393 441.908 318.897 441.628C319.409 441.348 319.993 441.208 320.649 441.208C321.489 441.208 322.189 441.428 322.749 441.868C323.317 442.308 323.689 442.928 323.865 443.728H321.681C321.497 443.216 321.141 442.96 320.613 442.96C320.237 442.96 319.937 443.108 319.713 443.404C319.489 443.692 319.377 444.108 319.377 444.652C319.377 445.196 319.489 445.616 319.713 445.912C319.937 446.2 320.237 446.344 320.613 446.344C321.141 446.344 321.497 446.088 321.681 445.576H323.865C323.689 446.36 323.317 446.976 322.749 447.424C322.181 447.872 321.481 448.096 320.649 448.096C319.993 448.096 319.409 447.956 318.897 447.676C318.393 447.396 317.997 446.996 317.709 446.476C317.429 445.956 317.289 445.348 317.289 444.652ZM328.011 448.096C327.355 448.096 326.763 447.956 326.235 447.676C325.715 447.396 325.303 446.996 324.999 446.476C324.703 445.956 324.555 445.348 324.555 444.652C324.555 443.964 324.707 443.36 325.011 442.84C325.315 442.312 325.731 441.908 326.259 441.628C326.787 441.348 327.379 441.208 328.035 441.208C328.691 441.208 329.283 441.348 329.811 441.628C330.339 441.908 330.755 442.312 331.059 442.84C331.363 443.36 331.515 443.964 331.515 444.652C331.515 445.34 331.359 445.948 331.047 446.476C330.743 446.996 330.323 447.396 329.787 447.676C329.259 447.956 328.667 448.096 328.011 448.096ZM328.011 446.32C328.403 446.32 328.735 446.176 329.007 445.888C329.287 445.6 329.427 445.188 329.427 444.652C329.427 444.116 329.291 443.704 329.019 443.416C328.755 443.128 328.427 442.984 328.035 442.984C327.635 442.984 327.303 443.128 327.039 443.416C326.775 443.696 326.643 444.108 326.643 444.652C326.643 445.188 326.771 445.6 327.027 445.888C327.291 446.176 327.619 446.32 328.011 446.32ZM334.655 442.42C334.895 442.052 335.195 441.764 335.555 441.556C335.915 441.34 336.315 441.232 336.755 441.232V443.404H336.191C335.679 443.404 335.295 443.516 335.039 443.74C334.783 443.956 334.655 444.34 334.655 444.892V448H332.603V441.304H334.655V442.42ZM339.788 442.42C340.028 442.052 340.328 441.764 340.688 441.556C341.048 441.34 341.448 441.232 341.888 441.232V443.404H341.324C340.812 443.404 340.428 443.516 340.172 443.74C339.916 443.956 339.788 444.34 339.788 444.892V448H337.736V441.304H339.788V442.42ZM343.901 440.608C343.541 440.608 343.245 440.504 343.013 440.296C342.789 440.08 342.677 439.816 342.677 439.504C342.677 439.184 342.789 438.92 343.013 438.712C343.245 438.496 343.541 438.388 343.901 438.388C344.253 438.388 344.541 438.496 344.765 438.712C344.997 438.92 345.113 439.184 345.113 439.504C345.113 439.816 344.997 440.08 344.765 440.296C344.541 440.504 344.253 440.608 343.901 440.608ZM344.921 441.304V448H342.869V441.304H344.921ZM346 444.64C346 443.952 346.128 443.348 346.384 442.828C346.648 442.308 347.004 441.908 347.452 441.628C347.9 441.348 348.4 441.208 348.952 441.208C349.392 441.208 349.792 441.3 350.152 441.484C350.52 441.668 350.808 441.916 351.016 442.228V439.12H353.068V448H351.016V447.04C350.824 447.36 350.548 447.616 350.188 447.808C349.836 448 349.424 448.096 348.952 448.096C348.4 448.096 347.9 447.956 347.452 447.676C347.004 447.388 346.648 446.984 346.384 446.464C346.128 445.936 346 445.328 346 444.64ZM351.016 444.652C351.016 444.14 350.872 443.736 350.584 443.44C350.304 443.144 349.96 442.996 349.552 442.996C349.144 442.996 348.796 443.144 348.508 443.44C348.228 443.728 348.088 444.128 348.088 444.64C348.088 445.152 348.228 445.56 348.508 445.864C348.796 446.16 349.144 446.308 349.552 446.308C349.96 446.308 350.304 446.16 350.584 445.864C350.872 445.568 351.016 445.164 351.016 444.652ZM357.601 448.096C356.945 448.096 356.353 447.956 355.825 447.676C355.305 447.396 354.893 446.996 354.589 446.476C354.293 445.956 354.145 445.348 354.145 444.652C354.145 443.964 354.297 443.36 354.601 442.84C354.905 442.312 355.321 441.908 355.849 441.628C356.377 441.348 356.969 441.208 357.625 441.208C358.281 441.208 358.873 441.348 359.401 441.628C359.929 441.908 360.345 442.312 360.649 442.84C360.953 443.36 361.105 443.964 361.105 444.652C361.105 445.34 360.949 445.948 360.637 446.476C360.333 446.996 359.913 447.396 359.377 447.676C358.849 447.956 358.257 448.096 357.601 448.096ZM357.601 446.32C357.993 446.32 358.325 446.176 358.597 445.888C358.877 445.6 359.017 445.188 359.017 444.652C359.017 444.116 358.881 443.704 358.609 443.416C358.345 443.128 358.017 442.984 357.625 442.984C357.225 442.984 356.893 443.128 356.629 443.416C356.365 443.696 356.233 444.108 356.233 444.652C356.233 445.188 356.361 445.6 356.617 445.888C356.881 446.176 357.209 446.32 357.601 446.32ZM364.917 448.096C364.333 448.096 363.813 447.996 363.357 447.796C362.901 447.596 362.541 447.324 362.277 446.98C362.013 446.628 361.865 446.236 361.833 445.804H363.861C363.885 446.036 363.993 446.224 364.185 446.368C364.377 446.512 364.613 446.584 364.893 446.584C365.149 446.584 365.345 446.536 365.481 446.44C365.625 446.336 365.697 446.204 365.697 446.044C365.697 445.852 365.597 445.712 365.397 445.624C365.197 445.528 364.873 445.424 364.425 445.312C363.945 445.2 363.545 445.084 363.225 444.964C362.905 444.836 362.629 444.64 362.397 444.376C362.165 444.104 362.049 443.74 362.049 443.284C362.049 442.9 362.153 442.552 362.361 442.24C362.577 441.92 362.889 441.668 363.297 441.484C363.713 441.3 364.205 441.208 364.773 441.208C365.613 441.208 366.273 441.416 366.753 441.832C367.241 442.248 367.521 442.8 367.593 443.488H365.697C365.665 443.256 365.561 443.072 365.385 442.936C365.217 442.8 364.993 442.732 364.713 442.732C364.473 442.732 364.289 442.78 364.161 442.876C364.033 442.964 363.969 443.088 363.969 443.248C363.969 443.44 364.069 443.584 364.269 443.68C364.477 443.776 364.797 443.872 365.229 443.968C365.725 444.096 366.129 444.224 366.441 444.352C366.753 444.472 367.025 444.672 367.257 444.952C367.497 445.224 367.621 445.592 367.629 446.056C367.629 446.448 367.517 446.8 367.293 447.112C367.077 447.416 366.761 447.656 366.345 447.832C365.937 448.008 365.461 448.096 364.917 448.096Z" fill="#00A199"/>
<line x1="145" y1="372.291" x2="136" y2="372.291" stroke="black" stroke-width="2"/>
<line x1="145" y1="306.451" x2="136" y2="306.451" stroke="black" stroke-width="2"/>
<line y1="-1" x2="360.015" y2="-1" transform="matrix(0.999958 0.00914395 -0.00759404 0.999971 148 305.451)" stroke="#495057" stroke-opacity="0.24" stroke-width="2" stroke-dasharray="4 4"/>
<line y1="-1" x2="120.709" y2="-1" transform="matrix(0.00828436 0.999966 -0.99995 0.00997514 193 192.427)" stroke="#DCE9E2" stroke-width="2" stroke-dasharray="2 2"/>
<line x1="301" y1="195.719" x2="301" y2="308.743" stroke="#DCE9E2" stroke-width="2" stroke-dasharray="2 2"/>
<line x1="456" y1="309.841" x2="456" y2="200.109" stroke="#DCE9E2" stroke-width="2" stroke-dasharray="2 2"/>
<g filter="url(#filter1_d_2498_10)">
<path d="M145.707 175.26C145.317 174.87 144.683 174.87 144.293 175.26L137.929 181.624C137.538 182.015 137.538 182.648 137.929 183.039C138.319 183.429 138.953 183.429 139.343 183.039L145 177.382L150.657 183.039C151.047 183.429 151.681 183.429 152.071 183.039C152.462 182.648 152.462 182.015 152.071 181.624L145.707 175.26ZM144 175.968L144 415.183L146 415.183L146 175.968L144 175.968Z" fill="black"/>
</g>
<path d="M528.207 415.89C528.598 415.5 528.598 414.867 528.207 414.476L521.843 408.112C521.453 407.722 520.819 407.722 520.429 408.112C520.038 408.503 520.038 409.136 520.429 409.526L526.086 415.183L520.429 420.84C520.038 421.231 520.038 421.864 520.429 422.254C520.819 422.645 521.453 422.645 521.843 422.254L528.207 415.89ZM144 416.183H527.5V414.183H144V416.183Z" fill="black"/>
<line x1="145" y1="197.817" x2="136" y2="197.817" stroke="black" stroke-width="2"/>
<line x1="145" y1="240.612" x2="136" y2="240.612" stroke="black" stroke-width="2"/>
<path d="M101.324 191.992V190.084H104.648V198.844H102.512V191.992H101.324ZM106.052 194.344C106.052 192.968 106.316 191.884 106.844 191.092C107.38 190.3 108.24 189.904 109.424 189.904C110.608 189.904 111.464 190.3 111.992 191.092C112.528 191.884 112.796 192.968 112.796 194.344C112.796 195.736 112.528 196.828 111.992 197.62C111.464 198.412 110.608 198.808 109.424 198.808C108.24 198.808 107.38 198.412 106.844 197.62C106.316 196.828 106.052 195.736 106.052 194.344ZM110.78 194.344C110.78 193.536 110.692 192.916 110.516 192.484C110.34 192.044 109.976 191.824 109.424 191.824C108.872 191.824 108.508 192.044 108.332 192.484C108.156 192.916 108.068 193.536 108.068 194.344C108.068 194.888 108.1 195.34 108.164 195.7C108.228 196.052 108.356 196.34 108.548 196.564C108.748 196.78 109.04 196.888 109.424 196.888C109.808 196.888 110.096 196.78 110.288 196.564C110.488 196.34 110.62 196.052 110.684 195.7C110.748 195.34 110.78 194.888 110.78 194.344ZM113.88 194.344C113.88 192.968 114.144 191.884 114.672 191.092C115.208 190.3 116.068 189.904 117.252 189.904C118.436 189.904 119.292 190.3 119.82 191.092C120.356 191.884 120.624 192.968 120.624 194.344C120.624 195.736 120.356 196.828 119.82 197.62C119.292 198.412 118.436 198.808 117.252 198.808C116.068 198.808 115.208 198.412 114.672 197.62C114.144 196.828 113.88 195.736 113.88 194.344ZM118.608 194.344C118.608 193.536 118.52 192.916 118.344 192.484C118.168 192.044 117.804 191.824 117.252 191.824C116.7 191.824 116.336 192.044 116.16 192.484C115.984 192.916 115.896 193.536 115.896 194.344C115.896 194.888 115.928 195.34 115.992 195.7C116.056 196.052 116.184 196.34 116.376 196.564C116.576 196.78 116.868 196.888 117.252 196.888C117.636 196.888 117.924 196.78 118.116 196.564C118.316 196.34 118.448 196.052 118.512 195.7C118.576 195.34 118.608 194.888 118.608 194.344ZM121.54 192.292C121.54 191.644 121.724 191.144 122.092 190.792C122.468 190.44 122.952 190.264 123.544 190.264C124.136 190.264 124.616 190.44 124.984 190.792C125.352 191.144 125.536 191.644 125.536 192.292C125.536 192.94 125.352 193.44 124.984 193.792C124.616 194.144 124.136 194.32 123.544 194.32C122.952 194.32 122.468 194.144 122.092 193.792C121.724 193.44 121.54 192.94 121.54 192.292ZM129.688 190.396L125.068 198.844H123.088L127.708 190.396H129.688ZM123.532 191.464C123.148 191.464 122.956 191.74 122.956 192.292C122.956 192.836 123.148 193.108 123.532 193.108C123.716 193.108 123.86 193.04 123.964 192.904C124.068 192.768 124.12 192.564 124.12 192.292C124.12 191.74 123.924 191.464 123.532 191.464ZM127.252 196.948C127.252 196.3 127.436 195.8 127.804 195.448C128.172 195.096 128.652 194.92 129.244 194.92C129.836 194.92 130.316 195.096 130.684 195.448C131.052 195.8 131.236 196.3 131.236 196.948C131.236 197.596 131.052 198.096 130.684 198.448C130.316 198.8 129.836 198.976 129.244 198.976C128.652 198.976 128.172 198.8 127.804 198.448C127.436 198.096 127.252 197.596 127.252 196.948ZM129.232 196.12C129.048 196.12 128.904 196.188 128.8 196.324C128.704 196.46 128.656 196.668 128.656 196.948C128.656 197.492 128.848 197.764 129.232 197.764C129.416 197.764 129.56 197.696 129.664 197.56C129.768 197.424 129.82 197.22 129.82 196.948C129.82 196.676 129.768 196.472 129.664 196.336C129.56 196.192 129.416 196.12 129.232 196.12Z" fill="#00A199"/>
<path d="M31.1728 264.683L29.4208 261.503H28.9288V264.683H26.8768V256.259H30.3208C30.9848 256.259 31.5488 256.375 32.0128 256.607C32.4848 256.839 32.8368 257.159 33.0688 257.567C33.3008 257.967 33.4168 258.415 33.4168 258.911C33.4168 259.471 33.2568 259.971 32.9368 260.411C32.6248 260.851 32.1608 261.163 31.5448 261.347L33.4888 264.683H31.1728ZM28.9288 260.051H30.2008C30.5768 260.051 30.8568 259.959 31.0408 259.775C31.2328 259.591 31.3288 259.331 31.3288 258.995C31.3288 258.675 31.2328 258.423 31.0408 258.239C30.8568 258.055 30.5768 257.963 30.2008 257.963H28.9288V260.051ZM41.0169 261.227C41.0169 261.419 41.0049 261.619 40.9809 261.827H36.3369C36.3689 262.243 36.5009 262.563 36.7329 262.787C36.9729 263.003 37.2649 263.111 37.6089 263.111C38.1209 263.111 38.4769 262.895 38.6769 262.463H40.8609C40.7489 262.903 40.5449 263.299 40.2489 263.651C39.9609 264.003 39.5969 264.279 39.1569 264.479C38.7169 264.679 38.2249 264.779 37.6809 264.779C37.0249 264.779 36.4409 264.639 35.9289 264.359C35.4169 264.079 35.0169 263.679 34.7289 263.159C34.4409 262.639 34.2969 262.031 34.2969 261.335C34.2969 260.639 34.4369 260.031 34.7169 259.511C35.0049 258.991 35.4049 258.591 35.9169 258.311C36.4289 258.031 37.0169 257.891 37.6809 257.891C38.3289 257.891 38.9049 258.027 39.4089 258.299C39.9129 258.571 40.3049 258.959 40.5849 259.463C40.8729 259.967 41.0169 260.555 41.0169 261.227ZM38.9169 260.687C38.9169 260.335 38.7969 260.055 38.5569 259.847C38.3169 259.639 38.0169 259.535 37.6569 259.535C37.3129 259.535 37.0209 259.635 36.7809 259.835C36.5489 260.035 36.4049 260.319 36.3489 260.687H38.9169ZM45.8315 262.943V264.683H44.7875C44.0435 264.683 43.4635 264.503 43.0475 264.143C42.6315 263.775 42.4235 263.179 42.4235 262.355V259.691H41.6075V257.987H42.4235V256.355H44.4755V257.987H45.8195V259.691H44.4755V262.379C44.4755 262.579 44.5235 262.723 44.6195 262.811C44.7155 262.899 44.8755 262.943 45.0995 262.943H45.8315ZM53.2865 261.227C53.2865 261.419 53.2745 261.619 53.2505 261.827H48.6065C48.6385 262.243 48.7705 262.563 49.0025 262.787C49.2425 263.003 49.5345 263.111 49.8785 263.111C50.3905 263.111 50.7465 262.895 50.9465 262.463H53.1305C53.0185 262.903 52.8145 263.299 52.5185 263.651C52.2305 264.003 51.8665 264.279 51.4265 264.479C50.9865 264.679 50.4945 264.779 49.9505 264.779C49.2945 264.779 48.7105 264.639 48.1985 264.359C47.6865 264.079 47.2865 263.679 46.9985 263.159C46.7105 262.639 46.5665 262.031 46.5665 261.335C46.5665 260.639 46.7065 260.031 46.9865 259.511C47.2745 258.991 47.6745 258.591 48.1865 258.311C48.6985 258.031 49.2865 257.891 49.9505 257.891C50.5985 257.891 51.1745 258.027 51.6785 258.299C52.1825 258.571 52.5745 258.959 52.8545 259.463C53.1425 259.967 53.2865 260.555 53.2865 261.227ZM51.1865 260.687C51.1865 260.335 51.0665 260.055 50.8265 259.847C50.5865 259.639 50.2865 259.535 49.9265 259.535C49.5825 259.535 49.2905 259.635 49.0505 259.835C48.8185 260.035 48.6745 260.319 48.6185 260.687H51.1865ZM58.449 257.915C59.233 257.915 59.857 258.171 60.321 258.683C60.793 259.187 61.029 259.883 61.029 260.771V264.683H58.989V261.047C58.989 260.599 58.873 260.251 58.641 260.003C58.409 259.755 58.097 259.631 57.705 259.631C57.313 259.631 57.001 259.755 56.769 260.003C56.537 260.251 56.421 260.599 56.421 261.047V264.683H54.369V257.987H56.421V258.875C56.629 258.579 56.909 258.347 57.261 258.179C57.613 258.003 58.009 257.915 58.449 257.915ZM62.0469 261.335C62.0469 260.639 62.1869 260.031 62.4669 259.511C62.7549 258.991 63.1509 258.591 63.6549 258.311C64.1669 258.031 64.7509 257.891 65.4069 257.891C66.2469 257.891 66.9469 258.111 67.5069 258.551C68.0749 258.991 68.4469 259.611 68.6229 260.411H66.4389C66.2549 259.899 65.8989 259.643 65.3709 259.643C64.9949 259.643 64.6949 259.791 64.4709 260.087C64.2469 260.375 64.1349 260.791 64.1349 261.335C64.1349 261.879 64.2469 262.299 64.4709 262.595C64.6949 262.883 64.9949 263.027 65.3709 263.027C65.8989 263.027 66.2549 262.771 66.4389 262.259H68.6229C68.4469 263.043 68.0749 263.659 67.5069 264.107C66.9389 264.555 66.2389 264.779 65.4069 264.779C64.7509 264.779 64.1669 264.639 63.6549 264.359C63.1509 264.079 62.7549 263.679 62.4669 263.159C62.1869 262.639 62.0469 262.031 62.0469 261.335ZM70.7526 257.291C70.3926 257.291 70.0966 257.187 69.8646 256.979C69.6406 256.763 69.5286 256.499 69.5286 256.187C69.5286 255.867 69.6406 255.603 69.8646 255.395C70.0966 255.179 70.3926 255.071 70.7526 255.071C71.1046 255.071 71.3926 255.179 71.6166 255.395C71.8486 255.603 71.9646 255.867 71.9646 256.187C71.9646 256.499 71.8486 256.763 71.6166 256.979C71.3926 257.187 71.1046 257.291 70.7526 257.291ZM71.7726 257.987V264.683H69.7206V257.987H71.7726ZM76.3076 264.779C75.6516 264.779 75.0596 264.639 74.5316 264.359C74.0116 264.079 73.5996 263.679 73.2956 263.159C72.9996 262.639 72.8516 262.031 72.8516 261.335C72.8516 260.647 73.0036 260.043 73.3076 259.523C73.6116 258.995 74.0276 258.591 74.5556 258.311C75.0836 258.031 75.6756 257.891 76.3316 257.891C76.9876 257.891 77.5796 258.031 78.1076 258.311C78.6356 258.591 79.0516 258.995 79.3556 259.523C79.6596 260.043 79.8116 260.647 79.8116 261.335C79.8116 262.023 79.6556 262.631 79.3436 263.159C79.0396 263.679 78.6196 264.079 78.0836 264.359C77.5556 264.639 76.9636 264.779 76.3076 264.779ZM76.3076 263.003C76.6996 263.003 77.0316 262.859 77.3036 262.571C77.5836 262.283 77.7236 261.871 77.7236 261.335C77.7236 260.799 77.5876 260.387 77.3156 260.099C77.0516 259.811 76.7236 259.667 76.3316 259.667C75.9316 259.667 75.5996 259.811 75.3356 260.099C75.0716 260.379 74.9396 260.791 74.9396 261.335C74.9396 261.871 75.0676 262.283 75.3236 262.571C75.5876 262.859 75.9156 263.003 76.3076 263.003ZM77.8916 256.271L74.9996 257.483V256.067L77.8916 254.675V256.271ZM84.9803 257.915C85.7643 257.915 86.3883 258.171 86.8523 258.683C87.3243 259.187 87.5603 259.883 87.5603 260.771V264.683H85.5203V261.047C85.5203 260.599 85.4043 260.251 85.1723 260.003C84.9403 259.755 84.6283 259.631 84.2363 259.631C83.8443 259.631 83.5323 259.755 83.3003 260.003C83.0683 260.251 82.9523 260.599 82.9523 261.047V264.683H80.9003V257.987H82.9523V258.875C83.1603 258.579 83.4403 258.347 83.7923 258.179C84.1443 258.003 84.5403 257.915 84.9803 257.915ZM91.1212 261.323C91.1212 260.635 91.2492 260.031 91.5052 259.511C91.7692 258.991 92.1252 258.591 92.5732 258.311C93.0212 258.031 93.5212 257.891 94.0732 257.891C94.5132 257.891 94.9132 257.983 95.2732 258.167C95.6412 258.351 95.9292 258.599 96.1372 258.911V255.803H98.1892V264.683H96.1372V263.723C95.9452 264.043 95.6692 264.299 95.3092 264.491C94.9572 264.683 94.5452 264.779 94.0732 264.779C93.5212 264.779 93.0212 264.639 92.5732 264.359C92.1252 264.071 91.7692 263.667 91.5052 263.147C91.2492 262.619 91.1212 262.011 91.1212 261.323ZM96.1372 261.335C96.1372 260.823 95.9932 260.419 95.7052 260.123C95.4252 259.827 95.0812 259.679 94.6732 259.679C94.2652 259.679 93.9172 259.827 93.6292 260.123C93.3492 260.411 93.2092 260.811 93.2092 261.323C93.2092 261.835 93.3492 262.243 93.6292 262.547C93.9172 262.843 94.2652 262.991 94.6732 262.991C95.0812 262.991 95.4252 262.843 95.7052 262.547C95.9932 262.251 96.1372 261.847 96.1372 261.335ZM105.986 261.227C105.986 261.419 105.974 261.619 105.95 261.827H101.306C101.338 262.243 101.47 262.563 101.702 262.787C101.942 263.003 102.234 263.111 102.578 263.111C103.09 263.111 103.446 262.895 103.646 262.463H105.83C105.718 262.903 105.514 263.299 105.218 263.651C104.93 264.003 104.566 264.279 104.126 264.479C103.686 264.679 103.194 264.779 102.65 264.779C101.994 264.779 101.41 264.639 100.898 264.359C100.386 264.079 99.9857 263.679 99.6977 263.159C99.4097 262.639 99.2657 262.031 99.2657 261.335C99.2657 260.639 99.4057 260.031 99.6857 259.511C99.9737 258.991 100.374 258.591 100.886 258.311C101.398 258.031 101.986 257.891 102.65 257.891C103.298 257.891 103.874 258.027 104.378 258.299C104.882 258.571 105.274 258.959 105.554 259.463C105.842 259.967 105.986 260.555 105.986 261.227ZM103.886 260.687C103.886 260.335 103.766 260.055 103.526 259.847C103.286 259.639 102.986 259.535 102.626 259.535C102.282 259.535 101.99 259.635 101.75 259.835C101.518 260.035 101.374 260.319 101.318 260.687H103.886ZM48.1591 275.915C48.9911 275.915 49.6511 276.167 50.1391 276.671C50.6351 277.175 50.8831 277.875 50.8831 278.771V282.683H48.8431V279.047C48.8431 278.615 48.7271 278.283 48.4951 278.051C48.2711 277.811 47.9591 277.691 47.5591 277.691C47.1591 277.691 46.8431 277.811 46.6111 278.051C46.3871 278.283 46.2751 278.615 46.2751 279.047V282.683H44.2351V279.047C44.2351 278.615 44.1191 278.283 43.8871 278.051C43.6631 277.811 43.3511 277.691 42.9511 277.691C42.5511 277.691 42.2351 277.811 42.0031 278.051C41.7791 278.283 41.6671 278.615 41.6671 279.047V282.683H39.6151V275.987H41.6671V276.827C41.8751 276.547 42.1471 276.327 42.4831 276.167C42.8191 275.999 43.1991 275.915 43.6231 275.915C44.1271 275.915 44.5751 276.023 44.9671 276.239C45.3671 276.455 45.6791 276.763 45.9031 277.163C46.1351 276.795 46.4511 276.495 46.8511 276.263C47.2511 276.031 47.6871 275.915 48.1591 275.915ZM58.6302 279.227C58.6302 279.419 58.6182 279.619 58.5942 279.827H53.9502C53.9822 280.243 54.1142 280.563 54.3462 280.787C54.5862 281.003 54.8782 281.111 55.2222 281.111C55.7342 281.111 56.0902 280.895 56.2902 280.463H58.4742C58.3622 280.903 58.1582 281.299 57.8622 281.651C57.5742 282.003 57.2102 282.279 56.7702 282.479C56.3302 282.679 55.8382 282.779 55.2942 282.779C54.6382 282.779 54.0542 282.639 53.5422 282.359C53.0302 282.079 52.6302 281.679 52.3422 281.159C52.0542 280.639 51.9102 280.031 51.9102 279.335C51.9102 278.639 52.0502 278.031 52.3302 277.511C52.6182 276.991 53.0182 276.591 53.5302 276.311C54.0422 276.031 54.6302 275.891 55.2942 275.891C55.9422 275.891 56.5182 276.027 57.0222 276.299C57.5262 276.571 57.9182 276.959 58.1982 277.463C58.4862 277.967 58.6302 278.555 58.6302 279.227ZM56.5302 278.687C56.5302 278.335 56.4102 278.055 56.1702 277.847C55.9302 277.639 55.6302 277.535 55.2702 277.535C54.9262 277.535 54.6342 277.635 54.3942 277.835C54.1622 278.035 54.0182 278.319 53.9622 278.687H56.5302ZM68.2568 275.915C69.0888 275.915 69.7488 276.167 70.2368 276.671C70.7328 277.175 70.9808 277.875 70.9808 278.771V282.683H68.9408V279.047C68.9408 278.615 68.8248 278.283 68.5928 278.051C68.3688 277.811 68.0568 277.691 67.6568 277.691C67.2568 277.691 66.9408 277.811 66.7088 278.051C66.4848 278.283 66.3728 278.615 66.3728 279.047V282.683H64.3328V279.047C64.3328 278.615 64.2168 278.283 63.9848 278.051C63.7608 277.811 63.4488 277.691 63.0488 277.691C62.6488 277.691 62.3328 277.811 62.1008 278.051C61.8768 278.283 61.7648 278.615 61.7648 279.047V282.683H59.7128V275.987H61.7648V276.827C61.9728 276.547 62.2448 276.327 62.5808 276.167C62.9168 275.999 63.2968 275.915 63.7208 275.915C64.2248 275.915 64.6728 276.023 65.0648 276.239C65.4648 276.455 65.7768 276.763 66.0008 277.163C66.2328 276.795 66.5488 276.495 66.9488 276.263C67.3488 276.031 67.7848 275.915 68.2568 275.915ZM75.4639 282.779C74.8079 282.779 74.2159 282.639 73.6879 282.359C73.1679 282.079 72.7559 281.679 72.4519 281.159C72.1559 280.639 72.0079 280.031 72.0079 279.335C72.0079 278.647 72.1599 278.043 72.4639 277.523C72.7679 276.995 73.1839 276.591 73.7119 276.311C74.2399 276.031 74.8319 275.891 75.4879 275.891C76.1439 275.891 76.7359 276.031 77.2639 276.311C77.7919 276.591 78.2079 276.995 78.5119 277.523C78.8159 278.043 78.9679 278.647 78.9679 279.335C78.9679 280.023 78.8119 280.631 78.4999 281.159C78.1959 281.679 77.7759 282.079 77.2399 282.359C76.7119 282.639 76.1199 282.779 75.4639 282.779ZM75.4639 281.003C75.8559 281.003 76.1879 280.859 76.4599 280.571C76.7399 280.283 76.8799 279.871 76.8799 279.335C76.8799 278.799 76.7439 278.387 76.4719 278.099C76.2079 277.811 75.8799 277.667 75.4879 277.667C75.0879 277.667 74.7559 277.811 74.4919 278.099C74.2279 278.379 74.0959 278.791 74.0959 279.335C74.0959 279.871 74.2239 280.283 74.4799 280.571C74.7439 280.859 75.0719 281.003 75.4639 281.003ZM82.1085 277.103C82.3485 276.735 82.6485 276.447 83.0085 276.239C83.3685 276.023 83.7685 275.915 84.2085 275.915V278.087H83.6445C83.1325 278.087 82.7485 278.199 82.4925 278.423C82.2365 278.639 82.1085 279.023 82.1085 279.575V282.683H80.0565V275.987H82.1085V277.103ZM86.2213 275.291C85.8613 275.291 85.5653 275.187 85.3333 274.979C85.1093 274.763 84.9973 274.499 84.9973 274.187C84.9973 273.867 85.1093 273.603 85.3333 273.395C85.5653 273.179 85.8613 273.071 86.2213 273.071C86.5733 273.071 86.8613 273.179 87.0853 273.395C87.3173 273.603 87.4333 273.867 87.4333 274.187C87.4333 274.499 87.3173 274.763 87.0853 274.979C86.8613 275.187 86.5733 275.291 86.2213 275.291ZM87.2413 275.987V282.683H85.1893V275.987H87.2413ZM88.3204 279.323C88.3204 278.635 88.4484 278.031 88.7044 277.511C88.9684 276.991 89.3244 276.591 89.7724 276.311C90.2204 276.031 90.7204 275.891 91.2724 275.891C91.7444 275.891 92.1564 275.987 92.5084 276.179C92.8684 276.371 93.1444 276.623 93.3364 276.935V275.987H95.3884V282.683H93.3364V281.735C93.1364 282.047 92.8564 282.299 92.4964 282.491C92.1444 282.683 91.7324 282.779 91.2604 282.779C90.7164 282.779 90.2204 282.639 89.7724 282.359C89.3244 282.071 88.9684 281.667 88.7044 281.147C88.4484 280.619 88.3204 280.011 88.3204 279.323ZM93.3364 279.335C93.3364 278.823 93.1924 278.419 92.9044 278.123C92.6244 277.827 92.2804 277.679 91.8724 277.679C91.4644 277.679 91.1164 277.827 90.8284 278.123C90.5484 278.411 90.4084 278.811 90.4084 279.323C90.4084 279.835 90.5484 280.243 90.8284 280.547C91.1164 280.843 91.4644 280.991 91.8724 280.991C92.2804 280.991 92.6244 280.843 92.9044 280.547C93.1924 280.251 93.3364 279.847 93.3364 279.335Z" fill="#00A199"/>
<line x1="189" y1="415.183" x2="189" y2="423.962" stroke="black" stroke-width="2"/>
<line x1="229" y1="415.183" x2="229" y2="423.962" stroke="black" stroke-width="2"/>
<line x1="269" y1="415.183" x2="269" y2="423.962" stroke="black" stroke-width="2"/>
<line x1="309" y1="415.183" x2="309" y2="423.962" stroke="black" stroke-width="2"/>
<line x1="349" y1="415.183" x2="349" y2="423.962" stroke="black" stroke-width="2"/>
<line x1="389" y1="415.183" x2="389" y2="423.962" stroke="black" stroke-width="2"/>
<line x1="429" y1="415.183" x2="429" y2="423.962" stroke="black" stroke-width="2"/>
<path d="M108.171 301.603H104.427V303.259C104.587 303.083 104.811 302.939 105.099 302.827C105.387 302.715 105.699 302.659 106.035 302.659C106.635 302.659 107.131 302.795 107.523 303.067C107.923 303.339 108.215 303.691 108.399 304.123C108.583 304.555 108.675 305.023 108.675 305.527C108.675 306.463 108.411 307.207 107.883 307.759C107.355 308.303 106.611 308.575 105.651 308.575C105.011 308.575 104.455 308.467 103.983 308.251C103.511 308.027 103.147 307.719 102.891 307.327C102.635 306.935 102.495 306.483 102.471 305.971H104.475C104.523 306.219 104.639 306.427 104.823 306.595C105.007 306.755 105.259 306.835 105.579 306.835C105.955 306.835 106.235 306.715 106.419 306.475C106.603 306.235 106.695 305.915 106.695 305.515C106.695 305.123 106.599 304.823 106.407 304.615C106.215 304.407 105.935 304.303 105.567 304.303C105.295 304.303 105.071 304.371 104.895 304.507C104.719 304.635 104.603 304.807 104.547 305.023H102.567V299.803H108.171V301.603ZM109.808 304.075C109.808 302.699 110.072 301.615 110.6 300.823C111.136 300.031 111.996 299.635 113.18 299.635C114.364 299.635 115.22 300.031 115.748 300.823C116.284 301.615 116.552 302.699 116.552 304.075C116.552 305.467 116.284 306.559 115.748 307.351C115.22 308.143 114.364 308.539 113.18 308.539C111.996 308.539 111.136 308.143 110.6 307.351C110.072 306.559 109.808 305.467 109.808 304.075ZM114.536 304.075C114.536 303.267 114.448 302.647 114.272 302.215C114.096 301.775 113.732 301.555 113.18 301.555C112.628 301.555 112.264 301.775 112.088 302.215C111.912 302.647 111.824 303.267 111.824 304.075C111.824 304.619 111.856 305.071 111.92 305.431C111.984 305.783 112.112 306.071 112.304 306.295C112.504 306.511 112.796 306.619 113.18 306.619C113.564 306.619 113.852 306.511 114.044 306.295C114.244 306.071 114.376 305.783 114.44 305.431C114.504 305.071 114.536 304.619 114.536 304.075ZM117.468 302.023C117.468 301.375 117.652 300.875 118.02 300.523C118.396 300.171 118.88 299.995 119.472 299.995C120.064 299.995 120.544 300.171 120.912 300.523C121.28 300.875 121.464 301.375 121.464 302.023C121.464 302.671 121.28 303.171 120.912 303.523C120.544 303.875 120.064 304.051 119.472 304.051C118.88 304.051 118.396 303.875 118.02 303.523C117.652 303.171 117.468 302.671 117.468 302.023ZM125.616 300.127L120.996 308.575H119.016L123.636 300.127H125.616ZM119.46 301.195C119.076 301.195 118.884 301.471 118.884 302.023C118.884 302.567 119.076 302.839 119.46 302.839C119.644 302.839 119.788 302.771 119.892 302.635C119.996 302.499 120.048 302.295 120.048 302.023C120.048 301.471 119.852 301.195 119.46 301.195ZM123.18 306.679C123.18 306.031 123.364 305.531 123.732 305.179C124.1 304.827 124.58 304.651 125.172 304.651C125.764 304.651 126.244 304.827 126.612 305.179C126.98 305.531 127.164 306.031 127.164 306.679C127.164 307.327 126.98 307.827 126.612 308.179C126.244 308.531 125.764 308.707 125.172 308.707C124.58 308.707 124.1 308.531 123.732 308.179C123.364 307.827 123.18 307.327 123.18 306.679ZM125.16 305.851C124.976 305.851 124.832 305.919 124.728 306.055C124.632 306.191 124.584 306.399 124.584 306.679C124.584 307.223 124.776 307.495 125.16 307.495C125.344 307.495 125.488 307.427 125.592 307.291C125.696 307.155 125.748 306.951 125.748 306.679C125.748 306.407 125.696 306.203 125.592 306.067C125.488 305.923 125.344 305.851 125.16 305.851Z" fill="#00A199"/>
<path d="M144.826 200.109C159.122 249.182 170.315 272.885 193.5 313.681" stroke="#00A199" stroke-width="3" stroke-linecap="round"/>
<path d="M193.342 313.366C227.899 363.016 240.771 381.732 288.5 415.732" stroke="black" stroke-opacity="0.38" stroke-width="3" stroke-linecap="round"/>
<path d="M197.204 194.324C196.78 193.595 195.896 193.383 195.231 193.851C194.566 194.319 194.371 195.289 194.796 196.018L197.204 194.324ZM194.796 196.018C211.688 225.01 225.688 245.181 241.482 262.561C257.273 279.938 274.814 294.476 298.736 312.237L300.342 309.639C276.474 291.917 259.108 277.511 243.508 260.344C227.911 243.181 214.036 223.21 197.204 194.324L194.796 196.018Z" fill="#00A199"/>
<path d="M299.396 310.826C372.503 362.694 412.047 379.142 492.999 410.245" stroke="black" stroke-opacity="0.38" stroke-width="3" stroke-linecap="round"/>
<path d="M301.671 196.817C339.73 243.506 375.452 268.323 456.671 310.938" stroke="#00A199" stroke-width="3" stroke-linecap="round"/>
<path d="M456.592 310.891C478.133 322.618 490.118 328.388 511.592 337.226" stroke="black" stroke-opacity="0.38" stroke-width="3" stroke-linecap="round"/>
<path d="M457.883 195C480.316 214.878 493.047 222.067 515.883 231" stroke="#00A199" stroke-width="3" stroke-linecap="round"/>
</g>
<defs>
<filter id="filter0_d_2498_10" x="0" y="0" width="609" height="494" filterUnits="userSpaceOnUse" color-interpolation-filters="sRGB">
<feFlood flood-opacity="0" result="BackgroundImageFix"/>
<feColorMatrix in="SourceAlpha" type="matrix" values="0 0 0 0 0 0 0 0 0 0 0 0 0 0 0 0 0 0 127 0" result="hardAlpha"/>
<feOffset dx="5" dy="7"/>
<feGaussianBlur stdDeviation="2"/>
<feComposite in2="hardAlpha" operator="out"/>
<feColorMatrix type="matrix" values="0 0 0 0 0 0 0 0 0 0 0 0 0 0 0 0 0 0 0.15 0"/>
<feBlend mode="normal" in2="BackgroundImageFix" result="effect1_dropShadow_2498_10"/>
<feBlend mode="normal" in="SourceGraphic" in2="effect1_dropShadow_2498_10" result="shape"/>
</filter>
<filter id="filter1_d_2498_10" x="133.636" y="174.968" width="22.7275" height="248.216" filterUnits="userSpaceOnUse" color-interpolation-filters="sRGB">
<feFlood flood-opacity="0" result="BackgroundImageFix"/>
<feColorMatrix in="SourceAlpha" type="matrix" values="0 0 0 0 0 0 0 0 0 0 0 0 0 0 0 0 0 0 127 0" result="hardAlpha"/>
<feOffset dy="4"/>
<feGaussianBlur stdDeviation="2"/>
<feComposite in2="hardAlpha" operator="out"/>
<feColorMatrix type="matrix" values="0 0 0 0 0 0 0 0 0 0 0 0 0 0 0 0 0 0 0.25 0"/>
<feBlend mode="normal" in2="BackgroundImageFix" result="effect1_dropShadow_2498_10"/>
<feBlend mode="normal" in="SourceGraphic" in2="effect1_dropShadow_2498_10" result="shape"/>
</filter>
</defs>
</svg>
