<svg id="Capa_1" enable-background="new 0 0 512 512" height="512" viewBox="0 0 512 512" width="512" xmlns="http://www.w3.org/2000/svg"><g><g><g><path d="m153.884 204.888c.047-8.974.67-17.665 2.068-25.975 1.367-8.132-4.793-15.572-13.039-15.572-8.169 0-14.466 7.335-13.072 15.384 1.356 7.83 2.126 15.726 2.374 23.681.181 5.807-4.545 10.586-10.354 10.586h-10.264c-5.686 0-10.305-4.58-10.356-10.266-.167-18.596.461-39.266 2.394-54.427 1.011-7.927-5.111-14.958-13.102-14.958h-1.052c-7.866 0-13.983 6.808-13.172 14.632 1.574 15.196 2.273 35.933 2.388 54.602.035 5.745-4.611 10.417-10.356 10.417h-9.301c-5.83 0-10.491-4.813-10.356-10.641.189-8.169.861-16.081 2.117-23.685 1.328-8.037-4.93-15.325-13.076-15.325h-.539c-8.065 0-14.302 7.15-13.108 15.126 1.267 8.462 1.909 17.358 2.064 26.593.071 4.229-2.471 7.978-6.341 9.685-7.244 3.196-12.301 10.439-12.301 18.866v124.429c0 11.388 9.232 20.619 20.619 20.619h124.429c11.387 0 20.619-9.231 20.619-20.619v-124.429c0-8.564-5.225-15.895-12.66-19.004-3.965-1.658-6.646-5.421-6.623-9.719z" fill="#fe73c5"/><path d="m160.507 214.607c-3.965-1.658-6.646-5.42-6.623-9.719.047-8.974.67-17.665 2.068-25.975 1.367-8.133-4.793-15.573-13.04-15.573-3.573 0-6.788 1.403-9.157 3.656 4.749 2.634 7.645 8.089 6.665 13.917-1.397 8.31-2.021 17.001-2.068 25.975-.022 4.298 2.658 8.06 6.624 9.719 7.435 3.11 12.66 10.44 12.66 19.004v124.429c0 8.229-4.833 15.312-11.805 18.619h6.718c11.387 0 20.619-9.231 20.619-20.619v-124.429c-.001-8.564-5.226-15.895-12.661-19.004z" fill="#fe4fb7"/><ellipse cx="90.333" cy="292.742" fill="#ffc344" rx="40.447" ry="52.203"/><ellipse cx="90.334" cy="292.742" fill="#ffe177" rx="22.447" ry="34.203"/><path d="m319.55 204.888c.047-8.974.67-17.665 2.068-25.975 1.367-8.132-4.793-15.572-13.039-15.572-8.169 0-14.466 7.335-13.072 15.384 1.356 7.83 2.126 15.726 2.374 23.681.181 5.807-4.545 10.586-10.354 10.586h-10.264c-5.686 0-10.305-4.58-10.356-10.266-.167-18.596.461-39.266 2.394-54.427 1.011-7.927-5.111-14.958-13.102-14.958h-1.052c-7.866 0-13.983 6.808-13.172 14.632 1.574 15.196 2.273 35.933 2.388 54.602.035 5.745-4.611 10.417-10.356 10.417h-9.298c-5.83 0-10.491-4.813-10.356-10.641.189-8.169.861-16.081 2.117-23.685 1.328-8.037-4.93-15.325-13.076-15.325h-.539c-8.065 0-14.302 7.15-13.108 15.126 1.267 8.462 1.909 17.358 2.064 26.593.071 4.229-2.471 7.978-6.341 9.685-7.245 3.196-12.302 10.438-12.302 18.866v124.429c0 11.388 9.232 20.619 20.619 20.619h124.429c11.387 0 20.619-9.231 20.619-20.619v-124.429c0-8.564-5.225-15.895-12.66-19.004-3.966-1.658-6.647-5.421-6.625-9.719z" fill="#fe73c5"/><path d="m326.174 214.607c-3.965-1.658-6.646-5.42-6.623-9.719.047-8.974.67-17.665 2.068-25.975 1.367-8.133-4.793-15.573-13.04-15.573-3.573 0-6.788 1.403-9.157 3.656 4.749 2.634 7.645 8.089 6.665 13.917-1.397 8.31-2.021 17.001-2.068 25.975-.022 4.298 2.658 8.06 6.624 9.719 7.435 3.11 12.66 10.44 12.66 19.004v124.429c0 8.229-4.833 15.312-11.805 18.619h6.718c11.387 0 20.619-9.231 20.619-20.619v-124.429c-.002-8.564-5.227-15.895-12.661-19.004z" fill="#fe4fb7"/><ellipse cx="256" cy="292.742" fill="#ffc344" rx="40.447" ry="52.203"/><ellipse cx="256" cy="292.742" fill="#ffe177" rx="22.447" ry="34.203"/><path d="m485.217 204.888c.047-8.974.67-17.665 2.068-25.975 1.367-8.132-4.793-15.572-13.039-15.572-8.169 0-14.466 7.335-13.072 15.384 1.356 7.83 2.126 15.726 2.374 23.681.181 5.807-4.545 10.586-10.354 10.586h-10.264c-5.686 0-10.305-4.58-10.356-10.266-.167-18.596.461-39.266 2.394-54.427 1.011-7.927-5.111-14.958-13.102-14.958h-1.052c-7.866 0-13.983 6.808-13.172 14.632 1.574 15.196 2.273 35.933 2.388 54.602.035 5.745-4.611 10.417-10.356 10.417h-9.298c-5.83 0-10.491-4.813-10.356-10.641.189-8.169.861-16.081 2.117-23.685 1.328-8.037-4.93-15.325-13.076-15.325h-.539c-8.065 0-14.302 7.15-13.108 15.126 1.267 8.462 1.909 17.358 2.064 26.593.071 4.229-2.471 7.978-6.341 9.685-7.245 3.196-12.302 10.438-12.302 18.866v124.429c0 11.388 9.232 20.619 20.619 20.619h124.429c11.388 0 20.619-9.231 20.619-20.619v-124.429c0-8.564-5.225-15.895-12.66-19.004-3.967-1.658-6.648-5.421-6.625-9.719z" fill="#fe73c5"/><path d="m491.84 214.607c-3.965-1.658-6.646-5.42-6.623-9.719.047-8.974.67-17.665 2.068-25.975 1.367-8.133-4.793-15.573-13.04-15.573-3.573 0-6.788 1.403-9.157 3.656 4.749 2.634 7.645 8.089 6.665 13.917-1.397 8.31-2.021 17.001-2.068 25.975-.022 4.298 2.658 8.06 6.624 9.719 7.435 3.11 12.66 10.44 12.66 19.004v124.429c0 8.229-4.833 15.312-11.805 18.619h6.718c11.387 0 20.619-9.231 20.619-20.619v-124.429c-.001-8.564-5.226-15.895-12.661-19.004z" fill="#fe4fb7"/><ellipse cx="421.667" cy="292.742" fill="#ffc344" rx="40.447" ry="52.203"/><ellipse cx="421.667" cy="292.742" fill="#ffe177" rx="22.447" ry="34.203"/><g><circle cx="173.167" cy="225.638" fill="#6fd7a3" r="14.555"/></g><g><circle cx="338.833" cy="225.638" fill="#6fd7a3" r="14.555"/></g></g></g><g><path d="m138.281 292.742c0-32.92-21.509-59.703-47.947-59.703s-47.947 26.783-47.947 59.703 21.509 59.703 47.947 59.703 47.947-26.783 47.947-59.703zm-80.894 0c0-24.649 14.78-44.703 32.947-44.703s32.947 20.054 32.947 44.703-14.78 44.703-32.947 44.703-32.947-20.053-32.947-44.703z"/><path d="m97.834 292.742v-7.087c0-4.143-3.357-7.5-7.5-7.5s-7.5 3.357-7.5 7.5v7.087c0 4.143 3.357 7.5 7.5 7.5s7.5-3.357 7.5-7.5z"/><path d="m208.053 292.742c0 32.92 21.509 59.703 47.947 59.703s47.947-26.783 47.947-59.703-21.509-59.703-47.947-59.703-47.947 26.783-47.947 59.703zm47.947-44.703c18.167 0 32.947 20.054 32.947 44.703s-14.78 44.703-32.947 44.703-32.947-20.054-32.947-44.703 14.78-44.703 32.947-44.703z"/><path d="m255.999 300.242c4.143 0 7.5-3.357 7.501-7.499l.001-7.087c.001-4.142-3.356-7.5-7.499-7.501h-.001c-4.142 0-7.499 3.357-7.5 7.499l-.001 7.087c-.001 4.142 3.356 7.5 7.499 7.501z"/><path d="m494.734 207.688c-1.231-.516-2.023-1.599-2.018-2.76.049-9.096.691-17.198 1.965-24.771 1.025-6.099-.667-12.293-4.644-16.993-3.938-4.654-9.693-7.323-15.793-7.323-6.15 0-11.951 2.7-15.914 7.408-3.927 4.664-5.584 10.771-4.548 16.757 1.264 7.296 2.026 14.911 2.268 22.634.029.938-.405 1.59-.775 1.971-.318.329-1.014.882-2.083.882h-10.264c-1.561 0-2.842-1.271-2.855-2.833-.188-20.833.662-40.301 2.333-53.411.758-5.938-1.071-11.912-5.018-16.394-3.925-4.457-9.583-7.014-15.523-7.014h-1.053c-5.861 0-11.475 2.496-15.398 6.848-3.932 4.36-5.839 10.213-5.233 16.058 1.866 18.015 2.271 41.486 2.348 53.875.007 1.033-.517 1.714-.829 2.028s-.991.843-2.027.843h-9.298c-1.039 0-1.718-.536-2.03-.855-.319-.327-.853-1.037-.827-2.111.187-8.039.865-15.655 2.019-22.636.989-5.984-.699-12.076-4.632-16.713-3.955-4.662-9.73-7.336-15.844-7.336h-.539c-6.054 0-11.792 2.631-15.743 7.218-3.928 4.56-5.671 10.581-4.781 16.519 1.159 7.747 1.826 16.363 1.981 25.609.008.444-.095.87-.292 1.256-3.206-1.82-6.91-2.86-10.852-2.86-4.076 0-7.898 1.112-11.178 3.048-.389-.498-.609-1.09-.605-1.703.048-9.093.689-17.195 1.964-24.771 1.025-6.099-.667-12.293-4.644-16.993-3.938-4.654-9.693-7.323-15.792-7.323-6.151 0-11.953 2.7-15.916 7.409-3.926 4.664-5.583 10.771-4.546 16.755 1.264 7.305 2.026 14.92 2.267 22.635.029.938-.405 1.59-.775 1.972-.318.329-1.014.881-2.082.881h-10.264c-1.562 0-2.843-1.271-2.856-2.833-.034-3.784-.033-7.658.004-11.515.039-4.143-3.287-7.532-7.429-7.571h-.073c-4.108 0-7.459 3.312-7.498 7.429-.037 3.949-.038 7.916-.004 11.792.088 9.759 8.098 17.698 17.856 17.698h10.264c4.816 0 9.501-1.983 12.853-5.441 3.373-3.479 5.147-8.053 4.997-12.877-.261-8.414-1.095-16.733-2.479-24.729-.382-2.208.615-3.79 1.243-4.537 1.106-1.313 2.725-2.067 4.439-2.067 2.296 0 3.704 1.26 4.34 2.011.658.778 1.703 2.439 1.303 4.818-1.409 8.38-2.119 17.271-2.171 27.18-.027 5.19 2.217 10.014 6.004 13.392-.826 2.313-1.276 4.803-1.276 7.397 0 9.529 6.075 17.666 14.556 20.741v111.66c0 7.234-5.885 13.119-13.119 13.119h-124.432c-7.234 0-13.119-5.885-13.119-13.119v-111.662c8.48-3.076 14.556-11.212 14.556-20.741 0-2.682-.481-5.253-1.362-7.632 3.5-3.385 5.533-8.075 5.449-13.072-.166-9.897-.889-19.177-2.146-27.578-.331-2.213.68-3.774 1.312-4.508.646-.75 2.073-2.008 4.378-2.008h.539c2.327 0 3.76 1.278 4.406 2.04.633.747 1.64 2.332 1.271 4.562-1.269 7.671-2.014 15.992-2.217 24.734-.112 4.868 1.697 9.465 5.095 12.942 3.386 3.464 7.917 5.372 12.759 5.372h9.299c4.791 0 9.289-1.871 12.666-5.268 3.376-3.397 5.219-7.905 5.189-12.695-.077-12.66-.496-36.684-2.428-55.328-.171-1.652.345-3.238 1.453-4.467 1.101-1.221 2.613-1.894 4.26-1.894h1.052c2.235 0 3.632 1.207 4.266 1.927.646.733 1.688 2.305 1.397 4.582-.525 4.111-.979 8.838-1.35 14.049-.293 4.132 2.818 7.719 6.95 8.013 4.121.297 7.718-2.818 8.013-6.95.35-4.932.776-9.377 1.266-13.214.757-5.938-1.073-11.912-5.02-16.394-3.925-4.457-9.583-7.013-15.522-7.013h-1.052c-5.862 0-11.476 2.496-15.399 6.849-3.932 4.359-5.839 10.212-5.233 16.057 1.866 18.015 2.272 41.486 2.348 53.875.007 1.033-.517 1.715-.829 2.029s-.991.842-2.026.842h-9.299c-1.039 0-1.718-.536-2.03-.855-.319-.327-.852-1.037-.827-2.111.187-8.041.866-15.656 2.02-22.636.989-5.984-.699-12.076-4.632-16.712-3.956-4.663-9.73-7.337-15.845-7.337h-.539c-6.054 0-11.792 2.631-15.743 7.218-3.928 4.56-5.671 10.581-4.781 16.519 1.16 7.752 1.827 16.368 1.982 25.609.008.444-.095.87-.292 1.256-3.206-1.82-6.91-2.86-10.852-2.86-4.076 0-7.898 1.112-11.178 3.048-.389-.498-.609-1.09-.605-1.703.048-9.093.689-17.195 1.964-24.77 1.025-6.099-.666-12.292-4.643-16.993-3.937-4.654-9.693-7.324-15.793-7.324-6.15 0-11.951 2.7-15.914 7.408-3.927 4.664-5.584 10.771-4.548 16.756 1.264 7.303 2.026 14.918 2.268 22.635.029.938-.405 1.59-.775 1.971-.318.329-1.014.882-2.083.882h-10.264c-1.561 0-2.843-1.271-2.856-2.833-.188-20.843.663-40.31 2.334-53.411.757-5.937-1.072-11.912-5.018-16.394-3.926-4.457-9.584-7.014-15.524-7.014h-1.052c-5.861 0-11.475 2.496-15.398 6.848-3.932 4.36-5.839 10.213-5.233 16.058 1.866 18.026 2.272 41.492 2.348 53.875.007 1.033-.517 1.714-.829 2.028s-.991.843-2.027.843h-9.298c-1.039 0-1.719-.536-2.03-.855-.32-.327-.853-1.036-.827-2.111.187-8.045.865-15.661 2.019-22.636.989-5.984-.699-12.076-4.632-16.712-3.956-4.663-9.73-7.337-15.844-7.337h-.539c-6.054 0-11.791 2.631-15.743 7.217-3.928 4.56-5.671 10.581-4.782 16.52 1.16 7.752 1.827 16.368 1.982 25.609.02 1.146-.696 2.18-1.869 2.696-10.195 4.496-16.78 14.595-16.78 25.728v33.08c0 4.143 3.357 7.5 7.5 7.5s7.5-3.357 7.5-7.5v-33.08c0-5.194 3.073-9.906 7.829-12.004 6.69-2.951 10.935-9.495 10.813-16.673-.166-9.897-.889-19.177-2.146-27.577-.331-2.214.681-3.775 1.313-4.509.646-.75 2.073-2.008 4.378-2.008h.539c2.327 0 3.759 1.278 4.404 2.04.634.746 1.641 2.332 1.272 4.562-1.268 7.666-2.013 15.988-2.216 24.733-.113 4.868 1.695 9.464 5.094 12.942 3.385 3.465 7.917 5.373 12.76 5.373h9.298c4.792 0 9.29-1.871 12.667-5.269 3.376-3.396 5.219-7.904 5.189-12.694-.077-12.655-.496-36.671-2.428-55.328-.171-1.652.345-3.238 1.453-4.467 1.101-1.222 2.613-1.894 4.259-1.894h1.052c2.235 0 3.633 1.207 4.267 1.927.646.734 1.687 2.305 1.396 4.583-2.4 18.817-2.568 42.813-2.455 55.444.089 9.758 8.1 17.697 17.856 17.697h10.264c4.816 0 9.502-1.983 12.854-5.441 3.373-3.479 5.147-8.053 4.997-12.878-.262-8.416-1.097-16.735-2.48-24.727-.382-2.209.615-3.791 1.244-4.538 1.106-1.313 2.724-2.067 4.438-2.067 2.297 0 3.705 1.26 4.341 2.011.658.778 1.702 2.439 1.302 4.818-1.409 8.38-2.119 17.271-2.171 27.18-.027 5.19 2.217 10.014 6.004 13.392-.826 2.313-1.276 4.803-1.276 7.397 0 9.529 6.075 17.666 14.556 20.741v111.66c0 7.234-5.885 13.119-13.119 13.119h-124.429c-7.234 0-13.119-5.885-13.119-13.119v-62.349c0-4.143-3.357-7.5-7.5-7.5s-7.5 3.357-7.5 7.5v62.349c0 15.505 12.614 28.119 28.119 28.119h124.429c8.138 0 15.48-3.476 20.619-9.02 5.139 5.544 12.481 9.02 20.619 9.02h124.429c8.138 0 15.48-3.476 20.619-9.02 5.139 5.544 12.481 9.02 20.619 9.02h55.661c4.143 0 7.5-3.357 7.5-7.5s-3.357-7.5-7.5-7.5h-55.661c-7.234 0-13.119-5.885-13.119-13.119v-111.657c8.48-3.076 14.555-11.212 14.555-20.741 0-2.682-.481-5.253-1.362-7.632 3.5-3.384 5.533-8.074 5.448-13.072-.167-9.902-.889-19.182-2.146-27.578-.331-2.213.68-3.774 1.312-4.508.646-.75 2.073-2.008 4.378-2.008h.539c2.327 0 3.759 1.278 4.405 2.04.633.746 1.64 2.332 1.271 4.563-1.268 7.673-2.013 15.994-2.216 24.733-.112 4.868 1.697 9.465 5.095 12.942 3.386 3.464 7.917 5.372 12.759 5.372h9.298c4.792 0 9.29-1.871 12.667-5.269 3.376-3.396 5.219-7.904 5.189-12.694-.078-12.66-.496-36.684-2.428-55.328-.171-1.652.345-3.238 1.453-4.467 1.101-1.221 2.613-1.894 4.259-1.894h1.053c2.235 0 3.632 1.207 4.266 1.927.646.733 1.687 2.305 1.396 4.584-2.4 18.83-2.567 42.819-2.454 55.442.088 9.759 8.098 17.698 17.855 17.698h10.264c4.816 0 9.502-1.983 12.854-5.441 3.373-3.479 5.147-8.053 4.997-12.878-.263-8.423-1.097-16.742-2.48-24.727-.382-2.209.615-3.791 1.244-4.538 1.106-1.313 2.724-2.067 4.438-2.067 2.297 0 3.705 1.26 4.341 2.011.658.778 1.703 2.439 1.303 4.818-1.408 8.377-2.119 17.268-2.172 27.18-.038 7.262 4.37 13.808 11.23 16.677 4.892 2.046 8.053 6.79 8.053 12.085v124.43c0 7.234-5.885 13.119-13.118 13.119h-39.768c-4.143 0-7.5 3.357-7.5 7.5s3.357 7.5 7.5 7.5h39.768c15.505 0 28.118-12.614 28.118-28.119v-124.429c.002-11.361-6.775-21.536-17.264-25.923zm-321.567 10.895c3.891 0 7.056 3.165 7.056 7.056 0 3.89-3.165 7.055-7.056 7.055s-7.056-3.165-7.056-7.055c0-3.891 3.165-7.056 7.056-7.056zm165.667 0c3.89 0 7.055 3.165 7.055 7.056 0 3.89-3.165 7.055-7.055 7.055-3.891 0-7.056-3.165-7.056-7.055 0-3.891 3.165-7.056 7.056-7.056z"/><path d="m469.614 292.742c0-32.92-21.509-59.703-47.947-59.703s-47.947 26.783-47.947 59.703 21.509 59.703 47.947 59.703 47.947-26.783 47.947-59.703zm-47.947 44.703c-18.167 0-32.947-20.054-32.947-44.703s14.78-44.703 32.947-44.703 32.947 20.054 32.947 44.703-14.78 44.703-32.947 44.703z"/><path d="m421.667 278.155c-4.143 0-7.5 3.357-7.5 7.5v7.087c0 4.143 3.357 7.5 7.5 7.5s7.5-3.357 7.5-7.5v-7.087c0-4.142-3.357-7.5-7.5-7.5z"/></g></g></svg>