<svg width="61" height="61" viewBox="0 0 61 61" fill="none" xmlns="http://www.w3.org/2000/svg">
<rect opacity="0.1" width="60.4529" height="60.4529" rx="12" fill="#C5BEDC"/>
<g clip-path="url(#clip0_3634_4)">
<path d="M23.2412 32.2083V17.6875C23.2412 17.0079 23.5112 16.3561 23.9917 15.8755C24.4723 15.395 25.1241 15.125 25.8037 15.125C26.4833 15.125 27.1351 15.395 27.6157 15.8755C28.0962 16.3561 28.3662 17.0079 28.3662 17.6875V30.5" stroke="#00A199" stroke-width="2.75" stroke-linecap="round" stroke-linejoin="round"/>
<path d="M28.3662 29.6458V26.2292C28.3662 25.5495 28.6362 24.8978 29.1167 24.4172C29.5973 23.9366 30.2491 23.6667 30.9287 23.6667C31.6083 23.6667 32.2601 23.9366 32.7407 24.4172C33.2212 24.8978 33.4912 25.5495 33.4912 26.2292V30.5" stroke="#00A199" stroke-width="2.75" stroke-linecap="round" stroke-linejoin="round"/>
<path d="M33.4912 27.9375C33.4912 27.2579 33.7612 26.6061 34.2417 26.1255C34.7223 25.645 35.3741 25.375 36.0537 25.375C36.7333 25.375 37.3851 25.645 37.8657 26.1255C38.3462 26.6061 38.6162 27.2579 38.6162 27.9375V30.5" stroke="#00A199" stroke-width="2.75" stroke-linecap="round" stroke-linejoin="round"/>
<path d="M38.6164 29.6458C38.6164 28.9662 38.8864 28.3144 39.367 27.8339C39.8475 27.3533 40.4993 27.0833 41.1789 27.0833C41.8586 27.0833 42.5103 27.3533 42.9909 27.8339C43.4715 28.3144 43.7414 28.9662 43.7414 29.6458V37.3333C43.7414 40.0518 42.6615 42.6589 40.7393 44.5812C38.817 46.5034 36.2099 47.5833 33.4914 47.5833H30.0748H30.4301C28.7326 47.5836 27.0616 47.1623 25.5671 46.3572C24.0727 45.5522 22.8016 44.3885 21.8679 42.9708L21.5331 42.4583C21.0001 41.6401 19.1295 38.3788 15.9195 32.673C15.5923 32.0914 15.5049 31.405 15.6759 30.7599C15.8469 30.1148 16.2628 29.5619 16.8352 29.2188C17.4449 28.8529 18.1593 28.7013 18.865 28.788C19.5707 28.8747 20.2272 29.1946 20.7302 29.6971L23.2414 32.2083" stroke="#00A199" stroke-width="2.75" stroke-linecap="round" stroke-linejoin="round"/>
<path d="M18.1165 15.125L16.4082 13.4167" stroke="#00A199" stroke-width="2.75" stroke-linecap="round" stroke-linejoin="round"/>
<path d="M16.408 21.9583H14.6997" stroke="#00A199" stroke-width="2.75" stroke-linecap="round" stroke-linejoin="round"/>
<path d="M33.4912 15.125L35.1995 13.4167" stroke="#00A199" stroke-width="2.75" stroke-linecap="round" stroke-linejoin="round"/>
<path d="M35.1997 20.25H36.908" stroke="#00A199" stroke-width="2.75" stroke-linecap="round" stroke-linejoin="round"/>
</g>
<defs>
<clipPath id="clip0_3634_4">
<rect width="41" height="41" fill="white" transform="translate(9.57471 10)"/>
</clipPath>
</defs>
</svg>
