<svg width="60" height="61" viewBox="0 0 60 61" fill="none" xmlns="http://www.w3.org/2000/svg">
<rect opacity="0.1" width="60" height="61" rx="12" fill="#C5BEDC"/>
<g clip-path="url(#clip0_3634_3)">
<path d="M14.25 30.5H16M30 15.125V16.8333M44 30.5H45.75M18.8 19.5667L20.025 20.7625M41.2 19.5667L39.975 20.7625" stroke="#00A199" stroke-width="2.75" stroke-linecap="round" stroke-linejoin="round"/>
<path d="M24.75 37.3333C23.2808 36.2577 22.1956 34.7581 21.648 33.0469C21.1004 31.3357 21.1183 29.4996 21.699 27.7989C22.2798 26.0981 23.394 24.6189 24.8838 23.5706C26.3736 22.5224 28.1635 21.9583 30 21.9583C31.8365 21.9583 33.6264 22.5224 35.1162 23.5706C36.606 24.6189 37.7202 26.0981 38.301 27.7989C38.8817 29.4996 38.8996 31.3357 38.352 33.0469C37.8044 34.7581 36.7192 36.2577 35.25 37.3333C34.5667 37.9936 34.0523 38.8016 33.7483 39.6919C33.4443 40.5823 33.3592 41.53 33.5 42.4583C33.5 43.3645 33.1313 44.2335 32.4749 44.8743C31.8185 45.515 30.9283 45.875 30 45.875C29.0717 45.875 28.1815 45.515 27.5251 44.8743C26.8687 44.2335 26.5 43.3645 26.5 42.4583C26.6408 41.53 26.5557 40.5823 26.2517 39.6919C25.9477 38.8016 25.4333 37.9936 24.75 37.3333" stroke="#00A199" stroke-width="2.75" stroke-linecap="round" stroke-linejoin="round"/>
<path d="M25.9751 39.0417H34.0251" stroke="#00A199" stroke-width="2.75" stroke-linecap="round" stroke-linejoin="round"/>
</g>
<defs>
<clipPath id="clip0_3634_3">
<rect width="42" height="41" fill="white" transform="translate(9 10)"/>
</clipPath>
</defs>
</svg>
