<svg id="Capa_1" enable-background="new 0 0 511.725 511.725" height="512" viewBox="0 0 511.725 511.725" width="512" xmlns="http://www.w3.org/2000/svg"><g><g><path d="m492.63 221.534c8.699 18.089 12.615 38.106 11.372 58.139l-.143 2.297c-1.877 30.255-15.388 58.611-37.702 79.128l-22.666 20.841c-1.752 1.611-3.454 3.274-5.104 4.988l-27.457 28.516c-13.251 13.762-29.661 24.081-47.806 30.062l-30.387 10.016c-6.59 2.172-12.974 4.924-19.078 8.224l-31.896 17.244c-17.741 9.591-37.653 14.449-57.818 14.106l-12.901-.22c-23.454-.399-46.251-7.818-65.449-21.298l-14.987-10.523c-12.006-8.43-22.325-19.036-30.422-31.269l-25.655-38.756c-3.873-5.852-7.214-12.039-9.982-18.487l-23.973-55.844-21.791-46.038c-7.52-15.886-11.376-33.258-11.283-50.834.177-33.656 14.794-65.616 40.138-87.762l10.388-9.077c7.773-6.792 14.615-14.58 20.351-23.161l7.858-11.756c13.64-20.408 33.335-36.026 56.314-44.657l32.357-12.152c5.728-2.151 11.616-3.852 17.61-5.085l44.465-9.15c11.745-2.417 23.791-3.02 35.718-1.788l41.278 4.264c13.598 1.405 26.845 5.174 39.145 11.138l8.757 4.246c22.582 10.949 41.06 28.848 52.722 51.071l13.734 26.17c2.245 4.278 4.752 8.413 7.507 12.383l30.793 44.366c3.536 5.095 6.663 10.463 9.352 16.052z" fill="#ff94d6"/><path d="m225.944 475.815c-.557 0-1.113-.004-1.67-.014l-12.9-.22c-19.674-.335-38.585-6.489-54.689-17.797l-14.986-10.523c-10.074-7.072-18.625-15.863-25.42-26.128l-25.655-38.756c-3.228-4.876-6.035-10.073-8.342-15.448l-24.112-56.168-21.943-46.357c-6.245-13.193-9.505-27.88-9.428-42.476.148-28.108 12.372-54.838 33.538-73.335l10.387-9.076c9.047-7.904 17.019-16.978 23.698-26.969l7.857-11.757c11.466-17.155 27.738-30.058 47.056-37.314l32.356-12.152c4.772-1.792 9.722-3.221 14.715-4.249l44.465-9.15c6.491-1.336 13.142-2.013 19.77-2.013 3.351 0 6.742.174 10.077.518l41.277 4.264c11.397 1.178 22.402 4.309 32.708 9.307l8.759 4.246c18.733 9.082 34.379 24.238 44.053 42.674l13.734 26.171c2.603 4.96 5.544 9.811 8.741 14.418l30.793 44.368c2.946 4.244 5.575 8.756 7.812 13.41l16.645 34.609c7.253 15.08 10.539 31.879 9.501 48.579l-.142 2.298c-1.576 25.406-12.764 48.887-31.503 66.118l-22.665 20.842c-2.025 1.861-4.024 3.815-5.94 5.804l-27.46 28.519c-11.031 11.457-24.844 20.142-39.946 25.119l-30.388 10.015c-7.653 2.524-15.127 5.746-22.214 9.577l-31.895 17.244c-14.281 7.722-30.41 11.802-46.644 11.802z" fill="#ffb0e4"/><path d="m407.032 186.958c0-9.737-1.831-18.9-5.057-26.905-3.182-7.896-5.098-16.368-10.575-21.448-6.825-6.331-17.73-8.336-26.658-8.336-12.108 0-26.299 6.137-34.008 17.07-7.162 10.155-8.282 24.542-8.282 39.62 0 8.603-3.011 18.936-.452 26.239 2.73 7.792 11.187 12.435 16.121 17.799 3.222 3.503 5.039 8.095 4.748 12.846-.521 8.48-1.633 15.933-3.106 22.456-1.809 8.004-8.973 13.648-17.179 13.638h-.131c-12.163 0-24.1 2.337-33.263 13.047-4.701 5.494-8.168 17.994-11.609 23.52-8.29 13.315-22.501 21.825-38.139 23.036-5.178.401-10.447.709-15.16.807-7.051.146-13.43-4.012-16.294-10.456-5.6-12.602-13.405-28.921-29.035-36.199-10.181-4.74-24.466-2.354-34.224-2.261-8.488.08-17.937-2.097-24.553 1.317-6.984 3.603-10.987 12.979-14.233 19.952-2.957 6.351-6.095 15.321-4.887 22.302 1.941 11.209 11.27 20.47 21.863 29.428 4.804 4.063 9.469 11.119 15.669 14.005 10.195 4.747 21.624 3.485 31.392 3.384 11.028-.113 21.082-3.169 28.58-8.837 4.074-3.079 9.32-4.156 14.292-2.989 11.443 2.685 28.28 3.894 51.167-1.02 6.194-1.33 12.715.684 16.899 5.441 10.203 11.599 21.745 23.14 38.251 23.14 16.667 0 34.909-11.682 45.121-23.478 8.647-9.988 19.793-22.125 19.793-36.48 0-12.573-9.932-25.155-16.744-34.553-3.46-4.774-4.078-11.003-1.915-16.488 3.377-8.565 6.284-19.696 7.513-33.891.5-5.777 3.826-10.853 8.82-13.798 9.593-5.657 20.995-14.271 25.276-27.085 2.36-7.066-.001-16.578-.001-24.823z" fill="#ffe177"/><g><path d="m407.032 186.958c0-9.737-1.831-18.901-5.057-26.906-3.182-7.896-5.099-16.368-10.576-21.448-2.884-2.675-6.501-4.571-10.385-5.877 1.321 3.36 2.476 6.944 3.876 10.418 3.226 8.005 5.057 17.168 5.057 26.906 0 8.244 2.361 17.756 0 24.822-4.281 12.814-15.683 21.428-25.276 27.085-4.995 2.946-8.32 8.022-8.82 13.798-1.229 14.196-4.136 25.326-7.513 33.891-2.162 5.485-1.545 11.714 1.915 16.488 6.812 9.398 16.744 21.981 16.744 34.553 0 14.355-11.146 26.492-19.793 36.48-10.212 11.796-28.455 23.478-45.121 23.478-16.506 0-28.048-11.541-38.251-23.14-4.184-4.757-10.705-6.772-16.899-5.441-22.887 4.914-39.724 3.705-51.167 1.02-4.971-1.166-10.218-.09-14.292 2.989-7.498 5.668-17.552 8.724-28.58 8.837-9.768.101-21.197 1.363-31.392-3.384-5.35-2.491-9.557-8.083-13.697-12.181 4.022 5.289 9.376 10.232 15.112 15.083 4.804 4.063 9.469 11.119 15.669 14.005 10.195 4.747 21.624 3.485 31.392 3.384 11.028-.113 21.082-3.169 28.58-8.837 4.074-3.079 9.32-4.155 14.292-2.989 11.443 2.685 28.28 3.895 51.166-1.019 6.194-1.33 12.715.684 16.9 5.441 10.203 11.599 21.745 23.14 38.251 23.14 16.667 0 34.909-11.681 45.121-23.477 8.647-9.988 19.793-22.125 19.793-36.48 0-12.573-9.932-25.155-16.744-34.553-3.46-4.774-4.078-11.003-1.915-16.488 3.377-8.566 6.285-19.696 7.513-33.891.5-5.777 3.826-10.853 8.82-13.799 9.593-5.657 20.995-14.271 25.276-27.085 2.362-7.066.001-16.578.001-24.823z" fill="#ffc344"/></g></g><g><g><g><path d="m363.152 103.379c-4.143 0-7.5-3.357-7.5-7.5v-13.455c0-4.143 3.357-7.5 7.5-7.5s7.5 3.357 7.5 7.5v13.455c0 4.143-3.357 7.5-7.5 7.5z"/></g><g><path d="m449.246 231.557c-1.342 0-2.699-.359-3.925-1.114l-5.729-3.526c-3.527-2.171-4.627-6.791-2.455-10.318 2.173-3.528 6.793-4.626 10.318-2.455l5.729 3.526c3.527 2.171 4.627 6.791 2.455 10.318-1.417 2.301-3.876 3.569-6.393 3.569z"/></g><g><path d="m257.734 88.509c-1.51 0-3.032-.454-4.354-1.398l-6.609-4.722c-3.371-2.407-4.151-7.092-1.743-10.462 2.408-3.369 7.092-4.151 10.462-1.743l6.609 4.722c3.371 2.407 4.151 7.092 1.743 10.462-1.463 2.048-3.769 3.141-6.108 3.141z"/></g><g><path d="m179.023 86.148c-1.473 0-2.96-.433-4.263-1.335-3.405-2.357-4.255-7.03-1.896-10.436l4.249-6.137c2.357-3.405 7.03-4.256 10.436-1.896 3.405 2.357 4.255 7.03 1.896 10.436l-4.249 6.137c-1.456 2.102-3.795 3.231-6.173 3.231z"/></g><g><path d="m81.539 169.172c-1.826 0-3.657-.663-5.102-2.004-3.035-2.818-3.211-7.563-.393-10.6l6.137-6.609c2.818-3.034 7.563-3.211 10.6-.393 3.035 2.818 3.211 7.563.393 10.6l-6.137 6.609c-1.478 1.591-3.486 2.397-5.498 2.397z"/></g><g><path d="m123.171 166.939c-2.281 0-4.534-1.036-6.008-3.003l-4.249-5.671c-2.483-3.314-1.811-8.016 1.505-10.499 3.314-2.485 8.014-1.812 10.499 1.505l4.249 5.671c2.484 3.314 1.811 8.016-1.505 10.499-1.349 1.01-2.927 1.498-4.491 1.498z"/></g><g><path d="m162.979 247.844c-4.143 0-7.5-3.357-7.5-7.5v-5.901c0-4.143 3.357-7.5 7.5-7.5s7.5 3.357 7.5 7.5v5.901c0 4.142-3.357 7.5-7.5 7.5z"/></g><g><path d="m124.581 225.138c-4.143 0-7.5-3.357-7.5-7.5v-5.901c0-4.143 3.357-7.5 7.5-7.5s7.5 3.357 7.5 7.5v5.901c0 4.142-3.358 7.5-7.5 7.5z"/></g><g><path d="m124.581 413.848c-4.143 0-7.5-3.357-7.5-7.5v-5.901c0-4.143 3.357-7.5 7.5-7.5s7.5 3.357 7.5 7.5v5.901c0 4.142-3.358 7.5-7.5 7.5z"/></g><g><path d="m72.182 218.337c-2.232 0-4.441-.992-5.921-2.89l-5.193-6.664c-2.546-3.268-1.961-7.979 1.306-10.526 3.268-2.544 7.979-1.961 10.526 1.306l5.193 6.664c2.546 3.268 1.961 7.979-1.306 10.526-1.369 1.067-2.992 1.584-4.605 1.584z"/></g><g><path d="m82.006 279.003c-1.364 0-2.744-.372-3.984-1.151-3.507-2.204-4.562-6.834-2.358-10.341l5.193-8.262c2.204-3.507 6.834-4.562 10.341-2.358s4.562 6.834 2.358 10.341l-5.193 8.262c-1.426 2.266-3.864 3.509-6.357 3.509z"/></g><g><path d="m255.863 266.433c-4.143 0-7.5-3.357-7.5-7.5v-6.609c0-4.143 3.357-7.5 7.5-7.5s7.5 3.357 7.5 7.5v6.609c0 4.142-3.357 7.5-7.5 7.5z"/></g><g><path d="m191.62 434.799c-.834 0-1.682-.14-2.513-.436-3.903-1.388-5.941-5.677-4.554-9.579l3.777-10.622c1.388-3.904 5.675-5.943 9.579-4.554 3.903 1.388 5.941 5.677 4.554 9.579l-3.777 10.622c-1.093 3.073-3.982 4.99-7.066 4.99z"/></g><g><path d="m207.972 279.388c-2.934 0-5.72-1.732-6.922-4.608l-3.776-9.029c-1.599-3.821.204-8.215 4.025-9.812 3.82-1.6 8.215.203 9.812 4.025l3.776 9.029c1.599 3.821-.204 8.215-4.025 9.812-.944.395-1.925.583-2.89.583z"/></g><g><path d="m179.499 181.416c-1.004 0-2.023-.202-3.002-.631-3.795-1.66-5.525-6.082-3.865-9.877l3.305-7.554c1.661-3.795 6.083-5.524 9.877-3.865 3.795 1.66 5.525 6.082 3.865 9.877l-3.305 7.554c-1.233 2.816-3.987 4.496-6.875 4.496z"/></g><g><path d="m236.116 447.142h-10.42c-4.143 0-7.5-3.357-7.5-7.5s3.357-7.5 7.5-7.5h10.42c4.143 0 7.5 3.357 7.5 7.5s-3.357 7.5-7.5 7.5z"/></g><g><path d="m284.411 452.305c-4.143 0-7.5-3.357-7.5-7.5v-10.327c0-4.143 3.357-7.5 7.5-7.5s7.5 3.357 7.5 7.5v10.327c0 4.142-3.358 7.5-7.5 7.5z"/></g><g><path d="m217.743 143.08c-4.143 0-7.5-3.357-7.5-7.5v-10.622c0-4.143 3.357-7.5 7.5-7.5s7.5 3.357 7.5 7.5v10.622c0 4.143-3.358 7.5-7.5 7.5z"/></g><g><path d="m420.25 328.712c-2.214 0-4.406-.976-5.887-2.847l-5.602-7.081c-2.57-3.249-2.02-7.966 1.229-10.535 3.249-2.571 7.964-2.021 10.535 1.229l5.602 7.081c2.57 3.249 2.02 7.966-1.229 10.535-1.378 1.09-3.018 1.618-4.648 1.618z"/></g><g><path d="m295.476 223.959c-1.195 0-2.407-.287-3.535-.891l-6.609-3.541c-3.651-1.956-5.025-6.502-3.069-10.153 1.956-3.65 6.5-5.022 10.153-3.069l6.609 3.541c3.651 1.956 5.025 6.502 3.069 10.153-1.352 2.524-3.942 3.96-6.618 3.96z"/></g><g><path d="m308.774 80.012c-1.195 0-2.407-.287-3.535-.891l-6.609-3.541c-3.651-1.956-5.025-6.502-3.069-10.153 1.957-3.651 6.501-5.023 10.153-3.069l6.609 3.541c3.651 1.956 5.025 6.502 3.069 10.153-1.352 2.523-3.942 3.96-6.618 3.96z"/></g><g><path d="m466.929 297.416c-1.195 0-2.407-.287-3.534-.891l-6.609-3.54c-3.651-1.956-5.026-6.501-3.07-10.152 1.955-3.65 6.503-5.024 10.152-3.07l6.609 3.54c3.651 1.956 5.026 6.501 3.07 10.152-1.351 2.525-3.941 3.961-6.618 3.961z"/></g><g><path d="m273.785 162.563c-1.692 0-3.396-.569-4.797-1.738-3.183-2.651-3.612-7.381-.961-10.562l7.081-8.498c2.651-3.183 7.383-3.614 10.562-.961 3.183 2.651 3.612 7.381.961 10.562l-7.081 8.498c-1.483 1.78-3.616 2.699-5.765 2.699z"/></g><g><path d="m430.584 276.833c-3.128 0-6.047-1.972-7.104-5.1l-2.833-8.38c-1.327-3.924.778-8.181 4.702-9.507 3.931-1.329 8.182.778 9.507 4.702l2.833 8.38c1.327 3.924-.778 8.181-4.702 9.507-.797.27-1.606.398-2.403.398z"/></g><g><path d="m153.53 118.847c-1.444 0-2.903-.416-4.189-1.285l-8.026-5.419c-3.434-2.317-4.338-6.979-2.02-10.412 2.318-3.435 6.98-4.339 10.412-2.02l8.026 5.419c3.434 2.317 4.338 6.979 2.02 10.412-1.45 2.147-3.815 3.305-6.223 3.305z"/></g><g><path d="m236.116 210.08c-4.143 0-7.5-3.357-7.5-7.5v-7.081c0-4.143 3.357-7.5 7.5-7.5s7.5 3.357 7.5 7.5v7.081c0 4.143-3.357 7.5-7.5 7.5z"/></g></g><g><path d="m319.168 405.055c-19.643 0-32.95-13.259-43.883-25.688-2.346-2.667-6.06-3.845-9.692-3.061-20.328 4.363-38.65 4.695-54.455.988-2.84-.665-5.773-.057-8.058 1.671-8.784 6.64-20.204 10.221-33.023 10.354-1.495.015-3.027.059-4.59.103-9.302.263-19.848.559-30.045-4.188-5.354-2.493-9.374-6.814-12.92-10.628-1.587-1.705-3.085-3.316-4.427-4.451-10.512-8.89-21.935-19.571-24.41-33.875-1.563-9.025 2.115-19.527 5.478-26.747l.577-1.246c3.443-7.442 8.159-17.635 17.016-22.205 6.557-3.383 14.221-2.882 20.979-2.441 2.453.16 4.758.331 6.942.29 2.046-.02 4.414-.154 6.921-.298 9.343-.534 20.97-1.196 30.54 3.26 17.416 8.108 26.023 24.874 32.723 39.951 1.629 3.666 5.18 6.006 9.084 6.006.067 0 .134-.001.202-.002 4.145-.086 9.103-.351 14.735-.786 13.285-1.028 25.379-8.326 32.352-19.523 1.074-1.725 2.429-5.012 3.739-8.19.343-.831.689-1.674 1.042-2.516 1.602-3.819 5.993-5.618 9.815-4.021 3.82 1.601 5.62 5.994 4.021 9.815-.342.815-.678 1.632-1.01 2.438-1.615 3.918-3.141 7.618-4.874 10.402-9.484 15.23-25.906 25.155-43.929 26.55-5.913.457-11.156.735-15.582.827-10.047.244-19.187-5.646-23.303-14.908-5.853-13.171-12.631-26.524-25.348-32.445-6.15-2.864-15.291-2.343-23.354-1.881-2.69.153-5.23.298-7.634.321-2.734.012-5.441-.152-8.061-.322-5.05-.328-10.269-.67-13.124.804-4.283 2.21-7.75 9.702-10.281 15.173l-.593 1.279c-3.422 7.351-4.988 13.859-4.296 17.856 1.541 8.902 10.195 17.268 19.316 24.981 2.028 1.715 3.907 3.735 5.725 5.688 2.738 2.944 5.57 5.989 8.268 7.245 6.983 3.251 15.273 3.019 23.292 2.792 1.653-.047 3.276-.092 4.857-.108 9.446-.098 18.018-2.697 24.134-7.321 5.857-4.423 13.342-5.993 20.528-4.307 13.63 3.197 29.738 2.845 47.879-1.051 8.942-1.923 18.174 1.077 24.104 7.819 9.166 10.421 19.235 20.595 32.62 20.595 14.027 0 30.465-10.508 39.451-20.887l1.222-1.408c7.848-9.034 16.741-19.273 16.741-30.163 0-9.193-7.618-19.615-13.74-27.989-.539-.737-1.066-1.459-1.576-2.162-4.923-6.792-5.978-15.63-2.82-23.64 3.629-9.204 5.99-19.899 7.02-31.788.699-8.084 5.366-15.416 12.482-19.612 11.973-7.062 19.16-14.586 21.973-23.002 1.076-3.223.614-8.32.167-13.249-.271-3.005-.554-6.112-.554-9.196 0-8.439-1.561-16.773-4.514-24.103-.804-1.993-1.517-3.978-2.205-5.896-1.887-5.255-3.669-10.218-6.515-12.856-4.276-3.967-12.335-6.335-21.558-6.335-10.646 0-22.11 5.713-27.878 13.893-6.075 8.612-6.912 22.054-6.912 35.297 0 3.439-.4 6.938-.787 10.319-.581 5.072-1.181 10.317-.087 13.44 1.192 3.403 4.715 6.394 8.443 9.559 2.086 1.771 4.244 3.604 6.12 5.643 4.672 5.08 7.118 11.78 6.713 18.384-.512 8.333-1.614 16.29-3.277 23.648-2.593 11.477-12.654 19.484-24.472 19.485-.011 0-.021 0-.031 0h-.122c-7.094 0-12.532.882-17.115 2.774-3.825 1.576-8.213-.24-9.795-4.07-1.581-3.828.241-8.214 4.07-9.795 6.458-2.667 13.716-3.909 22.84-3.909h.131.012c4.692 0 8.831-3.275 9.852-7.792 1.485-6.575 2.474-13.729 2.936-21.262.159-2.591-.828-5.187-2.781-7.31-1.249-1.358-2.968-2.817-4.787-4.362-4.612-3.915-10.353-8.789-12.892-16.033-2.231-6.37-1.433-13.354-.66-20.105.355-3.102.69-6.03.69-8.614 0-15.714 1.17-31.914 9.653-43.942 8.539-12.11 24.669-20.247 40.137-20.247 7.699 0 22.062 1.343 31.759 10.337 5.526 5.126 8.02 12.07 10.431 18.785.671 1.867 1.304 3.631 2 5.358 3.665 9.094 5.602 19.367 5.602 29.709 0 2.405.239 5.046.493 7.842.586 6.467 1.192 13.154-.88 19.356-4.008 11.995-13.356 22.191-28.579 31.17-2.992 1.765-4.872 4.675-5.159 7.984-1.153 13.333-3.848 25.444-8.008 35.996-1.27 3.221-.892 6.711 1.011 9.336.499.688 1.014 1.392 1.54 2.112 7.019 9.602 16.631 22.751 16.631 36.842 0 16.494-11.32 29.527-20.417 39.999l-1.205 1.391c-11.235 12.976-31.296 26.069-50.791 26.069z"/></g><g><path d="m456.839 377.168c-2.025 0-4.044-.815-5.523-2.424-2.803-3.049-2.604-7.794.445-10.598l9.32-8.569c20.992-19.301 33.526-45.607 35.293-74.072l.143-2.297c1.161-18.711-2.521-37.53-10.646-54.423l-16.644-34.607c-2.508-5.216-5.452-10.271-8.754-15.027l-30.792-44.365c-2.921-4.208-5.608-8.641-7.988-13.174l-13.732-26.17c-10.839-20.653-28.366-37.632-49.354-47.808l-8.756-4.245c-11.549-5.601-23.878-9.109-36.645-10.428l-41.277-4.264c-11.179-1.154-22.429-.591-33.437 1.673l-44.465 9.15c-5.594 1.151-11.141 2.753-16.485 4.761l-32.356 12.152c-5.607 2.106-11.085 4.693-16.279 7.689-3.586 2.067-8.174.839-10.244-2.75-2.069-3.588-.838-8.174 2.75-10.244 5.901-3.404 12.126-6.344 18.5-8.738l32.356-12.152c6.074-2.281 12.378-4.102 18.735-5.409l44.465-9.15c12.511-2.575 25.297-3.216 38.001-1.901l41.277 4.264c14.511 1.498 28.522 5.485 41.647 11.851l8.756 4.244c23.853 11.565 43.772 30.862 56.091 54.335l13.734 26.17c2.093 3.988 4.457 7.889 7.027 11.592l30.792 44.365c3.753 5.405 7.1 11.152 9.95 17.079l16.643 34.606c9.234 19.199 13.419 40.588 12.099 61.854l-.143 2.297c-2.008 32.351-16.253 62.248-40.111 84.185l-9.32 8.57c-1.44 1.324-3.259 1.978-5.073 1.978z"/></g><g><path d="m225.93 502.611c-.705 0-1.406-.006-2.112-.018l-12.9-.219c-25.052-.428-49.13-8.264-69.631-22.66l-14.987-10.522c-12.827-9.006-23.717-20.199-32.366-33.268l-25.655-38.756c-4.11-6.209-7.683-12.826-10.62-19.667l-23.919-55.718-21.733-45.914c-7.951-16.798-12.102-35.5-12.004-54.084.189-35.788 15.754-69.82 42.702-93.369l10.388-9.077c7.275-6.357 13.685-13.651 19.051-21.681l7.856-11.757c4.864-7.278 10.516-14.064 16.797-20.167 2.972-2.887 7.72-2.817 10.605.152 2.887 2.971 2.818 7.719-.152 10.605-5.526 5.37-10.499 11.34-14.779 17.744l-7.857 11.757c-6.099 9.125-13.383 17.416-21.65 24.641l-10.389 9.077c-23.711 20.721-37.406 50.664-37.572 82.154-.086 16.351 3.566 32.806 10.562 47.586l21.792 46.038c.039.083.076.166.112.25l23.973 55.844c2.585 6.02 5.729 11.842 9.345 17.306l25.655 38.756c7.61 11.499 17.191 21.347 28.478 29.271l14.987 10.523c18.039 12.667 39.225 19.562 61.267 19.938l12.9.219c18.834.311 37.55-4.244 54.124-13.204l31.895-17.244c6.479-3.502 13.308-6.446 20.298-8.75l30.387-10.016c16.921-5.577 32.396-15.308 44.751-28.141l24.71-25.661c2.872-2.983 7.62-3.075 10.604-.2 2.983 2.873 3.073 7.621.2 10.604l-24.71 25.661c-14.042 14.584-31.629 25.644-50.86 31.982l-30.387 10.016c-6.15 2.027-12.158 4.617-17.859 7.699l-31.896 17.244c-18.216 9.849-38.711 15.026-59.401 15.026z"/></g></g></g></svg>