<svg width="93" height="101" viewBox="0 0 93 101" fill="none" xmlns="http://www.w3.org/2000/svg">
<path fill-rule="evenodd" clip-rule="evenodd" d="M75.1882 40.8955V20.4478H17.2529V40.8955C17.2529 43.7188 30.2222 46.0074 46.2206 46.0074C62.219 46.0074 75.1882 43.7188 75.1882 40.8955Z" fill="#0A3586"/>
<path fill-rule="evenodd" clip-rule="evenodd" d="M17.2529 40.8955H75.1882V73.2711H17.2529V40.8955Z" fill="#FFDE95"/>
<path fill-rule="evenodd" clip-rule="evenodd" d="M83.708 17.0398H87.116V42.5995H83.708V17.0398Z" fill="#ED5144"/>
<path d="M85.4117 49.4154C88.235 49.4154 90.5237 47.1267 90.5237 44.3035C90.5237 41.4802 88.235 39.1915 85.4117 39.1915C82.5885 39.1915 80.2998 41.4802 80.2998 44.3035C80.2998 47.1267 82.5885 49.4154 85.4117 49.4154Z" fill="#D3D824"/>
<path fill-rule="evenodd" clip-rule="evenodd" d="M0 17.7163L46.6141 0L92.4409 17.7163L46.6141 32.4233L0 17.7163Z" fill="#325AA6"/>
<path fill-rule="evenodd" clip-rule="evenodd" d="M12.1406 49.4154L46.2202 57.2793V100.535L12.1406 92.6709V49.4154Z" fill="#E77CFA"/>
<path d="M13.8447 69.8632H10.4368C8.5546 69.8632 7.02881 71.389 7.02881 73.2711V81.791C7.02881 83.6732 8.5546 85.199 10.4368 85.199H13.8447C15.7269 85.199 17.2527 83.6732 17.2527 81.791V73.2711C17.2527 71.389 15.7269 69.8632 13.8447 69.8632Z" fill="#FFDD95"/>
<path fill-rule="evenodd" clip-rule="evenodd" d="M80.2998 49.4154L46.2202 57.2793V100.535L80.2998 92.6709V49.4154Z" fill="#E552FF"/>
<path d="M82.0039 69.8632H78.5959C76.7138 69.8632 75.188 71.389 75.188 73.2711V81.791C75.188 83.6732 76.7138 85.199 78.5959 85.199H82.0039C83.8861 85.199 85.4119 83.6732 85.4119 81.791V73.2711C85.4119 71.389 83.8861 69.8632 82.0039 69.8632Z" fill="#FFDD95"/>
</svg>
