<svg height="512" viewBox="0 0 58 48" width="512" xmlns="http://www.w3.org/2000/svg"><g id="010---Sad-Brain" fill="none" transform="translate(-1)"><path id="Path" d="m54.36 29.58v.01c.4227187.9118137.6411439 1.9049657.64 2.91 0 4.69-4.7 8.5-10.5 8.5-.8397695.0040374-1.6776591-.0797515-2.5-.25-3.3345451-.5076889-6.178493-2.6840256-7.54-5.77l10.54-10.98z" fill="#d75da6"/><path id="Path" d="m42 29v16.94c0 1.1377066-.9222934 2.06-2.06 2.06h-.01c-.5922619-.0043144-1.155164-.2585283-1.55-.7l-5.78-6.62c-.3827839-.4323727-.9325317-.6799412-1.51-.68h-.09c-2.209139 0-4-1.790861-4-4v-7z" fill="#ed75b7"/><path id="Path" d="m55.89 17.18c-.6048545-.4048144-1.2696557-.7119053-1.97-.91.0012038-.0671004.0078927-.13399.02-.2.0402006-.3552465.0602327-.7124862.06-1.07.0015094-5.85156655-4.5858044-10.67638274-10.43-10.97-2.0420001-1.94246459-4.7516806-3.02705267-7.57-3.03-1.3112409.00531187-2.6112278.24228864-3.84.7-.05.02-.11.04-.16.06-.6833623-.55073814-1.4539823-.98336689-2.28-1.28h-.01c-2.0218599-.73966794-4.2582429-.62044235-6.19.33-.6749937.31886861-1.2985465.73681751-1.85 1.24-2.7900223-1.73707959-6.4154285-1.28233935-8.69 1.09-.5427948.54940657-.9860477 1.18890896-1.31 1.89-.22-.02-.44-.03-.67-.03-1.85790001-.00452856-3.6410098.731515-4.9547474 2.0452526s-2.04978116 3.0968474-2.0452526 4.9547474c0 .08.01.17.01.25-3.04221464 2.1020494-3.91528803 6.2129527-1.99 9.37-.01.13-.02.25-.02.38-.00141202 1.0438245.18139108 2.0797087.54 3.06 1.18539382 3.2871965 4.16949875 5.5886631 7.65 5.9.2690537.0282872.5394684.041641.81.04.4048155-.0047383.8089381-.034797 1.21-.09.7054684 3.2846735 3.1863297 5.9003078 6.4291275 6.77839 3.2427978.8780823 6.7044636-.1284391 8.9708725-2.60839.4655588-.4979005.8716209-1.0482657 1.21-1.64.0485824.0192872.0954208.0427064.14.07 5.8633733 3.0835662 13.1082624 1.2507818 16.8-4.25.3641099-.5301202.6851381-1.0885755.96-1.67 1.7854331 2.0613828 4.6055062 2.8981977 7.2263302 2.1443062 2.620824-.7538914 4.565233-2.9612303 4.9824742-5.656222.4172412-2.6949918-.7686513-5.386967-3.0388044-6.8980842z" fill="#f289ca"/><path id="Path" d="m25 14.5c.0024163 1.0553352-.6581223 1.9985233-1.6506962 2.3570416-.9925738.3585182-2.1033735.0551385-2.7759054-.7581505-.6725318-.8132891-.7619264-1.9612977-.2233984-2.8688911.3412036-.2412016.6387984-.5387964.88-.88.772375-.4555224 1.7295568-.4624973 2.5084881-.0182792.7789314.4442181 1.2602955 1.271584 1.2615119 2.1682792z" fill="#fff"/><path id="Path" d="m31 14.5c-.0024163 1.0553352.6581223 1.9985233 1.6506962 2.3570416.9925738.3585182 2.1033735.0551385 2.7759054-.7581505.6725318-.8132891.7619264-1.9612977.2233984-2.8688911-.3412036-.2412016-.6387984-.5387964-.88-.88-.772375-.4555224-1.7295568-.4624973-2.5084881-.0182792-.7789314.4442181-1.2602955 1.271584-1.2615119 2.1682792z" fill="#fff"/><path id="Path" d="m22 24c.0019788.053533-.001371.10713-.01.16-.1040342 1.0541921-1.0120054 1.8444203-2.0704677 1.8019757s-1.9002431-.9028383-1.9195323-1.9619757c0-2 2-4 2-4 .6205026.6484362 1.1396731 1.3867371 1.54 2.19.2808476.5635544.4377007 1.1807373.46 1.81z" fill="#0970de"/><path id="Path" d="m22 38c0 1.1045695-.8954305 2-2 2s-2-.8954305-2-2c0-2 2-4 2-4s2 2 2 4z" fill="#0970de"/><g fill="#ed75b7"><path id="Path" d="m12.21 30.91c-.4010619.055203-.8051845.0852617-1.21.09-.2705316.001641-.5409463-.0117128-.81-.04-.1722289-.8619795-.22939384-1.7429916-.17-2.62.0232223-.3572656.2352794-.6750037.5562916-.8335254.3210123-.1585218.7022101-.1337439 1.0000001.065.2977899.1987438.4669306.5412598.4437083.8985254z"/><path id="Path" d="m28.82 33.44c-.3383791.5917343-.7444412 1.1420995-1.21 1.64-1.123049-.5008154-2.1699915-1.1572585-3.11-1.95-.4252593-.3534622-.4834622-.9847407-.13-1.41s.9847407-.4834622 1.41-.13c.9143972.7662251 1.9392926 1.3899278 3.04 1.85z"/><path id="Path" d="m46.72 27.59c-.2748619.5814245-.5958901 1.1398798-.96 1.67-.1661643-.0374388-.3185612-.1205644-.44-.24-.9634743-.954211-1.6747802-2.1328483-2.07-3.43-.1018207-.342975-.0129319-.7142176.2331828-.9738844.2461146-.2596668.6120646-.3683082.96-.285.3479353.0833082.6249965.3459094.7268172.6888844.2933596.9729222.8263221 1.8566084 1.55 2.57z"/><path id="Path" d="m47.62 8.06c-.1301389.06603218-.2740675.1003009-.42.1-.3928994-.00081979-.7489117-.23164096-.91-.59-.6287095-1.36965826-1.5584827-2.57973072-2.72-3.54 1.1535073.05930952 2.2906135.29887789 3.37.71.4527929.62789159.8445722 1.29759985 1.17 2 .2265995.49991171.0079098 1.08903494-.49 1.32z"/><path id="Path" d="m32 1.76c-.9669853.27422454-1.887264.69222659-2.73 1.24-.1596624.10674765-.3479565.16253849-.54.16-.4385565-.00338534-.8237305-.292132-.9499631-.71214224-.1262326-.42001025.0359373-.87325915.3999631-1.11785776.4875538-.32197505.9990494-.60613924 1.53-.85h.01c.8260177.29663311 1.5966377.72926186 2.28 1.28z"/><path id="Path" d="m55.89 17.18c-.0868138 1.1866522-.3531786 2.3532628-.79 3.46-.1516273.380721-.5201962.6303967-.93.63-.1234767.001009-.2458982-.0227952-.36-.07-.247384-.0945446-.4467517-.2839922-.5537883-.5262331-.1070367-.2422409-.112873-.5172023-.0162117-.7637669.4511375-1.1604651.6817517-2.3949292.68-3.64.7003443.1980947 1.3651455.5051856 1.97.91z"/><path id="Path" d="m5.07 25.29c-.16695016.3505545-.52173063.5727797-.91.57-.14913491.0003415-.29631953-.0338875-.43-.1-.41551042-.1997077-.81356785-.4338592-1.19-.7-.35860892-.9802913-.54141202-2.0161755-.54-3.06 0-.13.01-.25.02-.38.60421306 1.0163377 1.49948045 1.8280004 2.57 2.33.49799619.2416177.71131618.837136.48 1.34z"/><path id="Path" d="m7.43 10.1c.03998174.2641226-.02737414.5332626-.18705133.7474179-.15967718.2141553-.3984004.3555214-.66294867.3925821-.92325769.1333458-1.80298873.4790767-2.57 1.01 0-.08-.01-.17-.01-.25-.00248842-.7473902.11569872-1.4902808.35-2.2.62355533-.26459565 1.27916176-.4461482 1.95-.54.26155587-.0405733.52845443.02549752.74087652.18340421s.35260266.39444336.38912348.65659579z"/><path id="Path" d="m15.57 5.14c-.1654027.34728378-.5153406.5689111-.9.57-.1492607.00146818-.2967038-.03282089-.43-.1-.8031154-.38135214-1.6809424-.57946095-2.57-.58.3239523-.70109104.7672052-1.34059343 1.31-1.89.7338407.12067928 1.4473384.34280592 2.12.66.4959153.24372119.7050243.83990447.47 1.34z"/><path id="Path" d="m25.42 4.29c-.1711727.11625718-.3730829.17891896-.58.18-.3267627-.00239194-.6322202-.16257084-.82-.43-.5952057-.85799331-1.405664-1.54429623-2.35-1.99.5514535-.50318249 1.1750063-.92113139 1.85-1.24.8424962.55082683 1.5694127 1.26075925 2.14 2.09.316067.45044848.2088148 1.07161743-.24 1.39z"/></g><path id="Path" d="m36.64 25.77c-.180942.1472668-.4067085.2284016-.64.23-.2977435.0018972-.580529-.1303142-.77-.36-1.7384292-2.240743-4.3946471-3.5780367-7.23-3.64-2.0004372.0226654-3.9360661.7124531-5.5 1.96-.1450876.118042-.3233478.1879479-.51.2.008629-.05287.0119788-.106467.01-.16-.0222993-.6292627-.1791524-1.2464456-.46-1.81 1.8602099-1.4086942 4.1266265-2.1770304 6.46-2.19 3.4303164.0602626 6.6512564 1.6615509 8.77 4.36.3485403.4267743.2906973 1.0541483-.13 1.41z" fill="#d75da6"/><path id="Path" d="m27 26.214c-.474884.0016304-.8854192-.3309514-.9823712-.795836-.096952-.4648847.1464223-.9338397.5823712-1.122164.8895359-.3929531 1.9034641-.3929531 2.793 0 .3357426.1363657.5714404.4436967.6160779.8033162s-.1087708.715248-.400986.9295585-.6775063.253764-1.0070919.1031253c-.3833008-.1750133-.8236992-.1750133-1.207 0-.1241657.0545484-.2583813.0824816-.394.082z" fill="#d75da6"/><path id="Path" d="m18 15c-.5522847 0-1-.4477153-1-1s.4477153-1 1-1c1.6568542 0 3-1.3431458 3-3 0-.55228475.4477153-1 1-1s1 .44771525 1 1c-.0033061 2.7600532-2.2399468 4.9966939-5 5z" fill="#d75da6"/><path id="Path" d="m38 15c-2.7600532-.0033061-4.9966939-2.2399468-5-5 0-.55228475.4477153-1 1-1s1 .44771525 1 1c0 1.6568542 1.3431458 3 3 3 .5522847 0 1 .4477153 1 1s-.4477153 1-1 1z" fill="#d75da6"/><circle id="Oval" cx="23" cy="15" fill="#383838" r="1"/><circle id="Oval" cx="33" cy="15" fill="#383838" r="1"/></g></svg>