<svg width="79" height="79" viewBox="0 0 79 79" fill="none" xmlns="http://www.w3.org/2000/svg">
<path d="M9.875 11.85H27.65C30.7928 11.85 33.8069 13.1447 36.0292 15.4493C38.2515 17.7539 39.5 20.8796 39.5 24.1388V67.15C39.5 64.7055 38.5637 62.3613 36.8969 60.6328C35.2302 58.9043 32.9696 57.9333 30.6125 57.9333H9.875V11.85Z" stroke="#00A199" stroke-width="2" stroke-linecap="round" stroke-linejoin="round"/>
<path d="M69.125 11.85H51.35C48.2072 11.85 45.1931 13.1447 42.9708 15.4493C40.7485 17.7539 39.5 20.8796 39.5 24.1388V67.15C39.5 64.7055 40.4363 62.3613 42.1031 60.6328C43.7698 58.9043 46.0304 57.9333 48.3875 57.9333H69.125V11.85Z" stroke="#00A199" stroke-width="2" stroke-linecap="round" stroke-linejoin="round"/>
<g clip-path="url(#clip0_103_57)">
<path d="M25.8182 15.7375C25.7544 15.8013 25.7838 15.9339 25.887 16.0272C25.9852 16.1156 26.0785 16.1205 27.2276 16.1205C28.1116 16.1156 28.4996 16.096 28.6076 16.0518C28.7451 15.9929 28.75 15.9879 28.6616 15.9388C28.6076 15.9094 28.0723 15.8652 27.4634 15.8455C26.8544 15.821 26.2798 15.7817 26.1816 15.7522C25.9754 15.6933 25.8624 15.6884 25.8182 15.7375Z" fill="#00A199"/>
<path d="M38.4927 5.76848C37.1275 6.01403 36.0176 6.98149 35.6247 8.27307C35.4627 8.80345 35.4578 9.62358 35.6198 10.1392C35.7868 10.6647 36.0372 11.1214 36.3663 11.4799L36.6511 11.7893L36.6855 12.7273L36.7248 13.6702L35.4774 13.6849C34.3823 13.6997 34.176 13.6898 33.788 13.6015C33.4246 13.5229 33.1594 13.5081 32.2656 13.5081C31.0232 13.5081 30.4879 13.5818 29.3436 13.9256C28.2779 14.2399 27.1828 14.8292 27.1828 15.0797C27.1828 15.2172 27.5167 15.3203 28.4105 15.4676C29.0391 15.5707 29.3584 15.669 29.4664 15.7868C29.5499 15.8752 29.5499 15.89 29.4713 16.0127C29.378 16.1502 28.7248 16.5873 28.4744 16.6806C28.386 16.715 28.3123 16.7543 28.3123 16.7739C28.3123 16.8279 28.8869 17.0882 29.1963 17.1766C30.0066 17.4074 31.475 17.4124 32.9041 17.1864C33.6407 17.0735 35.0894 16.9163 36.2779 16.8279L36.8034 16.7887L36.8279 16.99C36.8426 17.0981 36.877 17.9378 36.9065 18.8562C36.936 19.7745 37.0145 22.1367 37.0833 24.106C37.1864 27.0526 37.1962 27.6959 37.1422 27.7254C37.1078 27.7499 36.99 27.7696 36.8819 27.7696C36.327 27.7696 34.6818 28.074 33.8077 28.3343C32.3933 28.7517 31.4897 29.2969 30.3602 30.4067C28.9802 31.7622 28.3123 33.206 28.3074 34.8659C28.2976 36.624 29.0539 38.2937 30.5075 39.7179C31.0723 40.2728 31.5977 40.6461 32.2902 40.9849C34.0729 41.8591 35.6296 42.3109 37.1127 42.3895L37.6824 42.4189L37.7119 42.8658C37.7266 43.1114 37.7855 44.6141 37.8396 46.2102C37.8936 47.8013 37.9476 49.3237 37.9673 49.584L37.9967 50.0604L37.8347 50.0849C37.7414 50.0997 37.5154 50.1389 37.3239 50.1635C35.9734 50.3648 34.8193 50.9542 34.0532 51.8381C33.2233 52.7958 32.9826 53.1886 32.7125 53.994C32.138 55.7227 32.3393 57.8639 33.2527 59.6907C33.7438 60.6828 34.5247 61.6158 35.2761 62.1168C35.9931 62.5931 37.2061 63.0449 38.1244 63.1775L38.5124 63.2365L38.5467 64.0271C38.699 67.9215 38.7285 68.2996 38.8463 68.4322C38.9544 68.555 39.2195 68.6041 39.3571 68.5354C39.6321 68.3831 39.6468 68.2702 39.8825 63.9043L39.912 63.2807L40.1183 63.2561C41.3165 63.1186 42.2152 62.932 43.1974 62.6029L43.7573 62.4212L43.0206 62.3819C42.1465 62.3427 41.2576 62.2346 40.516 62.0824L39.9758 61.9694L39.9906 61.6011C39.9955 61.3998 40.0348 60.3635 40.0741 59.2979C40.2017 55.9044 40.2508 54.5342 40.2852 53.5521L40.3196 52.5944L40.7861 52.56C42.0237 52.4618 43.4724 51.9855 44.3613 51.3814C44.9359 50.9885 45.8542 50.0407 46.2766 49.4121C47.966 46.8781 47.7499 44.2998 45.6725 42.2372C44.5676 41.1323 43.168 40.3907 41.3558 39.9487C41.0366 39.8652 40.7616 39.7916 40.7518 39.7817C40.737 39.767 40.7518 38.9665 40.7812 37.9991C40.9089 33.8984 40.9335 33.1863 40.9629 32.0126L40.9973 30.78L41.7241 30.7505C43.6001 30.667 45.039 30.2692 47.2637 29.2134C49.3066 28.2459 50.8683 25.9574 51.2023 23.4626C51.2808 22.8439 51.2367 21.6456 51.1041 21.0563C50.721 19.308 49.6995 17.6579 48.1673 16.3025C47.5878 15.7917 47.3079 15.6051 46.6793 15.2908C45.6038 14.7604 43.6492 14.2546 41.7929 14.0287L41.4982 13.9943L41.5179 12.9385L41.5375 11.8826L41.788 11.6076C42.4608 10.8857 42.7653 10.1343 42.7653 9.20615C42.7653 8.32709 42.451 7.54625 41.8518 6.91273C41.3362 6.36762 40.8844 6.09261 40.1723 5.8667C39.7794 5.74393 38.9102 5.69482 38.4927 5.76848ZM30.4044 14.7703C30.5664 14.9127 30.5272 15.0011 30.3013 15.0011C30.1146 15.0011 29.8445 14.8095 29.9035 14.7162C29.9673 14.6131 30.262 14.6475 30.4044 14.7703ZM43.5019 17.1815C45.4123 17.6235 47.1164 19.1459 47.7351 20.963C48.5553 23.3742 47.4896 25.6284 45.0145 26.7186C44.047 27.1409 42.6867 27.47 41.7143 27.5093L41.0906 27.5387L41.1152 27.0034C41.1397 26.2717 41.3165 19.8973 41.3558 18.2914C41.3705 17.5744 41.3902 16.9655 41.4 16.936C41.4197 16.8771 42.9519 17.0539 43.5019 17.1815ZM37.319 31.3153C37.3337 31.5412 37.3927 33.1127 37.4467 34.8168C37.5007 36.516 37.5596 38.2593 37.5744 38.6817C37.6088 39.4282 37.6038 39.4576 37.5154 39.4576C37.3485 39.4576 36.3024 39.3201 36.0716 39.2661C35.3104 39.0942 34.0827 38.5589 33.4099 38.1022C32.5505 37.5178 32.0152 36.9383 31.6518 36.1918C31.1803 35.2342 31.195 34.2078 31.6861 33.3238C32.0594 32.6559 32.8991 31.9439 33.7586 31.5706C34.6376 31.1925 35.8654 30.942 36.9654 30.9175L37.2895 30.9126L37.319 31.3153ZM41.125 42.8707C42.4706 43.2096 43.6443 44.015 44.16 44.9382C44.4939 45.5423 44.5627 46.4164 44.3269 47.1187C43.9242 48.3072 42.6867 49.417 41.4246 49.7166C41.0464 49.805 40.4276 49.918 40.4129 49.8983C40.408 49.8983 40.4227 49.3827 40.4473 48.7639C40.4669 48.1402 40.5111 46.8486 40.5357 45.891C40.6241 42.9935 40.6388 42.743 40.7321 42.7676C40.7763 42.7823 40.9531 42.8265 41.125 42.8707ZM38.0851 52.8793C38.0851 53.0315 38.2717 57.7215 38.3798 60.226C38.4043 60.8596 38.4191 61.385 38.4092 61.3998C38.3945 61.4096 38.1833 61.3114 37.9378 61.1837C36.4056 60.393 35.3694 59.1947 34.9274 57.7018C34.839 57.4121 34.8242 57.2254 34.8242 56.5232C34.8193 55.7031 34.8242 55.6785 34.9814 55.2218C35.0698 54.9664 35.2368 54.5981 35.3448 54.4115C35.6149 53.9548 36.1993 53.3753 36.6364 53.1297C37.0194 52.9185 37.6186 52.7221 37.9034 52.7221C38.0753 52.7172 38.0851 52.7221 38.0851 52.8793Z" fill="#00A199"/>
</g>
<defs>
<clipPath id="clip0_103_57">
<rect width="31.4301" height="62.8602" fill="white" transform="translate(22.9355 5.73389)"/>
</clipPath>
</defs>
</svg>
