<svg width="60" height="60" viewBox="0 0 60 60" fill="none" xmlns="http://www.w3.org/2000/svg">
<path d="M7.5 9H21C23.387 9 25.6762 9.9833 27.364 11.7336C29.0518 13.484 30 15.8579 30 18.3333V51C30 49.1434 29.2888 47.363 28.0229 46.0502C26.7571 44.7374 25.0402 44 23.25 44H7.5V9Z" stroke="#DCE9E2" stroke-width="2" stroke-linecap="round" stroke-linejoin="round"/>
<path d="M52.5 9H39C36.613 9 34.3239 9.9833 32.6361 11.7336C30.9482 13.484 30 15.8579 30 18.3333V51C30 49.1434 30.7112 47.363 31.9771 46.0502C33.2429 44.7374 34.9598 44 36.75 44H52.5V9Z" stroke="#DCE9E2" stroke-width="2" stroke-linecap="round" stroke-linejoin="round"/>
<g clip-path="url(#clip0_1941_95)">
<path d="M19.609 11.9526C19.5605 12.0011 19.5829 12.1018 19.6612 12.1727C19.7358 12.2398 19.8067 12.2435 20.6795 12.2435C21.3508 12.2398 21.6455 12.2249 21.7276 12.1913C21.832 12.1466 21.8357 12.1428 21.7686 12.1055C21.7276 12.0831 21.321 12.0496 20.8585 12.0347C20.396 12.016 19.9596 11.9862 19.885 11.9638C19.7284 11.919 19.6426 11.9153 19.609 11.9526Z" fill="#DCE9E2"/>
<path d="M29.2348 4.38111C28.1979 4.56761 27.355 5.30239 27.0566 6.28333C26.9335 6.68616 26.9298 7.30904 27.0529 7.70067C27.1797 8.09977 27.3699 8.44664 27.6198 8.71892L27.8361 8.9539L27.8623 9.6663L27.8921 10.3824L26.9447 10.3936C26.113 10.4048 25.9563 10.3973 25.6617 10.3302C25.3856 10.2705 25.1842 10.2593 24.5054 10.2593C23.5618 10.2593 23.1552 10.3153 22.2861 10.5764C21.4768 10.8151 20.645 11.2627 20.645 11.4529C20.645 11.5573 20.8986 11.6357 21.5775 11.7475C22.0549 11.8259 22.2973 11.9005 22.3794 11.99C22.4428 12.0571 22.4428 12.0683 22.3831 12.1616C22.3123 12.266 21.8162 12.5979 21.626 12.6688C21.5588 12.6949 21.5029 12.7248 21.5029 12.7397C21.5029 12.7807 21.9393 12.9784 22.1743 13.0455C22.7897 13.2208 23.9049 13.2246 24.9903 13.053C25.5498 12.9672 26.6501 12.8478 27.5527 12.7807L27.9518 12.7509L27.9704 12.9038C27.9816 12.9859 28.0077 13.6237 28.0301 14.3211C28.0525 15.0186 28.1122 16.8127 28.1644 18.3083C28.2427 20.5462 28.2502 21.0348 28.2091 21.0572C28.183 21.0759 28.0935 21.0908 28.0114 21.0908C27.59 21.0908 26.3405 21.322 25.6766 21.5197C24.6024 21.8368 23.9161 22.2508 23.0582 23.0937C22.0101 24.1231 21.5029 25.2197 21.4992 26.4804C21.4917 27.8157 22.0661 29.0838 23.1701 30.1655C23.5991 30.587 23.9981 30.8704 24.5241 31.1278C25.878 31.7917 27.0603 32.1348 28.1868 32.1945L28.6194 32.2169L28.6418 32.5563C28.653 32.7428 28.6977 33.8841 28.7388 35.0963C28.7798 36.3048 28.8208 37.461 28.8357 37.6587L28.8581 38.0205L28.735 38.0392C28.6642 38.0504 28.4926 38.0802 28.3471 38.0989C27.3214 38.2518 26.4449 38.6994 25.8631 39.3707C25.2327 40.098 25.05 40.3964 24.8448 41.0081C24.4084 42.321 24.5613 43.9472 25.2551 45.3347C25.6281 46.0882 26.2211 46.7968 26.7918 47.1773C27.3363 47.5391 28.2576 47.8822 28.9551 47.9829L29.2498 48.0277L29.2759 48.6282C29.3915 51.5859 29.4139 51.8731 29.5034 51.9738C29.5854 52.0671 29.7869 52.1044 29.8913 52.0522C30.1002 51.9365 30.1113 51.8508 30.2904 48.5349L30.3128 48.0612L30.4694 48.0426C31.3795 47.9382 32.0621 47.7964 32.808 47.5465L33.2332 47.4085L32.6737 47.3787C32.0098 47.3488 31.3347 47.2668 30.7715 47.1512L30.3612 47.0654L30.3724 46.7856C30.3762 46.6327 30.406 45.8457 30.4358 45.0363C30.5328 42.459 30.5701 41.4184 30.5962 40.6724L30.6223 39.9451L30.9767 39.919C31.9166 39.8444 33.0169 39.4826 33.692 39.0238C34.1284 38.7255 34.8259 38.0056 35.1466 37.5282C36.4297 35.6036 36.2656 33.6454 34.6879 32.0789C33.8486 31.2397 32.7856 30.6765 31.4093 30.3408C31.1669 30.2774 30.958 30.2214 30.9506 30.214C30.9394 30.2028 30.9506 29.5948 30.9729 28.86C31.0699 25.7456 31.0886 25.2048 31.1109 24.3134L31.1371 23.3772L31.6891 23.3548C33.1139 23.2914 34.2067 22.9893 35.8963 22.1874C37.4479 21.4526 38.634 19.7145 38.8877 17.8197C38.9473 17.3498 38.9138 16.4397 38.8131 15.9921C38.5221 14.6643 37.7463 13.4111 36.5826 12.3816C36.1425 11.9937 35.9299 11.852 35.4525 11.6133C34.6356 11.2104 33.1512 10.8263 31.7413 10.6547L31.5175 10.6286L31.5324 9.82668L31.5473 9.02477L31.7376 8.81589C32.2485 8.26761 32.4798 7.69694 32.4798 6.992C32.4798 6.32436 32.2411 5.73132 31.786 5.25017C31.3944 4.83615 31.0513 4.62729 30.5104 4.45571C30.2121 4.36247 29.5519 4.32517 29.2348 4.38111ZM23.0918 11.2179C23.2149 11.3261 23.185 11.3932 23.0135 11.3932C22.8717 11.3932 22.6666 11.2477 22.7113 11.1769C22.7598 11.0986 22.9836 11.1247 23.0918 11.2179ZM33.0393 13.0493C34.4902 13.3849 35.7844 14.5412 36.2544 15.9212C36.8773 17.7526 36.0679 19.4646 34.1881 20.2926C33.4533 20.6134 32.4201 20.8633 31.6816 20.8931L31.2079 20.9155L31.2266 20.5089C31.2452 19.9532 31.3795 15.1119 31.4093 13.8922C31.4205 13.3476 31.4354 12.8851 31.4429 12.8628C31.4578 12.818 32.6215 12.9523 33.0393 13.0493ZM28.3434 23.7837C28.3546 23.9553 28.3994 25.1489 28.4404 26.4431C28.4814 27.7336 28.5262 29.0577 28.5374 29.3785C28.5635 29.9454 28.5597 29.9678 28.4926 29.9678C28.3658 29.9678 27.5713 29.8634 27.396 29.8223C26.8179 29.6918 25.8854 29.2852 25.3745 28.9384C24.7217 28.4945 24.3152 28.0544 24.0392 27.4875C23.6811 26.7601 23.6923 25.9806 24.0653 25.3092C24.3487 24.802 24.9866 24.2612 25.6393 23.9777C26.3069 23.6905 27.2394 23.5003 28.0749 23.4816L28.321 23.4779L28.3434 23.7837ZM31.234 32.56C32.256 32.8174 33.1474 33.4291 33.5391 34.1303C33.7927 34.5891 33.8449 35.253 33.6659 35.7864C33.36 36.689 32.4201 37.5319 31.4615 37.7594C31.1744 37.8266 30.7044 37.9124 30.6932 37.8974C30.6895 37.8974 30.7007 37.5058 30.7193 37.0358C30.7342 36.5622 30.7678 35.5812 30.7864 34.8539C30.8536 32.6533 30.8648 32.4631 30.9356 32.4817C30.9692 32.4929 31.1035 32.5265 31.234 32.56ZM28.9253 40.1615C28.9253 40.2771 29.067 43.8391 29.149 45.7413C29.1677 46.2224 29.1789 46.6215 29.1714 46.6327C29.1602 46.6402 28.9999 46.5656 28.8134 46.4686C27.6497 45.8681 26.8627 44.958 26.527 43.8242C26.4598 43.6041 26.4486 43.4624 26.4486 42.929C26.4449 42.3061 26.4486 42.2875 26.568 41.9406C26.6351 41.7466 26.762 41.4669 26.844 41.3252C27.0492 40.9783 27.493 40.5382 27.825 40.3517C28.1159 40.1913 28.5709 40.0421 28.7873 40.0421C28.9178 40.0384 28.9253 40.0421 28.9253 40.1615Z" fill="#DCE9E2"/>
</g>
<defs>
<clipPath id="clip0_1941_95">
<rect width="23.871" height="47.7419" fill="white" transform="translate(17.4194 4.35486)"/>
</clipPath>
</defs>
</svg>
