<svg id="Capa_1" enable-background="new 0 0 512.211 512.211" height="512" viewBox="0 0 512.211 512.211" width="512" xmlns="http://www.w3.org/2000/svg"><g><g><path d="m326.977 327.786c-13.334 12.985-31.413 20.976-43.148 35.069-10.439 12.538-16.16 29.959-25.333 43.373-14.893 21.78-40.621 31.282-64.056 36.92-14.061 3.383-25.758-.847-40.038-3.55-19.096-3.615-40.438-8.143-55.448-23.074-.621-.618-1.241-1.237-1.859-1.858-11.304-11.364-19.294-24.633-24.077-38.696-6.627-19.483-8.433-41.064-3.036-60.637 6.114-22.17 21.092-41.927 41.855-56.125 13.538-9.257 24.691-23.144 37.336-33.691 13.968-11.651 29.329-20.103 42.208-33.327 12.942-12.603 17.329-30.143 28.763-43.79 10.827-12.921 28.78-21.897 38.255-35.754 13.877-20.294 36.356-28.423 57.942-34.731 19.499-5.698 40.634-14.188 60.194-7.874 14.616 4.718 25.556 16.161 37.321 27.864.621.618 1.241 1.237 1.858 1.858 20.836 20.947 30.414 48.368 29.402 75.3-.584 15.563-.043 32.742-7.57 46.635-7.392 13.645-22.732 24.057-36.573 33.522-13.337 9.12-26.241 18.866-38.712 29.238-14.169 11.785-22.234 29.927-35.284 43.328z" fill="#fe73c5"/><path d="m221.188 395.284c-27.839 27.842-73.227 27.875-101.177.072-.591-.587-1.16-1.156-1.728-1.728-27.82-27.967-27.787-73.357.055-101.199 3.141-3.141 6.624-6.026 10.352-8.576 27.947-19.109 54.443-41.124 78.752-65.434 1.693-1.693 3.376-3.398 5.051-5.116 1.717-1.674 3.425-3.36 5.116-5.051 24.311-24.311 46.325-50.807 65.435-78.754 2.549-3.727 5.434-7.21 8.575-10.351 27.842-27.842 73.232-27.875 101.18-.074.582.579 1.169 1.166 1.753 1.753 27.795 27.942 27.762 73.332-.08 101.174-3.141 3.141-6.624 6.026-10.351 8.575-27.947 19.11-54.443 41.125-78.752 65.433-1.693 1.693-3.376 3.398-5.051 5.116-1.717 1.674-3.425 3.361-5.116 5.051-24.311 24.311-46.327 50.808-65.437 78.755-2.548 3.727-5.434 7.21-8.577 10.354z" fill="#ffc344"/><path d="m380.9 208.427c-2.303 2.302-4.864 4.424-7.615 6.304-28.925 19.779-56.342 42.558-81.488 67.704-1.693 1.693-3.376 3.398-5.052 5.115-1.716 1.675-3.425 3.361-5.115 5.052-25.149 25.149-47.929 52.566-67.708 81.494-1.88 2.749-4.002 5.311-6.306 7.615-20.376 20.378-53.603 20.395-74.069.036-.571-.566-1.106-1.102-1.639-1.639-20.385-20.493-20.376-53.729.002-74.108 2.302-2.302 4.864-4.424 7.616-6.305 28.924-19.778 56.342-42.558 81.489-67.705 1.693-1.693 3.377-3.397 5.052-5.115 1.717-1.674 3.424-3.361 5.115-5.052 25.148-25.148 47.928-52.565 67.707-81.492 1.88-2.749 4.001-5.31 6.304-7.613 20.379-20.379 53.607-20.396 74.072-.038.557.554 1.121 1.118 1.682 1.682 20.352 20.461 20.332 53.686-.047 74.065z" fill="#ffe177"/><g><path d="m188.579 370.159s2.835-12.802 2.7-13.208-7.173-9.744-7.173-9.744l-6.226-9.609-16.579-6.97-10.061-1.713-12.337 5.57-4.902 9.567c-1.326 10.045 1.743 20.318 11.616 23.575 12.657 4.175 31.231 9.383 41.704 3.344.44-.253.857-.527 1.258-.812z" fill="#fe73c5"/><path d="m142.273 325.923c-4.334 4.334-7.356 11.179-8.273 18.133.49-.602 1-1.171 1.531-1.702 10.593-10.593 29.264-9.095 41.704 3.344 6.68 6.68 10.887 16.053 11.346 24.46 11.442-8.14 7.415-28.873-4.603-40.891-12.441-12.439-31.113-13.937-41.705-3.344z" fill="#fe4fb7"/></g></g><g><path d="m195.053 292.604c2.93 2.928 7.678 2.928 10.607 0 2.37-2.372 6.327-1.617 14.17.533 4.178 1.146 9.122 2.501 14.118 2.501 5.07 0 10.195-1.396 14.626-5.827 8.796-8.796 5.634-20.325 3.326-28.744-2.151-7.845-2.905-11.8-.534-14.171 2.372-2.37 6.326-1.617 14.172.532 8.418 2.309 19.948 5.47 28.745-3.326 8.795-8.796 5.634-20.325 3.326-28.743-2.151-7.845-2.904-11.801-.532-14.173 2.372-2.371 6.327-1.618 14.172.532 8.417 2.306 19.947 5.47 28.745-3.328 8.796-8.797 5.636-20.327 3.328-28.745-2.15-7.845-2.904-11.801-.531-14.173 2.929-2.93 2.929-7.678 0-10.607-2.93-2.928-7.678-2.928-10.607 0-8.796 8.797-5.636 20.327-3.328 28.745 2.15 7.846 2.904 11.801.531 14.173-2.371 2.372-6.326 1.621-14.173-.531-8.419-2.307-19.949-5.468-28.744 3.328-8.796 8.797-5.635 20.326-3.326 28.745 2.15 7.844 2.904 11.799.532 14.17-2.372 2.373-6.328 1.618-14.172-.532-8.417-2.307-19.945-5.469-28.744 3.327-8.796 8.796-5.634 20.325-3.326 28.744 2.151 7.844 2.905 11.799.533 14.17-2.37 2.371-6.327 1.618-14.17-.533-8.417-2.307-19.947-5.47-28.744 3.326-2.929 2.929-2.929 7.677 0 10.607z"/><path d="m136.969 320.619c-8.604 8.605-12.746 23.699-9.848 35.891 2.147 9.036 7.882 15.514 16.146 18.239 9.885 3.262 21.36 6.448 31.688 6.448 5.92 0 11.463-1.048 16.112-3.729 6.39-3.684 10.485-10.081 11.532-18.013 1.546-11.716-3.807-25.979-13.319-35.492-15.344-15.342-38.81-16.845-52.311-3.344zm50.759 36.875c-.441 3.34-1.8 5.623-4.153 6.98-5.692 3.281-17.674 1.946-35.608-3.97-1.202-.396-4.859-1.604-6.253-7.464-1.689-7.107.94-16.894 5.861-21.814 3.289-3.288 7.738-4.886 12.5-4.886 6.318 0 13.184 2.815 18.598 8.23 6.283 6.284 10.007 15.71 9.055 22.924z"/><path d="m311.113 147.562 5.23-5.229c2.93-2.929 2.93-7.678.001-10.606-2.929-2.93-7.678-2.929-10.606-.001l-5.23 5.229c-2.93 2.929-2.93 7.678-.001 10.606 1.465 1.465 3.384 2.197 5.304 2.197 1.918 0 3.838-.732 5.302-2.196z"/><path d="m371.299 167.441c.569 0 1.147-.065 1.726-.201 4.032-.949 6.531-4.987 5.582-9.02l-1.993-8.467c-.95-4.032-4.986-6.53-9.02-5.582-4.032.949-6.531 4.987-5.582 9.02l1.993 8.467c.813 3.454 3.893 5.783 7.294 5.783z"/><path d="m357.933 191.593c-1.334 3.921.763 8.182 4.685 9.517l4.528 1.541c.801.272 1.615.401 2.417.401 3.122 0 6.037-1.965 7.1-5.086 1.334-3.921-.763-8.182-4.685-9.517l-4.528-1.541c-3.919-1.331-8.182.763-9.517 4.685z"/><path d="m324.962 223.169-5.977 5.977c-2.929 2.93-2.929 7.678 0 10.607 1.465 1.464 3.385 2.196 5.304 2.196s3.839-.732 5.304-2.196l5.977-5.977c2.929-2.93 2.929-7.678 0-10.607-2.93-2.928-7.678-2.928-10.608 0z"/><path d="m227.791 318.303c-4.153-.22-7.678 2.929-7.912 7.064-.233 4.136 2.929 7.678 7.064 7.912l5.28.299c.145.008.288.012.431.012 3.948 0 7.255-3.085 7.481-7.076.233-4.136-2.929-7.678-7.064-7.912z"/><path d="m211.349 260.281c.281.031.561.047.837.047 3.771 0 7.02-2.837 7.445-6.673.457-4.116-2.509-7.825-6.626-8.282l-4.482-.498c-4.126-.455-7.825 2.509-8.282 6.626-.457 4.116 2.509 7.825 6.626 8.282z"/><path d="m261.334 214.361c.694 0 1.401-.098 2.102-.302 3.977-1.159 6.261-5.322 5.102-9.299l-1.845-6.328c-1.159-3.978-5.324-6.26-9.299-5.102-3.977 1.159-6.261 5.322-5.102 9.299l1.845 6.328c.955 3.277 3.948 5.404 7.197 5.404z"/><path d="m268.78 269.589c-2.93 2.929-2.93 7.678-.001 10.606l5.13 5.131c1.465 1.465 3.384 2.197 5.304 2.197 1.919 0 3.839-.732 5.303-2.196 2.93-2.929 2.93-7.678.001-10.606l-5.13-5.131c-2.929-2.93-7.678-2.929-10.607-.001z"/><path d="m506.306 267.613c-.135-.033-13.618-3.933-18.404-24.936-3.107-13.64-13.244-22.885-29.315-26.734-3.515-.843-6.942-1.327-9.996-1.595 3.214-10.919 3.541-22.558 3.839-33.146.056-1.971.11-3.927.184-5.857.176-4.701.059-9.359-.343-13.956 5.863-.843 15.368-.673 23.816 6.451 11.707 9.87 20.122 12.295 25.564 12.294 3.616 0 5.92-1.07 7.004-1.74 3.523-2.178 4.614-6.799 2.437-10.323-1.978-3.202-5.978-4.392-9.332-2.952-.89.041-5.83-.169-16.004-8.746-12.784-10.779-26.969-11.07-35.81-9.772-3.409-14.886-9.94-28.835-19.307-41.118.955-1.586 2.333-3.491 4.199-5.211 5.189-4.781 11.761-6.057 20.092-3.896 8.669 2.248 15.15 5.122 20.87 7.657 11.131 4.937 21.648 9.6 33.886-1.241 3.101-2.747 3.387-7.487.641-10.588-2.747-3.1-7.486-3.386-10.588-.641-4.712 4.175-6.635 3.732-17.859-1.243-5.937-2.632-13.325-5.908-23.186-8.464-18.947-4.914-31.422 3.089-38.32 11.958-6.955-6.972-14.124-14.236-21.329-19.812 5.573-8.238 20.909-23.475 56.523-19.099 19.819 2.43 34.905-1.415 44.838-11.439 14.306-14.438 11.652-35.93 11.532-36.838-.54-4.095-4.298-6.962-8.382-6.44-4.096.522-6.997 4.274-6.493 8.372.019.152 1.759 15.276-7.382 24.418-6.501 6.502-17.361 8.872-32.285 7.039-30.581-3.753-49.229 5.27-59.495 13.498-5.362 4.298-9.056 8.798-11.503 12.463-2.419-1.188-4.932-2.222-7.556-3.069-7.343-2.371-14.8-2.925-22.196-2.403-1.626-1.737-4.031-4.922-4.183-8.681-.147-3.638 1.928-7.511 6.169-11.512 23.629-22.302 13.448-36.011 12.21-37.501-2.648-3.185-7.375-3.62-10.562-.973-3.021 2.513-3.568 6.898-1.354 10.062.634 1.606-.084 7.585-10.59 17.498-7.605 7.175-11.258 14.992-10.854 23.234.196 4.009 1.342 7.542 2.841 10.517-6.196 1.476-12.25 3.343-18.047 5.131-2.705.834-5.387 1.661-8.038 2.436-2.495.729-5.099 1.51-7.766 2.358-4.559-4.425-12.659-14.741-6.912-28.198 10.948-25.634 5.706-38.368 4.544-40.661-1.872-3.695-6.386-5.171-10.08-3.299s-5.172 6.385-3.299 10.08c.037.075 3.143 9.017-4.96 27.988-6.927 16.22-1.552 30.296 5.521 39.574-2.826 1.176-5.636 2.452-8.383 3.845-3.694 1.873-5.171 6.387-3.298 10.081s6.387 5.17 10.081 3.298c12.135-6.152 24.212-9.223 37.009-13.168 16.186-4.991 32.922-10.156 47.536-5.436 12.582 4.061 23.067 14.809 32.522 24.237 19.222 19.149 32.057 41.709 30.868 73.366-.074 1.977-.13 3.979-.188 5.998-.37 13.145-.752 26.737-6.462 37.307-.012.021-.023.043-.034.064-10.006 18.433-33.864 27.595-73.473 60.54-15.323 12.745-23.164 30.785-35.793 43.791-5.428 5.271-11.754 9.692-18.449 14.372-8.827 6.17-17.955 12.55-25.158 21.201-6.467 7.767-11.127 16.958-15.633 25.846-3.311 6.529-6.437 12.696-10.127 18.094-14.319 20.938-40.884 29.354-59.62 33.861-9.538 2.295-18.498.314-28.188-1.811-2.788-.611-5.671-1.244-8.7-1.817-19.8-3.748-38.641-8.177-51.558-21.025-10.737-10.668-18.821-22.065-24.121-37.648-6.558-19.276-7.59-39.245-2.906-56.229 5.556-20.149 19.355-38.591 38.857-51.927 8.574-5.864 16.104-13.313 23.385-20.517 11.962-11.837 15.047-14.599 30.857-25.93 8.888-6.371 18.077-12.958 26.372-21.461 7.914-7.733 12.792-16.815 17.51-25.599 3.629-6.756 7.057-13.138 11.698-18.677 4.409-5.263 10.304-9.934 16.545-14.879 8.039-6.37 16.329-12.942 22.153-21.459 1.237-1.81 2.628-3.601 4.133-5.324 2.725-3.119 2.405-7.857-.715-10.582-3.118-2.725-7.857-2.405-10.582.715-1.893 2.166-3.648 4.43-5.218 6.726-.435.636-.893 1.262-1.372 1.879-2.401-1.543-5.306-4.094-7.108-8.067-3.149-6.941-2.156-16.336 2.951-27.921 4.296-9.744 4.516-18.974.651-27.434-7.597-16.635-28.635-23.276-29.526-23.551-3.946-1.217-8.13.996-9.358 4.943s.98 8.147 4.924 9.387c4.318 1.356 16.388 6.784 20.336 15.494 2.016 4.447 1.771 9.39-.751 15.109-6.971 15.811-7.895 29.429-2.745 40.477 2.573 5.522 6.292 9.48 9.856 12.25-2.228 1.863-4.565 3.716-6.945 5.601-6.556 5.195-13.335 10.566-18.728 17.002-2.463 2.94-4.607 6.005-6.559 9.118-.356-1.045-.768-2.083-1.241-3.107-3.746-8.112-10.425-13.85-19.85-17.052-21.424-7.279-15.158-37.461-14.885-38.725.896-4.044-1.656-8.049-5.7-8.944-4.047-.893-8.049 1.656-8.944 5.7-3.404 15.368-2.623 46.887 24.703 56.172 5.438 1.847 9.048 4.82 11.035 9.09 3.664 7.869 1.124 18.916-.445 23.389-1.898 2.716-3.975 5.267-6.362 7.592-.048.046-.095.093-.141.141-7.386 7.584-15.667 13.52-24.434 19.804-4.26 3.054-8.63 6.186-12.942 9.559-4.75-3.771-11.82-12.236-7.43-27.352 9.002-30.994-10.68-57.596-11.521-58.713-2.489-3.301-7.171-3.956-10.479-1.479s-3.98 7.174-1.514 10.489c.161.216 15.981 21.855 9.109 45.519-5.727 19.716 1.912 33.583 10.35 41.416-2.81 2.645-5.551 5.357-8.243 8.02-7.12 7.045-13.846 13.699-21.301 18.798-3.872 2.648-7.551 5.478-11.021 8.468-6.469-7.285-16.655-22.03-9.453-36.618 14.923-30.223-9.5-56.328-10.548-57.425-2.859-2.995-7.607-3.106-10.604-.245-2.995 2.861-3.105 7.608-.244 10.604.184.192 18.274 19.506 7.946 40.425-11.325 22.937 3.394 44.034 12.168 53.754-11.012 12.242-18.963 26.366-23.097 41.357-.668 2.423-1.238 4.895-1.709 7.406-5.982-3.319-14.305-5.366-25.61-4.447-4.033.333-7.157-.723-9.812-3.303-9.221-8.966-10.101-32.437-9.662-40.717.228-4.136-2.941-7.672-7.078-7.898-4.109-.229-7.673 2.942-7.898 7.078-.205 3.738-1.549 36.966 14.162 52.272 5.741 5.593 13.166 8.188 21.502 7.519 18.323-1.485 22.038 6.72 22.687 8.857.058 12.554 2.266 25.582 6.585 38.278 1.438 4.229 3.12 8.333 5.041 12.304-12.654 2.321-27.561 9.774-32.873 27.978-.641 2.196-1.251 4.351-1.847 6.454-6.78 23.939-10.556 34.554-29.03 35.271-4.139.16-7.364 3.646-7.203 7.785.156 4.04 3.481 7.209 7.489 7.209.098 0 .196-.002.296-.006 30.135-1.169 36.326-23.028 42.881-46.171.585-2.067 1.185-4.184 1.814-6.341 4.488-15.383 19.786-17.733 26.74-17.986 3.686 5.338 7.875 10.371 12.554 15.074.628.631 1.257 1.261 1.885 1.885 6.575 6.541 14.179 11.257 22.057 14.776.67 3.938.949 9.851-1.476 14.028-1.667 2.873-4.554 4.731-8.825 5.681-31.505 7-51.712 24.762-54.054 47.513-.424 4.12 2.572 7.804 6.693 8.229 4.197.424 7.811-2.641 8.229-6.693 2.442-23.728 33.06-32.333 42.386-34.405 8.395-1.865 14.827-6.323 18.601-12.891 2.998-5.218 3.915-10.947 3.935-15.948 7.705 2.169 15.203 3.589 21.797 4.837 2.818.533 5.594 1.143 8.277 1.73 6.771 1.485 13.317 2.921 20.23 3.179-.2 6.8-2.962 17.548-17.041 23.729-9.688 4.253-18.627 5.549-26.515 6.691-12.518 1.813-26.704 3.869-28.785 21.427-.526 4.44 2.934 8.384 7.458 8.384 3.747 0 6.986-2.805 7.438-6.618.616-5.203 1.859-6.293 16.039-8.348 8.396-1.216 18.843-2.73 30.394-7.802 20.864-9.16 26.138-26.64 26.023-38.979 12.487-3.02 28.032-7.647 42.199-16.104-.418 10.579 1.908 23.541 12.069 35.021 14.83 16.754 9.09 31.845 8.87 32.402-1.615 3.814.167 8.216 3.98 9.832 3.815 1.615 8.215-.166 9.832-3.98.412-.974 9.857-24.123-11.45-48.195-13.153-14.859-7.323-34.009-5.488-38.952 2.938-3.01 5.676-6.305 8.149-9.922 4.244-6.207 7.741-13.105 11.124-19.777 4.319-8.52 8.399-16.567 13.781-23.031 2.516-3.022 5.396-5.76 8.518-8.36 6.418 4.339 18.511 15.494 15.844 36.78-4.889 39.021 23.911 54.361 25.14 54.995 1.101.567 2.275.837 3.434.837 2.717 0 5.339-1.481 6.671-4.062 1.899-3.681.455-8.205-3.226-10.104-.208-.107-20.736-11.055-17.136-39.8 2.926-23.351-7.744-39.255-18.161-47.992 7.508-5.253 14.926-10.353 21.532-16.787.048-.046.095-.093.141-.141 2.98-3.061 5.694-6.317 8.251-9.648 3.9 12.208 12.757 24.891 30.535 30.115 24.481 7.195 22.399 42.646 22.376 42.987-.294 4.132 2.816 7.72 6.948 8.015.182.013.361.019.541.019 3.899 0 7.191-3.017 7.474-6.967.139-1.948 2.985-47.837-33.11-58.444-20.841-6.124-22.392-26.604-22.354-33.013 4.334-5.968 8.76-11.461 14.047-15.858 5.544-4.611 11.214-9.124 16.975-13.515 3.735 15.268 13.656 32.424 34.972 31.94 15.042-.386 24.83 14.517 27.815 28.692.729 3.548 3.854 5.991 7.339 5.991.501-.001 1.009-.051 1.519-.155 4.057-.834 6.67-4.8 5.836-8.857-4.323-21.027-20.069-41.159-42.862-40.667-16.11.357-20.156-18.512-21.157-26.859 2.559-1.821 5.13-3.616 7.712-5.381l.366-.251c13.029-8.909 27.65-18.906 36.316-32.124 8.25-.014 27.886 1.604 31.388 16.973 6.892 30.246 28.501 35.935 29.418 36.162.606.15 1.214.223 1.812.223 3.365 0 6.427-2.282 7.273-5.696 1.004-4.02-1.446-8.087-5.466-9.084z"/><path d="m123.6 388.339c-8.498-8.543-14.396-19.279-17.055-31.047-.913-4.04-4.925-6.58-8.969-5.662-4.04.913-6.575 4.929-5.662 8.969 3.282 14.522 10.562 27.772 21.047 38.314.583.587 1.166 1.171 1.761 1.76 15.422 15.341 35.648 23.009 55.867 23.009 20.259 0 40.51-7.7 55.903-23.095 3.468-3.468 6.651-7.312 9.465-11.424 18.847-27.563 40.563-53.7 64.549-77.685.1-.1.007-.013 10.167-10.167 40.064-40.066 73.865-61.558 80.768-66.766 3.307-2.494 3.966-7.196 1.471-10.504-2.493-3.306-7.196-3.967-10.504-1.471-5.738 4.325-41.085 26.876-82.342 68.133-.126.126-9.849 9.85-10.167 10.167-24.64 24.641-46.954 51.497-66.323 79.824-2.29 3.348-4.877 6.472-7.69 9.285-24.925 24.925-65.562 24.951-90.597.045-.578-.569-1.132-1.124-1.689-1.685z"/><path d="m403.174 212.131c3.641 1.973 8.194.617 10.166-3.023 15.478-28.58 13.096-67.099-15.251-95.353-30.874-30.711-81.016-30.668-111.772.088-3.466 3.467-6.649 7.31-9.463 11.422-18.85 27.566-40.566 53.703-64.548 77.684-.1.1-.019.02-10.167 10.168-23.98 23.981-50.117 45.698-77.684 64.547-4.114 2.814-7.957 5.998-11.42 9.463-11.332 11.331-18.859 25.667-21.769 41.459-.75 4.073 1.943 7.983 6.018 8.734.459.085.916.125 1.367.125 3.548 0 6.701-2.528 7.367-6.143 2.355-12.789 8.449-24.396 17.623-33.569 2.81-2.811 5.933-5.397 9.281-7.688 28.33-19.371 55.187-41.686 79.824-66.323l10.166-10.166c24.636-24.637 46.95-51.493 66.322-79.823 2.29-3.348 4.876-6.471 7.688-9.282 24.925-24.927 65.562-24.953 90.582-.065 23.038 22.959 25.393 54.038 12.645 77.58-1.971 3.641-.618 8.193 3.025 10.165z"/></g></g></svg>