<svg width="525" height="536" viewBox="0 0 525 536" fill="none" xmlns="http://www.w3.org/2000/svg">
<path d="M96.6238 488.865C96.6238 488.865 26.7905 477.231 55.8823 436.49C84.9742 395.748 125.716 428.729 125.716 428.729C125.716 428.729 67.5319 355.023 125.716 339.517C183.899 324.011 205.246 391.876 199.421 414.183C199.421 414.183 247.268 351.151 271.831 362.784C296.394 374.418 313.869 403.525 300.283 424.856C300.283 424.856 344.897 424.856 335.199 448.123C335.199 448.123 451.583 345.326 385.622 488.865H96.6238Z" fill="#ADEAC9"/>
<path d="M434.107 480.224C434.107 480.224 387.077 381.011 428.443 359.328C469.808 337.645 457.247 410.406 457.247 410.406C457.247 410.406 442.173 464.734 441.74 480.224C441.308 495.714 434.107 480.224 434.107 480.224Z" fill="#ADEAC9"/>
<path d="M438.924 487.232C426.266 414.215 438.812 366.528 438.924 366.048L440.524 366.512C440.396 366.976 427.947 414.327 440.524 486.928L438.924 487.232Z" fill="#50D171"/>
<path d="M433.147 479.44C433.147 479.44 424.986 454.925 404.888 447.307C384.789 439.69 361.65 421.528 373.652 406.966C385.653 392.404 418.602 410.775 429.067 451.292C436.188 478.832 433.147 479.44 433.147 479.44Z" fill="#ADEAC9"/>
<path d="M432.316 479.711C423.115 451.58 410.521 435.13 401.576 426.296C391.975 416.695 384.31 413.751 384.229 413.719L384.838 412.119C385.158 412.247 392.839 415.207 402.696 424.92C411.801 433.913 424.619 450.604 433.964 479.135L432.316 479.711Z" fill="#50D171"/>
<path d="M438.941 482.464C438.941 482.464 447.102 457.933 467.201 450.316C487.299 442.699 510.47 424.536 498.421 409.974C486.371 395.412 453.487 413.799 443.022 454.3C435.901 481.856 438.941 482.464 438.941 482.464Z" fill="#ADEAC9"/>
<path d="M439.757 482.736L438.157 482.192C447.502 453.66 460.32 436.97 469.409 427.993C479.33 418.215 487.011 415.191 487.283 415.191L487.891 416.791C487.555 416.855 457.375 428.857 439.757 482.736Z" fill="#50D171"/>
<path d="M439.692 487.233C439.692 487.233 449.39 473.167 463.552 472.031C477.713 470.895 495.78 463.646 490.755 452.188C485.731 440.73 461.519 446.315 447.405 470.11C437.868 486.273 439.692 487.233 439.692 487.233Z" fill="#ADEAC9"/>
<path d="M440.157 487.553L439.213 486.913C460.656 455.501 482.547 453.404 482.771 453.388L482.851 454.525C478.147 455.279 473.626 456.907 469.521 459.325C462.224 463.278 451.262 471.391 440.157 487.553Z" fill="#50D171"/>
<path d="M440.157 487.553C440.157 487.553 430.459 473.487 416.298 472.351C402.136 471.214 384.069 463.982 389.094 452.508C394.119 441.034 418.33 446.635 432.444 470.43C441.981 486.593 440.157 487.553 440.157 487.553Z" fill="#ADEAC9"/>
<path d="M439.693 487.873C418.554 456.909 397.207 454.861 396.983 454.845L397.079 453.708C397.303 453.708 419.194 455.821 440.637 487.313L439.693 487.873Z" fill="#50D171"/>
<path d="M418.81 488.369C418.81 488.369 426.731 459.789 447.47 471.71C447.47 471.71 467.296 458.141 478.146 470.478C478.146 470.478 515.399 470.094 525 488.865L418.81 488.369Z" fill="#ADEAC9"/>
<path d="M72.6363 84.0912C67.269 89.8758 59.9112 93.4147 52.0415 93.9965C39.4159 94.5406 43.0163 107.918 43.0163 107.918C43.0163 107.918 34.4552 114.735 40.472 120.72C46.4888 126.705 50.2333 127.441 52.0735 127.569C52.0735 127.569 51.8495 141.107 72.1562 140.019C92.4629 138.93 81.3734 123.328 81.3734 123.328C81.3734 123.328 92.4629 114.767 85.2299 99.9013C85.2299 99.9013 83.5177 95.1006 87.1982 86.8916" fill="#070707"/>
<path d="M15.5724 228.558C15.2364 222.75 18.4048 215.069 15.5724 208.748C10.1375 196.027 6.32568 182.672 4.22691 168.998C3.4428 163.222 21.9413 137.426 18.8849 138.386L40.9678 133.81C44.8322 132.594 48.9769 132.594 52.8414 133.81L65.8191 140.211C75.0363 143.107 86.6218 154.068 85.3097 163.654C85.3097 163.654 76.4285 226.334 59.0982 245.265L15.5724 228.558Z" fill="#E8878B"/>
<path d="M84.349 212.316L81.3726 255.282L63.1782 226.382L72.7475 208.748L84.349 212.316Z" fill="#E8878B"/>
<path d="M81.8694 488.865L135.637 480.063C135.637 474.863 131.876 474.399 131.876 474.399C122.364 473.889 113.112 471.107 104.896 466.286C96.6874 461.885 94.9271 449.067 94.9271 449.067L76.6367 452.092L81.8694 488.865Z" fill="#E8878B"/>
<path d="M131.875 474.335C129.361 474.223 126.855 473.967 124.37 473.567C120.75 472.862 117.211 471.79 113.809 470.366C109.488 473.823 96.4307 477.551 80.5566 479.6L81.6128 487.089L95.9187 485.808L135.636 480.064C135.636 474.799 131.875 474.335 131.875 474.335Z" fill="#1C3D4F"/>
<path d="M135.764 479.984L136.116 482.16L96.6231 488.673L81.8692 488.865L81.4531 485.952L95.919 485.84L135.764 479.984Z" fill="#FFF3F3"/>
<path d="M94.9269 449.004L87.5499 384.531C87.0743 382.303 85.7575 380.344 83.8736 379.062C81.9897 377.78 79.684 377.275 77.4366 377.65C72.3639 378.482 65.8671 383.459 67.0832 388.452L76.6845 452.06C76.6845 452.06 82.1732 455.981 87.0539 454.844C90.2726 453.862 93.0536 451.799 94.9269 449.004Z" fill="#E8878B"/>
<path d="M83.8056 413.318C83.8056 413.318 78.6849 417.495 68.7156 419.143L66.5073 410.006L82.1254 405.205L83.8056 413.318Z" fill="#DD7A81"/>
<path d="M68.8115 432.569L102.416 427.257C100.816 369.505 96.2551 301.848 93.5668 279.813C85.5657 231.983 75.5164 214.524 75.5164 214.524C75.5164 214.524 51.2091 200.347 43.6401 234.175L68.8115 432.569Z" fill="#3358A3"/>
<path d="M59.3062 267.939L60.8104 329.387L57.802 370.161L46.1205 428.857H40.9678L42.568 398.133L48.5208 370.737L54.6176 282.197C54.6176 282.197 53.7855 271.364 59.3062 267.939Z" fill="#2054A0"/>
<path d="M12.3081 486.545H66.7953C67.6595 481.408 64.027 480.336 64.027 480.336C54.7207 478.293 46.043 474.039 38.7276 467.934C31.3346 462.27 31.6707 449.34 31.6707 449.34H13.1402L12.3081 486.545Z" fill="#E8878B"/>
<path d="M64.01 480.335C61.5443 479.81 59.1084 479.153 56.7131 478.367C53.2611 477.109 49.9474 475.501 46.8238 473.566C42.0231 476.271 28.6133 479.967 12.2432 482.16V486.592H66.7944C67.6585 481.407 64.01 480.335 64.01 480.335Z" fill="#1C3D4F"/>
<path d="M66.9227 486.545V488.753H13.2996L12.7715 486.545H66.9227Z" fill="#FFF3F3"/>
<path d="M31.6711 449.34L34.8715 384.515C34.7726 382.238 33.799 380.087 32.1535 378.51C30.508 376.933 28.3175 376.052 26.0383 376.05C24.8224 376.049 23.6192 376.299 22.5043 376.784C21.3894 377.269 20.3867 377.98 19.559 378.87C18.7313 379.761 18.0964 380.813 17.6941 381.961C17.2919 383.108 17.1308 384.326 17.2212 385.539L13.1406 449.34C13.1406 449.34 17.9413 454.14 22.9179 453.788C26.2603 453.356 29.3516 451.785 31.6711 449.34Z" fill="#E8878B"/>
<path d="M26.517 412.31C26.517 412.31 20.7722 415.607 10.6589 415.607L9.98682 406.23L26.165 404.069L26.517 412.31Z" fill="#DD7A81"/>
<path d="M71.4038 243.232L67.8514 255.874C67.8514 255.874 84.2215 253.618 60.8104 257.826C59.4022 267.427 57.93 276.165 57.802 282.197C58.9542 302.856 48.7128 371.601 40.9678 428.857H8.56348L15.8764 279.413L16.0045 229.022C16.0045 229.022 24.0055 224.334 62.2346 218.525" fill="#3358A3"/>
<path d="M72.7476 142.803C72.7476 142.803 89.2938 149.924 89.9979 185.913C89.9979 185.913 90.2379 206.011 88.1256 214.204C88.1256 214.204 84.6691 216.605 72.7476 214.204V142.803Z" fill="#00A199"/>
<path d="M88.8293 210.428C88.8293 210.428 78.5239 212.428 72.8271 210.428" stroke="white" stroke-miterlimit="10"/>
<path d="M23.3332 137.458C23.3332 137.458 39.3353 173.799 60.5061 166.47C60.5061 166.47 72.0116 161.509 67.115 140.707L72.7477 142.803C72.7477 142.803 100.111 189.209 69.8033 226.382C64.0666 231.939 56.7603 235.597 48.8745 236.863C40.9887 238.128 32.9045 236.938 25.7175 233.455L15.5721 228.542C15.5721 228.542 14.836 212.94 13.2038 209.34C11.5716 205.739 -5.69468 162.934 10.2114 143.331C10.2114 143.283 13.6519 138.466 23.3332 137.458Z" fill="#00A199"/>
<path d="M77.2764 214.94C77.2764 214.94 89.454 193.45 81.3729 163.926" stroke="black" stroke-width="0.3" stroke-miterlimit="10"/>
<path d="M45.3039 151.844C43.7517 151.338 42.3233 150.511 41.1115 149.417C39.8998 148.323 38.932 146.986 38.2709 145.494C37.6098 144.001 37.2703 142.386 37.2745 140.753C37.2786 139.121 37.6263 137.507 38.295 136.018L49.6565 110.414C50.5304 108.424 52.1139 106.829 54.0988 105.942C56.0836 105.054 58.3276 104.937 60.3939 105.614C62.4562 106.289 64.1948 107.705 65.2736 109.588C66.3524 111.471 66.6949 113.686 66.2347 115.807L60.2659 143.267C59.9232 144.856 59.2501 146.356 58.2904 147.669C57.3306 148.982 56.1056 150.078 54.6948 150.887C53.284 151.696 51.7189 152.199 50.1011 152.364C48.4833 152.528 46.8489 152.351 45.3039 151.844Z" fill="#E8878B"/>
<path d="M76.3807 115.999C79.6948 115.999 82.3815 113.313 82.3815 109.998C82.3815 106.684 79.6948 103.998 76.3807 103.998C73.0665 103.998 70.3799 106.684 70.3799 109.998C70.3799 113.313 73.0665 115.999 76.3807 115.999Z" stroke="white" stroke-width="0.5" stroke-miterlimit="10"/>
<path d="M61.4985 137.618C61.4985 137.618 45.4963 132.369 47.6086 115.103L66.2351 115.935L61.4985 137.618Z" fill="#D6656D"/>
<path d="M84.4575 92.3366C87.6492 82.5554 82.3074 72.0388 72.5263 68.847C62.7451 65.6553 52.2285 70.9971 49.0367 80.7782L43.833 96.7251C40.6413 106.506 45.983 117.023 55.7642 120.215C65.5454 123.406 76.062 118.065 79.2537 108.283L84.4575 92.3366Z" fill="#E8878B"/>
<path d="M57.6099 82.7148C57.6099 82.7148 60.2663 80.2505 73.612 84.123C73.612 84.123 80.4289 94.8125 89.1341 86.8754C97.8393 78.9383 89.1021 52.4548 73.612 65.6086C73.612 65.6086 65.611 59.2077 52.5212 61.9921C46.3104 63.5239 40.851 67.224 37.1272 72.4255C37.1272 72.4255 29.1261 86.5714 16.5325 87.1314C3.93879 87.6915 7.50726 101.069 7.50726 101.069C7.50726 101.069 1.10641 105.262 4.96293 113.871C9.98759 125.216 16.3244 123.472 18.1487 123.616C18.1487 123.616 17.9406 137.154 38.2313 136.066C58.522 134.978 45.9284 111.695 45.9284 111.695C45.9284 111.695 57.5779 107.294 48.7287 97.8368C48.7287 97.8368 53.4334 85.7232 57.6099 82.7148Z" fill="#070707"/>
<path d="M48.697 97.5167C46.3127 96.7326 45.4006 92.9401 46.2327 90.4117C47.0648 87.8834 49.3051 87.5794 51.6894 88.3635L48.697 97.5167Z" fill="#E8878B"/>
<path d="M48.3133 90.5239C48.6916 91.072 48.9277 91.7056 49.0003 92.3676C49.073 93.0296 48.9798 93.6993 48.7293 94.3164C48.3926 93.8733 47.9114 93.5619 47.3691 93.4363" stroke="#B73D46" stroke-width="0.3" stroke-miterlimit="10"/>
<path d="M70.4121 97.6129C70.4121 97.6129 68.8119 105.086 69.356 106.638C69.9 108.19 66.4756 106.638 66.4756 106.638" stroke="#B73D46" stroke-width="0.3" stroke-miterlimit="10"/>
<path d="M59.21 110.415C60.2681 111.415 61.5335 112.17 62.9163 112.626C64.2991 113.083 65.7653 113.229 67.211 113.055" stroke="#B73D46" stroke-width="0.3" stroke-miterlimit="10"/>
<path d="M77.9484 100.461C78.8675 100.461 79.6126 99.716 79.6126 98.7969C79.6126 97.8778 78.8675 97.1327 77.9484 97.1327C77.0293 97.1327 76.2842 97.8778 76.2842 98.7969C76.2842 99.716 77.0293 100.461 77.9484 100.461Z" fill="#070707"/>
<path d="M74.8608 95.4367L74.5088 94.5566C76.1413 93.9074 77.9461 93.8325 79.6268 94.3443C81.3076 94.8561 82.7643 95.9241 83.758 97.373L82.9579 97.885C82.0991 96.6042 80.8231 95.6603 79.3469 95.2139C77.8707 94.7676 76.2855 94.8463 74.8608 95.4367Z" fill="#070707"/>
<path d="M59.3381 94.7965C60.2572 94.7965 61.0023 94.0514 61.0023 93.1322C61.0023 92.2131 60.2572 91.468 59.3381 91.468C58.4189 91.468 57.6738 92.2131 57.6738 93.1322C57.6738 94.0514 58.4189 94.7965 59.3381 94.7965Z" fill="#070707"/>
<path d="M56.2495 89.772L55.8975 88.9079C57.5296 88.2557 59.3354 88.1793 61.0168 88.6913C62.6983 89.2033 64.155 90.2731 65.1467 91.7242L64.3466 92.2363C63.4921 90.9503 62.2172 90.0012 60.7401 89.5516C59.263 89.1021 57.6755 89.18 56.2495 89.772Z" fill="#070707"/>
<path d="M45.512 99.9014C45.512 99.9014 48.5524 107.342 43.0156 107.902" stroke="white" stroke-width="0.5" stroke-miterlimit="10"/>
<path d="M10.7873 110.207C10.7873 110.207 9.60317 116.143 19.3005 118.416" stroke="white" stroke-width="0.5" stroke-miterlimit="10"/>
<path d="M78.893 133.41C78.893 133.41 74.0924 140.466 68.9717 130.001" stroke="white" stroke-width="0.5" stroke-miterlimit="10"/>
<path d="M66.9226 87.9797C71.2089 87.9797 74.6837 84.505 74.6837 80.2187C74.6837 75.9324 71.2089 72.4576 66.9226 72.4576C62.6364 72.4576 59.1616 75.9324 59.1616 80.2187C59.1616 84.505 62.6364 87.9797 66.9226 87.9797Z" fill="#070707"/>
<path d="M81.3732 223.053C81.3732 223.053 66.3312 235.471 48.1528 236.975L73.7562 199.93C76.7009 207.498 79.2435 215.217 81.3732 223.053Z" fill="#00A199"/>
<path d="M82.6217 227.886C74.1046 234.484 64.2281 239.108 53.7059 241.424C36.3756 245.153 16.0049 234.847 16.0049 234.847" stroke="black" stroke-width="0.3" stroke-miterlimit="10"/>
<path d="M70.4111 142.243C70.4111 142.243 79.1963 168.87 56.8733 172.343C34.5504 175.815 18.8843 138.386 18.8843 138.386" stroke="white" stroke-miterlimit="10"/>
<path d="M5.13867 185.768L21.1408 247.905C22.469 253.169 26.4375 257.234 31.7502 256.082C33.055 255.8 34.2907 255.262 35.3854 254.498C36.4802 253.734 37.412 252.76 38.1268 251.633C38.8416 250.506 39.3251 249.248 39.549 247.932C39.773 246.616 39.7329 245.269 39.4312 243.968L23.4291 175.303L5.13867 185.768Z" fill="#E8878B"/>
<path d="M30.5187 206.779C30.5187 206.779 22.7897 214.78 12.5483 214.636L10.228 205.563L28.8065 199.434L30.5187 206.779Z" fill="#D6656D"/>
<path d="M58.9864 202.123L23.0776 238.432L37.9116 251.937L69.2918 210.7C70.0294 209.616 70.3635 208.308 70.2359 207.003C70.1109 205.35 69.5596 203.756 68.6357 202.379C67.5475 200.923 65.1792 200.491 63.291 200.379C62.4913 200.352 61.695 200.493 60.9534 200.794C60.2119 201.094 59.5418 201.547 58.9864 202.123Z" fill="#E8878B"/>
<path d="M10.1156 143.587C10.1156 143.587 -10.8152 166.262 7.53928 212.076C7.53928 212.076 25.0456 212.252 30.8384 201.627C30.8384 201.627 27.6379 181.784 28.134 172.279" fill="#00A199"/>
<path d="M29.1264 194.874L28.1343 172.279" stroke="black" stroke-width="0.3" stroke-miterlimit="10"/>
<path d="M26.566 202.491C28.0717 201.556 29.515 200.525 30.8866 199.403L29.9104 198.234C23.2132 203.619 14.9859 206.749 6.40332 207.18V208.7C13.5471 208.403 20.4929 206.264 26.566 202.491Z" fill="white"/>
<path d="M34.4872 226.478L33.4951 230.462" stroke="black" stroke-width="0.3" stroke-miterlimit="10"/>
<path d="M74.0277 167.206L89.7098 174.583C89.962 174.661 90.1936 174.795 90.3876 174.974C90.5816 175.154 90.7332 175.374 90.8313 175.619C90.9294 175.865 90.9716 176.129 90.9547 176.392C90.9379 176.656 90.8624 176.912 90.7339 177.143L74.7318 206.171C74.5113 206.579 74.139 206.883 73.6956 207.018C73.2522 207.153 72.7735 207.107 72.3635 206.891L58.3616 199.69C58.1434 199.579 57.9507 199.423 57.7955 199.233C57.6403 199.044 57.5261 198.824 57.4599 198.588C57.3938 198.352 57.3772 198.105 57.4112 197.862C57.4452 197.62 57.5291 197.387 57.6575 197.178L72.0114 168.022C72.2115 167.684 72.5172 167.421 72.8816 167.273C73.2459 167.126 73.6486 167.102 74.0277 167.206Z" fill="#555177"/>
<path d="M79.2125 177.751C80.0609 177.751 80.7487 177.064 80.7487 176.215C80.7487 175.367 80.0609 174.679 79.2125 174.679C78.364 174.679 77.6763 175.367 77.6763 176.215C77.6763 177.064 78.364 177.751 79.2125 177.751Z" fill="black"/>
<path d="M81.0684 203.691L76.2678 191.514L65.3543 193.482C64.7699 191.144 63.8653 188.899 62.666 186.809C62.5586 186.659 62.4218 186.533 62.2641 186.437C62.1063 186.342 61.9308 186.28 61.7482 186.254C61.5656 186.229 61.3797 186.241 61.2019 186.289C61.0241 186.338 60.858 186.422 60.7137 186.537L60.2977 186.841C59.819 187.211 59.4987 187.748 59.4015 188.345C58.9375 191.274 58.4734 194.186 57.4653 198.475C57.2035 199.616 57.1953 200.8 57.4414 201.945C57.6875 203.09 58.1818 204.167 58.8895 205.099L60.0896 206.7C61.0023 207.907 62.144 208.924 63.4496 209.69C64.7552 210.456 66.1989 210.958 67.6984 211.166C69.1979 211.374 70.7237 211.284 72.1886 210.902C73.6535 210.52 75.0287 209.854 76.2358 208.94L81.0684 203.691Z" fill="#E8878B"/>
<path d="M72.7322 191.065C72.7271 190.528 72.9285 190.009 73.2947 189.616C73.661 189.223 74.1642 188.986 74.7005 188.953L83.5496 188.281C83.8898 188.257 84.2314 188.303 84.553 188.417C84.8745 188.53 85.1691 188.709 85.4184 188.942C85.6677 189.175 85.8663 189.457 86.0018 189.77C86.1373 190.083 86.2068 190.42 86.206 190.761C86.206 191.418 85.9474 192.048 85.4862 192.515C85.0249 192.982 84.3982 193.249 83.7417 193.258H74.8605C74.5742 193.262 74.2901 193.208 74.0255 193.099C73.7609 192.99 73.5216 192.827 73.3222 192.622C73.1228 192.416 72.9675 192.172 72.8661 191.905C72.7646 191.637 72.719 191.351 72.7322 191.065Z" fill="#E8878B"/>
<path d="M73.6114 194.858C73.611 194.337 73.8124 193.835 74.1734 193.46C74.5344 193.084 75.0269 192.862 75.5476 192.841L82.7966 192.457C83.1253 192.442 83.4537 192.494 83.7619 192.609C84.07 192.725 84.3515 192.902 84.5894 193.129C84.8273 193.356 85.0165 193.63 85.1457 193.932C85.2749 194.235 85.3413 194.561 85.341 194.89C85.3367 195.528 85.0803 196.138 84.6276 196.588C84.1749 197.038 83.5627 197.29 82.9246 197.29L75.6597 196.922C75.3893 196.922 75.1217 196.869 74.8721 196.765C74.6226 196.661 74.396 196.508 74.2056 196.316C74.0152 196.125 73.8647 195.897 73.7627 195.646C73.6607 195.396 73.6093 195.128 73.6114 194.858Z" fill="#E8878B"/>
<path d="M73.6924 198.426C73.7005 197.926 73.9015 197.449 74.2535 197.094C74.6054 196.739 75.081 196.534 75.5806 196.522L81.0534 196.378C81.3694 196.356 81.6865 196.399 81.9854 196.504C82.2844 196.608 82.559 196.772 82.7925 196.987C83.026 197.201 83.2135 197.46 83.3437 197.749C83.4738 198.037 83.5439 198.35 83.5497 198.666C83.5288 199.276 83.2685 199.853 82.8253 200.272C82.382 200.692 81.7914 200.92 81.1814 200.907L75.6926 200.362C75.4342 200.367 75.1774 200.32 74.937 200.225C74.6965 200.13 74.4772 199.988 74.2914 199.809C74.1057 199.629 73.9572 199.414 73.8544 199.177C73.7516 198.94 73.6966 198.685 73.6924 198.426Z" fill="#E8878B"/>
<path d="M73.3873 201.275C73.3908 200.784 73.5817 200.314 73.9209 199.96C74.2601 199.606 74.7219 199.395 75.2116 199.37L79.4521 199.738C79.7619 199.723 80.0716 199.771 80.3623 199.879C80.653 199.988 80.9186 200.154 81.1431 200.368C81.3676 200.582 81.5463 200.839 81.6682 201.124C81.7901 201.41 81.8528 201.717 81.8525 202.027C81.844 202.624 81.6009 203.194 81.1757 203.613C80.7505 204.032 80.1773 204.267 79.5801 204.267L75.3076 203.227C75.0521 203.229 74.7987 203.18 74.5626 203.082C74.3266 202.984 74.1126 202.84 73.9334 202.658C73.7542 202.476 73.6135 202.26 73.5197 202.022C73.4259 201.784 73.3809 201.53 73.3873 201.275Z" fill="#E8878B"/>
<path d="M74.7008 188.953C74.7008 188.953 66.0116 190.249 63.1152 187.497L61.8511 195.226L73.6926 198.506L74.7008 188.953Z" fill="#E8878B"/>
<path d="M418.345 0H233.729C219.049 0 207.149 11.9001 207.149 26.5795V462.285C207.149 476.965 219.049 488.865 233.729 488.865H418.345C433.025 488.865 444.925 476.965 444.925 462.285V26.5795C444.925 11.9001 433.025 0 418.345 0Z" fill="#00A199"/>
<path d="M403.448 0H222.688C206.939 0 194.172 12.767 194.172 28.5158V460.349C194.172 476.098 206.939 488.865 222.688 488.865H403.448C419.196 488.865 431.963 476.098 431.963 460.349V28.5158C431.963 12.767 419.196 0 403.448 0Z" fill="#DCE9E2"/>
<path d="M402.599 5.87292H223.536C210.562 5.87292 200.044 16.3903 200.044 29.364V408.118C200.044 421.092 210.562 431.609 223.536 431.609H402.599C415.573 431.609 426.09 421.092 426.09 408.118V29.364C426.09 16.3903 415.573 5.87292 402.599 5.87292Z" fill="white"/>
<path d="M415.753 485.728C416.361 485.424 416.938 485.104 417.514 484.768C416.938 485.104 416.361 485.424 415.753 485.728Z" fill="#EAF4FF"/>
<path d="M415.753 3.2002C416.361 3.50424 416.938 3.82428 417.514 4.16032C416.938 3.76027 416.361 3.44023 415.753 3.2002Z" fill="#EAF4FF"/>
<path d="M439.18 39.1411H438.428C436.475 39.1411 434.892 40.7244 434.892 42.6776V68.8731C434.892 70.8262 436.475 72.4095 438.428 72.4095H439.18C441.133 72.4095 442.717 70.8262 442.717 68.8731V42.6776C442.717 40.7244 441.133 39.1411 439.18 39.1411Z" fill="#DCE9E2"/>
<path d="M305.675 480.064C316.501 480.064 325.277 471.287 325.277 460.461C325.277 449.635 316.501 440.859 305.675 440.859C294.849 440.859 286.072 449.635 286.072 460.461C286.072 471.287 294.849 480.064 305.675 480.064Z" fill="#00A199"/>
<path d="M350.657 15.3459H291.817C290.35 15.3459 289.161 16.5352 289.161 18.0023V18.3864C289.161 19.8534 290.35 21.0427 291.817 21.0427H350.657C352.124 21.0427 353.313 19.8534 353.313 18.3864V18.0023C353.313 16.5352 352.124 15.3459 350.657 15.3459Z" fill="#00A199"/>
<path d="M282.712 15.3459H282.328C280.861 15.3459 279.671 16.5352 279.671 18.0023V18.3864C279.671 19.8534 280.861 21.0427 282.328 21.0427H282.712C284.179 21.0427 285.368 19.8534 285.368 18.3864V18.0023C285.368 16.5352 284.179 15.3459 282.712 15.3459Z" fill="#00A199"/>
<path d="M277.518 283.563L257.05 492.318L257.591 492.371L278.06 283.616L277.518 283.563Z" fill="#60AACB"/>
<path d="M344.831 283.535L344.288 283.559L353.293 492.32L353.836 492.297L344.831 283.535Z" fill="#60AACB"/>
<path d="M396.151 530.118H338.543L336.015 508.515L333.823 486.912H351.201C353.236 495.116 357.507 502.594 363.539 508.515C369.491 514.276 378.709 519.861 392.919 522.917C392.919 522.917 397.143 524.213 396.151 530.118Z" fill="#E5878B"/>
<path d="M396.151 530.118H338.543L336.015 508.516H363.539C364.741 509.684 366.013 510.78 367.347 511.796C372.511 515.683 378.295 518.669 384.454 520.629C387.232 521.543 390.058 522.307 392.919 522.917C392.919 522.917 397.143 524.214 396.151 530.118Z" fill="#1D3D4E"/>
<path d="M396.311 530.119V535.959H339.359L338.735 530.119H396.311Z" fill="#FFF2F2"/>
<path d="M384.454 520.63C383.317 521.35 381.061 522.07 376.452 521.798C367.875 521.302 365.251 511.988 365.251 511.988L367.251 511.796C372.444 515.693 378.261 518.68 384.454 520.63Z" fill="white"/>
<path d="M357.49 501.187L355.457 497.81H334.927L335.279 501.187H357.49Z" fill="#DA7B81"/>
<path d="M273.911 486.912V530.118H227.232C227.232 530.118 227.728 521.189 240.642 517.701C244.835 516.58 248.291 512.9 251.06 508.515C256.788 499.362 259.509 486.912 259.509 486.912H273.911Z" fill="#E5878B"/>
<path d="M273.911 509.348V530.15H227.232C227.232 530.15 227.6 523.398 236.178 519.349C237.617 518.689 239.111 518.153 240.642 517.749C244.094 516.594 247.077 514.347 249.139 511.348C249.827 510.459 250.468 509.535 251.06 508.58L273.911 509.348Z" fill="#1D3D4E"/>
<path d="M273.911 530.119V535.959H227.344L227.232 530.119H273.911Z" fill="#FFF2F2"/>
<path d="M256.404 511.988C256.404 511.988 253.796 521.301 245.203 521.797C236.61 522.293 236.146 519.317 236.146 519.317C237.585 518.656 239.079 518.121 240.61 517.717C244.062 516.562 247.045 514.315 249.107 511.316L256.404 511.988Z" fill="white"/>
<path d="M273.91 497.81V500.515L255.332 500.018L256.196 497.81H273.91Z" fill="#DA7B81"/>
<path d="M269.046 259.986L250.483 497.81H279.287L304.747 280.693C304.808 279.997 305.134 279.351 305.659 278.89C306.183 278.428 306.865 278.186 307.563 278.213L318.06 278.981L330.062 497.81H359.618L348.704 261.171C348.704 261.171 322.333 265.251 269.046 259.986Z" fill="#00A199"/>
<path d="M325.182 278.709H318.365V279.253H325.182V278.709Z" fill="black"/>
<path d="M267.718 283.221V282.677C273.751 282.517 277.992 280.693 280.296 277.253C284.504 270.964 280.872 261.25 280.824 261.25L281.336 261.058C282.001 262.934 282.457 264.876 282.696 266.851C283.322 270.564 282.631 274.379 280.744 277.637C278.328 281.157 273.959 283.061 267.718 283.221Z" fill="#60AACB"/>
<path d="M354.817 170.567L348.337 263.523H268.166L255.988 172.711C255.189 167.737 256.178 162.64 258.779 158.325C261.38 154.01 265.426 150.756 270.198 149.14L288.185 143.059L296.186 140.339L298.282 139.619C302.42 138.216 306.89 138.121 311.084 139.347L314.508 140.339L319.709 141.843L339.615 147.636C344.452 149.043 348.633 152.119 351.416 156.318C354.199 160.516 355.404 165.564 354.817 170.567Z" fill="#F7F7F7"/>
<path d="M291.385 146.867L292.681 160.533L305.339 187.673L317.677 159.237L316.365 145.603L291.385 146.867Z" fill="#00A199"/>
<path d="M304.155 157.365C302.401 157.413 300.657 157.092 299.036 156.422C297.415 155.752 295.953 154.748 294.746 153.475C293.538 152.203 292.612 150.69 292.028 149.036C291.443 147.382 291.213 145.624 291.353 143.875L293.77 113.887C293.955 111.561 294.997 109.386 296.694 107.784C298.391 106.182 300.622 105.266 302.955 105.214C305.297 105.153 307.579 105.966 309.354 107.496C311.129 109.026 312.27 111.162 312.556 113.487L316.285 143.363C316.498 145.096 316.345 146.854 315.836 148.524C315.327 150.194 314.473 151.739 313.33 153.059C312.187 154.378 310.78 155.443 309.199 156.185C307.619 156.927 305.9 157.329 304.155 157.365Z" fill="#E8878B"/>
<path d="M315.468 136.722C315.468 136.722 298.314 139.555 293.401 126.129L313.692 122.368L315.468 136.722Z" fill="#D6656D"/>
<path d="M304.062 70.3759L300.159 70.4604C290.166 70.6767 282.24 78.9531 282.456 88.9462L282.932 110.912C283.148 120.905 291.424 128.831 301.417 128.614L305.321 128.53C315.314 128.314 323.24 120.037 323.024 110.044L322.548 88.0784C322.332 78.0853 314.055 70.1596 304.062 70.3759Z" fill="#E8878B"/>
<path d="M302.106 70.0732C277.143 70.6172 282.647 96.9567 282.647 96.9567L282.791 103.614H283.496L285.096 93.9003C285.24 92.5712 285.643 91.2831 286.28 90.1078L288.888 85.1792C289.809 83.4343 291.378 82.121 293.258 81.5223C295.138 80.9237 297.178 81.0876 298.938 81.9788C300.003 82.5302 301.186 82.8179 302.386 82.8179C303.586 82.8179 304.769 82.5302 305.835 81.9788L306.411 81.6747C308.157 80.7532 310.197 80.5573 312.087 81.1294C313.977 81.7016 315.566 82.9956 316.508 84.7311L318.844 88.9557C319.437 90.0233 319.832 91.1886 320.012 92.3961L322.173 102.75H322.813V96.1246C322.813 96.1246 327.709 69.5131 302.106 70.0732Z" fill="#070707"/>
<path d="M322.973 107.118C325.678 107.118 327.774 103.438 327.774 100.589C327.774 97.7409 325.502 96.7168 322.797 96.7648L322.973 107.118Z" fill="#E8878B"/>
<path d="M325.581 100.045C325.026 100.496 324.59 101.076 324.311 101.734C324.032 102.393 323.918 103.11 323.981 103.822C324.467 103.469 325.062 103.298 325.661 103.342" stroke="#B73D46" stroke-width="0.5" stroke-miterlimit="10"/>
<path d="M282.888 107.982C280.183 107.982 277.911 104.526 277.847 101.581C277.783 98.6371 279.959 97.6129 282.648 97.5649L282.888 107.982Z" fill="#E8878B"/>
<path d="M280.12 101.038C280.696 101.46 281.158 102.019 281.465 102.664C281.773 103.309 281.915 104.02 281.88 104.734C281.379 104.405 280.778 104.264 280.184 104.334" stroke="#B73D46" stroke-width="0.5" stroke-miterlimit="10"/>
<path d="M267.718 254.69L252.5 353.967H302.171L309.18 287.366L313.516 353.967L361.859 352.431L349.937 245.392L267.718 254.69Z" fill="#F7F7F7"/>
<path d="M263.542 222.398L265.59 186.889" stroke="black" stroke-width="0.3" stroke-miterlimit="10"/>
<path d="M346.112 257.49C346.112 257.49 314.476 256.978 306.443 253.778C298.41 250.577 268.454 259.219 268.454 259.219L266.357 246.529L312.684 236.079L346.416 252.418L346.112 257.49Z" fill="#EAEAEA"/>
<path d="M277.175 221.389C277.175 221.389 268.182 220.925 261.669 224.142C255.156 227.358 261.941 236.943 261.941 236.943L273.751 236.351L310.555 243.088L313.5 227.934L277.175 221.389Z" fill="#E8878B"/>
<path d="M289.209 223.55C289.209 223.55 282.808 231.711 286.937 238.768L289.273 239.088L293.738 224.35L289.209 223.55Z" fill="#DD7A81"/>
<path d="M353.33 256.546L291.385 243.28C290.831 243.161 290.318 242.897 289.899 242.515C289.48 242.132 289.17 241.645 289.001 241.104C286.361 232.303 292.201 224.83 295.066 221.901C295.445 221.506 295.919 221.214 296.443 221.055C296.967 220.895 297.523 220.872 298.058 220.989L350.193 232.095L345.649 185.112L339.408 147.539C367.939 155.828 366.979 174.295 366.979 174.295L375.332 247.617C375.507 249.169 375.313 250.741 374.768 252.205C374.222 253.669 373.339 254.984 372.191 256.043C371.043 257.103 369.661 257.877 368.158 258.304C366.655 258.73 365.072 258.797 363.539 258.498L353.33 256.546Z" fill="#F7F7F7"/>
<path d="M316.077 140.915L327.054 158.821L320.109 161.317L321.565 166.902C321.565 166.902 307.979 184.504 305.659 198.618" stroke="black" stroke-width="0.3" stroke-miterlimit="10"/>
<path d="M309.179 287.382L305.659 198.634C303.355 184.568 286.168 167.558 286.168 167.558L287.609 161.973L280.68 159.477L291.641 141.571" stroke="black" stroke-width="0.3" stroke-miterlimit="10"/>
<path d="M350.193 232.351L324.414 238.319L307.003 246.625L313.212 247.969L345.825 239.072C347.195 238.699 348.388 237.85 349.189 236.677C349.99 235.503 350.346 234.083 350.193 232.671V232.351Z" fill="#EAEAEA"/>
<path d="M350.193 232.351L349.089 220.733C344.739 219.66 340.221 219.453 335.791 220.125L299.754 228.126L303.371 243.136L339.856 234.799L350.193 232.351Z" fill="#E8878B"/>
<path d="M323.854 222.798C323.854 222.798 330.639 230.671 326.782 237.904L324.462 238.32L319.373 223.806L323.854 222.798Z" fill="#DD7A81"/>
<path d="M260.773 258.579L322.077 242.576C322.63 242.444 323.138 242.167 323.549 241.773C323.96 241.38 324.258 240.884 324.413 240.336C326.669 231.439 320.412 224.222 317.516 221.47C317.123 221.089 316.638 220.815 316.108 220.675C315.579 220.535 315.022 220.533 314.492 220.67L262.885 234.031L265.397 186.889L270.006 149.092C241.874 158.693 243.634 177.016 243.634 177.016L238.466 250.626C238.357 252.183 238.617 253.745 239.224 255.183C239.831 256.622 240.769 257.897 241.962 258.906C243.154 259.914 244.567 260.627 246.087 260.988C247.606 261.348 249.189 261.345 250.707 260.979L260.773 258.579Z" fill="#F7F7F7"/>
<path d="M349.937 220.525L346.704 188.681" stroke="black" stroke-width="0.3" stroke-miterlimit="10"/>
<path d="M302.314 103.358C302.314 103.358 301.61 111.535 300.57 112.959C299.53 114.383 303.515 113.919 303.515 113.919" stroke="#B73D46" stroke-width="0.5" stroke-miterlimit="10"/>
<path d="M300.25 119.68C301.788 120.039 303.387 120.053 304.931 119.721C306.474 119.389 307.926 118.719 309.18 117.76" stroke="#B73D46" stroke-width="0.5" stroke-miterlimit="10"/>
<path d="M350.193 232.351C350.193 232.351 353.489 235.999 353.521 237.695" stroke="black" stroke-width="0.3" stroke-miterlimit="10"/>
<path d="M262.838 234.031C262.003 234.503 261.283 235.154 260.73 235.937C260.177 236.72 259.803 237.616 259.637 238.56" stroke="black" stroke-width="0.3" stroke-miterlimit="10"/>
<path d="M306.299 222.781L293.785 226.03" stroke="black" stroke-width="0.3" stroke-miterlimit="10"/>
<path d="M313.211 103.806C314.184 103.806 314.972 103.018 314.972 102.046C314.972 101.074 314.184 100.286 313.211 100.286C312.239 100.286 311.451 101.074 311.451 102.046C311.451 103.018 312.239 103.806 313.211 103.806Z" fill="#070707"/>
<path d="M309.003 99.6935L308.363 98.9254C309.788 97.7414 311.572 97.076 313.424 97.0382C315.275 97.0004 317.085 97.5924 318.557 98.7173L317.933 99.4854C316.647 98.4879 315.057 97.9639 313.431 98.0017C311.804 98.0396 310.241 98.6371 309.003 99.6935Z" fill="#070707"/>
<path d="M292.682 104.254C293.654 104.254 294.442 103.466 294.442 102.493C294.442 101.521 293.654 100.733 292.682 100.733C291.709 100.733 290.921 101.521 290.921 102.493C290.921 103.466 291.709 104.254 292.682 104.254Z" fill="#070707"/>
<path d="M288.473 100.157L287.833 99.3893C289.253 98.1971 291.038 97.5265 292.893 97.4886C294.747 97.4508 296.558 98.048 298.026 99.1813L297.402 99.9494C296.119 98.946 294.528 98.4184 292.9 98.4564C291.272 98.4943 289.707 99.0954 288.473 100.157Z" fill="#070707"/>
<path d="M324.83 65.5928C324.83 65.5928 336.255 87.8997 322.605 90.012C322.605 90.012 307.787 82.299 292.713 85.8514C292.713 85.8514 287.465 86.3155 286.313 90.124L286.121 81.5309L302.123 70.3294C302.123 70.3294 305.035 63.7045 303.723 62.4083L324.83 65.5928Z" fill="#070707"/>
<path d="M321.117 71.3533C321.117 71.3533 324.766 81.7066 318.285 82.3467" stroke="white" stroke-width="0.5" stroke-miterlimit="10"/>
<path d="M292.681 111.279C297.559 111.279 301.514 107.324 301.514 102.446C301.514 97.5673 297.559 93.6125 292.681 93.6125C287.802 93.6125 283.848 97.5673 283.848 102.446C283.848 107.324 287.802 111.279 292.681 111.279Z" stroke="#00A199" stroke-width="0.5" stroke-miterlimit="10"/>
<path d="M313.212 111.279C318.091 111.279 322.045 107.324 322.045 102.446C322.045 97.5673 318.091 93.6125 313.212 93.6125C308.334 93.6125 304.379 97.5673 304.379 102.446C304.379 107.324 308.334 111.279 313.212 111.279Z" stroke="#00A199" stroke-width="0.5" stroke-miterlimit="10"/>
<path d="M301.514 102.446H304.363" stroke="#F9EAEC" stroke-width="0.5" stroke-miterlimit="10"/>
<path d="M331.871 289.671C331.871 289.671 342.816 298.712 351.857 289.671" stroke="black" stroke-width="0.3" stroke-miterlimit="10"/>
<path d="M271.126 289.671C271.126 289.671 282.072 298.712 291.129 289.671" stroke="black" stroke-width="0.3" stroke-miterlimit="10"/>
<path d="M286.184 199.979C290.461 199.979 293.929 196.511 293.929 192.234C293.929 187.956 290.461 184.489 286.184 184.489C281.907 184.489 278.439 187.956 278.439 192.234C278.439 196.511 281.907 199.979 286.184 199.979Z" fill="#848484"/>
<path d="M286.184 194.746C287.572 194.746 288.697 193.621 288.697 192.234C288.697 190.846 287.572 189.721 286.184 189.721C284.797 189.721 283.672 190.846 283.672 192.234C283.672 193.621 284.797 194.746 286.184 194.746Z" fill="#070707"/>
<path d="M326.302 199.37L322.221 197.77C321.436 197.476 320.719 197.024 320.115 196.443C319.51 195.861 319.03 195.163 318.705 194.39C318.38 193.617 318.216 192.785 318.224 191.947C318.231 191.108 318.41 190.28 318.749 189.513L327.118 170.742C327.49 169.911 328.042 169.173 328.734 168.581C329.425 167.989 330.24 167.558 331.118 167.318L334.127 166.502C335.624 166.101 337.218 166.278 338.591 166.998L340.191 167.83C341.241 168.378 342.109 169.218 342.691 170.249C343.273 171.28 343.545 172.457 343.472 173.639L342.368 191.705C342.296 192.889 341.882 194.026 341.178 194.98C340.474 195.934 339.509 196.664 338.399 197.082L334.127 198.682" stroke="#070707" stroke-width="0.6" stroke-miterlimit="10"/>
<path d="M327.533 199.575C327.676 199.055 327.178 198.465 326.42 198.256C325.661 198.047 324.93 198.299 324.787 198.818C324.644 199.338 325.143 199.929 325.901 200.138C326.659 200.347 327.39 200.095 327.533 199.575Z" fill="#070707"/>
<path d="M334.12 199.732C334.876 199.513 335.367 198.917 335.217 198.399C335.068 197.881 334.334 197.638 333.578 197.856C332.823 198.074 332.331 198.671 332.481 199.189C332.63 199.707 333.364 199.95 334.12 199.732Z" fill="#070707"/>
<path d="M336.015 166.31C336.015 166.31 340.992 148.196 324.813 143.267" stroke="#070707" stroke-width="0.4" stroke-linecap="round" stroke-linejoin="round"/>
<path d="M279.495 145.939C279.495 145.939 273.095 156.437 286.184 191.498" stroke="#070707" stroke-width="0.4" stroke-linecap="round" stroke-linejoin="round"/>
</svg>
