<svg width="580" height="411" viewBox="0 0 580 411" fill="none" xmlns="http://www.w3.org/2000/svg">
<g clip-path="url(#clip0_1941_116)">
<path opacity="0.1" d="M192.781 410.509C221.02 410.509 243.912 406.832 243.912 402.297C243.912 397.761 221.02 394.085 192.781 394.085C164.542 394.085 141.65 397.761 141.65 402.297C141.65 406.832 164.542 410.509 192.781 410.509Z" fill="#00A199"/>
<path opacity="0.1" d="M470.724 410.74C505.962 410.74 534.528 407.063 534.528 402.528C534.528 397.992 505.962 394.315 470.724 394.315C435.486 394.315 406.92 397.992 406.92 402.528C406.92 407.063 435.486 410.74 470.724 410.74Z" fill="#00A199"/>
<path opacity="0.1" d="M7.26237 177.469H60.5189V250.057H11.1612C11.0301 250.803 10.9041 251.553 10.7677 252.303H60.5189V310.844C60.4297 310.818 60.351 310.786 60.267 310.755C58.8607 310.199 57.4649 309.611 56.069 308.981L55.177 308.577C53.7776 307.916 52.3783 307.216 50.979 306.478C50.491 306.221 50.003 305.953 49.5202 305.681C41.7518 301.329 34.6945 295.815 28.5933 289.329C28.4149 289.156 28.247 288.973 28.0686 288.805C27.2185 287.881 26.3841 286.947 25.576 285.992L24.684 284.943C23.7289 283.772 22.8054 282.571 21.908 281.353C21.7769 281.175 21.6509 280.996 21.5145 280.829C17.8651 275.769 14.835 270.29 12.4888 264.509C12.4154 264.336 12.3524 264.147 12.2842 263.984C11.5635 262.13 10.9251 260.258 10.3689 258.369C10.1275 257.577 9.8966 256.795 9.6972 255.971C9.62373 255.73 9.56076 255.494 9.50304 255.258C6.52248 243.624 6.1709 231.539 6.1709 219.538C6.1709 218.137 6.1709 216.731 6.1709 215.34C6.1709 210.486 6.22862 205.601 6.31258 200.721C6.31258 199.456 6.36505 198.197 6.39129 196.927C6.46476 193.705 6.56971 190.483 6.70614 187.261C6.73762 186.364 6.7796 185.472 6.82683 184.58C6.82683 184.065 6.85307 183.551 6.90554 183.037C7.03148 181.169 7.13643 179.316 7.26237 177.469Z" fill="#00A199"/>
<path opacity="0.1" d="M60.5193 96.6478H31.3066C36.0553 89.2152 41.2438 82.0729 46.8444 75.2592C51.184 69.9278 55.7651 64.7328 60.5193 59.7267V96.6478Z" fill="#00A199"/>
<path opacity="0.1" d="M60.5193 98.8937V175.223H7.43066C7.43066 175.003 7.4674 174.777 7.48314 174.557C7.53037 173.953 7.57759 173.35 7.63007 172.752C7.68779 172.049 7.75076 171.34 7.81898 170.653C7.88719 169.965 7.96066 169.126 8.03937 168.365C8.11808 167.604 8.19155 166.833 8.28075 166.072C8.36996 165.311 8.44867 164.55 8.54313 163.794C8.63758 163.039 8.72154 162.273 8.82124 161.517C8.89995 160.887 8.98391 160.263 9.06787 159.633C9.18856 158.746 9.3145 157.854 9.45094 156.973C9.45094 156.841 9.48767 156.705 9.50866 156.579C10.4664 150.126 11.7714 143.728 13.418 137.415C15.1416 130.793 17.3425 124.304 20.0036 118C22.8318 111.405 26.1432 105.027 29.9108 98.92L60.5193 98.8937Z" fill="#00A199"/>
<path opacity="0.1" d="M73.2334 177.464V250.057H186.983V177.464H73.2334ZM73.2334 252.298V314.638C73.8841 314.774 74.5295 314.906 75.1697 315.016C76.0408 315.184 76.9066 315.336 77.7934 315.467C77.9614 315.493 78.1345 315.52 78.3182 315.535C78.6645 315.593 79.0214 315.64 79.3677 315.687C80.244 315.808 81.1151 315.908 81.9914 315.987C82.406 316.029 82.8258 316.065 83.2456 316.097L84.2583 316.175C84.8093 316.217 85.355 316.249 85.8955 316.265C86.2314 316.265 86.5672 316.296 86.9135 316.307C87.1759 316.307 87.4383 316.307 87.7112 316.307C87.984 316.307 88.3723 316.307 88.7029 316.307C89.1542 316.307 89.6055 316.307 90.0515 316.307H90.655C91.1063 316.307 91.5575 316.307 92.0036 316.265H92.0351C92.3447 316.265 92.6595 316.265 92.9744 316.223C93.0617 316.228 93.1493 316.228 93.2367 316.223C93.4991 316.223 93.7615 316.223 94.0134 316.186H94.197L95.9549 316.05C96.5321 315.997 97.1146 315.929 97.7023 315.866L98.8987 315.724C103.766 315.042 108.58 314.018 113.303 312.66C123.913 309.7 134.293 305.56 144.898 302.527C158.61 298.617 173.759 296.697 187.009 301.477V252.298H73.2334ZM186.983 96.6478V0.00528572C174.529 -0.129639 162.109 1.32695 150.025 4.33969C121.221 11.5759 95.3777 27.2711 73.2334 47.3164V96.6426H78.9426V98.8833H73.2334V175.223H186.983V98.8885H102.383V96.6478H186.983ZM333.088 64.0034C325.962 63.7515 318.878 61.4951 312.471 58.0108C300.218 51.3465 290.431 41.0562 279.495 32.3716C256.774 14.2836 228.595 3.36891 199.687 0.661219V96.6478H362.07L362.474 96.2228L333.088 64.0034ZM347.88 61.3796L363.565 78.5913V56.8668C358.312 57.5175 353.71 59.0655 347.901 61.3586L347.88 61.3796ZM363.565 330.118V252.298H330.144C330.055 251.968 329.966 251.632 329.861 251.296C329.96 251.632 330.044 251.968 330.139 252.298H199.708V308.577C200.946 309.495 202.169 310.461 203.381 311.442C204.688 312.492 205.979 313.599 207.275 314.685L208.581 315.766C209.206 316.291 209.835 316.816 210.47 317.309C211.73 318.33 213.001 319.338 214.285 320.331C214.92 320.856 215.571 321.328 216.216 321.822C226.463 329.656 237.272 336.726 248.556 342.974C251.086 344.374 253.638 345.74 256.212 347.073C257.928 347.949 259.655 348.82 261.386 349.665C263.989 350.935 266.613 352.159 269.258 353.338C293.641 364.283 319.424 371.794 345.871 375.656C351.744 376.523 357.641 377.205 363.56 377.702V330.113H364.085L363.565 330.118ZM199.708 98.8885V175.223H363.586V98.8885H199.708ZM199.708 177.464V250.057H363.586V177.464H199.708ZM376.306 56.7724V81.0051L396.325 59.0393C389.692 57.9688 383.019 57.2044 376.306 56.7461V56.7724ZM376.306 177.49V250.057H535.698V177.464L376.306 177.49ZM535.115 335.88L535.677 252.298H376.306V378.536C386.573 378.968 396.855 378.845 407.109 378.169H407.287C412.185 377.861 417.06 377.413 421.912 376.826H422.022C447.908 373.813 473.22 367.059 497.166 356.775L535.115 335.88ZM566.432 189.418C565.834 188.006 565.209 186.605 564.574 185.22C563.389 182.596 562.134 180.046 560.844 177.496H548.407V250.057H579.85C579.834 229.508 574.634 208.519 566.448 189.392L566.432 189.418ZM548.407 252.324V324.215C557.265 315.724 564.748 306.011 570.137 294.908C576.617 281.537 579.582 267.059 579.824 252.314L548.407 252.324ZM548.407 156.338V175.229H559.679C556.269 168.726 552.511 162.411 548.423 156.312L548.407 156.338ZM440.309 71.014C439.48 70.6991 438.651 70.379 437.817 70.0694C429.017 66.8198 420.025 64.1175 410.892 61.9778L380.257 95.5983L379.67 96.2228L380.063 96.6531H489.095C473.91 86.2004 457.539 77.5851 440.325 70.9877L440.309 71.014ZM492.291 98.9147H378.541L376.306 100.961V175.223H395.9H395.931H535.719V139.252C523.073 123.959 508.478 110.389 492.306 98.8885L492.291 98.9147Z" fill="#00A199"/>
<path opacity="0.1" d="M60.5193 137.394V175.223H7.43066C7.43066 175.003 7.4674 174.777 7.48314 174.557C7.53037 173.953 7.57759 173.35 7.63007 172.752C7.68779 172.049 7.75076 171.34 7.81898 170.653C7.88719 169.965 7.96066 169.126 8.03937 168.365C8.11808 167.604 8.19155 166.833 8.28075 166.072C8.36996 165.311 8.44867 164.55 8.54313 163.794C8.63758 163.039 8.72154 162.273 8.82124 161.517C8.89995 160.887 8.98391 160.263 9.06787 159.633C9.18856 158.746 9.3145 157.854 9.45094 156.973C9.45094 156.842 9.48767 156.705 9.50866 156.579C10.4664 150.126 11.7714 143.728 13.418 137.415L60.5193 137.394Z" fill="#00A199"/>
<path opacity="0.1" d="M7.26237 177.469H60.5189V250.057H11.1612C11.0301 250.803 10.9041 251.553 10.7677 252.303H60.5189V310.844C60.4297 310.818 60.351 310.786 60.267 310.755C58.8607 310.199 57.4649 309.611 56.069 308.981L55.177 308.577C53.7776 307.916 52.3783 307.216 50.979 306.478C50.491 306.221 50.003 305.953 49.5202 305.681C41.7518 301.329 34.6945 295.815 28.5933 289.329C28.4149 289.156 28.247 288.973 28.0686 288.805C27.2185 287.881 26.3841 286.947 25.576 285.992L24.684 284.943C23.7289 283.772 22.8054 282.571 21.908 281.353C21.7769 281.175 21.6509 280.996 21.5145 280.829C17.8651 275.769 14.835 270.29 12.4888 264.509C12.4154 264.336 12.3524 264.147 12.2842 263.984C11.5635 262.13 10.9251 260.258 10.3689 258.369C10.1275 257.577 9.8966 256.795 9.6972 255.971C9.62373 255.73 9.56076 255.494 9.50304 255.258C6.52248 243.624 6.1709 231.539 6.1709 219.538C6.1709 218.137 6.1709 216.731 6.1709 215.34C6.1709 210.486 6.22862 205.601 6.31258 200.721C6.31258 199.456 6.36505 198.197 6.39129 196.927C6.46476 193.705 6.56971 190.483 6.70614 187.261C6.73762 186.364 6.7796 185.472 6.82683 184.58C6.82683 184.065 6.85307 183.551 6.90554 183.037C7.03148 181.169 7.13643 179.316 7.26237 177.469Z" fill="#00A199"/>
<path opacity="0.1" d="M113.277 109.819V175.223H73.2334V109.819H78.9426V87.6747H102.378V109.819H113.277Z" fill="#00A199"/>
<path opacity="0.1" d="M113.277 177.464H73.2388V250.052H113.277V177.464Z" fill="#00A199"/>
<path opacity="0.1" d="M73.2334 252.303H113.277V312.649C108.553 314.006 103.74 315.029 98.8725 315.708L97.6761 315.855C97.0884 315.924 96.5059 315.981 95.9287 316.039C95.3515 316.097 94.7532 316.139 94.1708 316.175H93.9871C93.7352 316.175 93.4624 316.207 93.2157 316.212H92.9481C92.6333 316.212 92.3184 316.244 92.0036 316.254C91.5575 316.28 91.1115 316.286 90.655 316.291C90.4608 316.291 90.2772 316.291 90.083 316.291C89.6317 316.291 89.1857 316.291 88.7344 316.291H87.7426C87.475 316.291 87.2179 316.291 86.9398 316.291L85.927 316.254C85.4023 316.254 84.8355 316.196 84.2898 316.16L83.2823 316.086L82.0281 315.971C81.1466 315.892 80.2702 315.792 79.4044 315.672L78.3549 315.525L77.8302 315.451C76.9538 315.315 76.088 315.168 75.2064 315C74.561 314.89 73.9208 314.753 73.2701 314.622L73.2334 252.303Z" fill="#00A199"/>
<path opacity="0.1" d="M363.587 102.095H330.57V175.218H363.587V102.095Z" fill="#00A199"/>
<path opacity="0.1" d="M363.592 177.464V250.057H199.708V218.746H287V237.217H330.569V177.464H363.592Z" fill="#00A199"/>
<path opacity="0.1" d="M364.111 330.134H363.586V377.754C357.674 377.254 351.78 376.574 345.902 375.713C319.443 371.839 293.649 364.313 269.258 353.348C262.216 350.179 255.317 346.719 248.562 342.969C237.278 336.718 226.467 329.648 216.217 321.816C213.642 319.843 211.1 317.825 208.592 315.761C206.855 314.328 205.129 312.859 203.381 311.432C202.169 310.45 200.946 309.485 199.708 308.561V252.303H330.134C330.045 251.967 329.955 251.632 329.861 251.301C329.961 251.632 330.055 251.967 330.144 252.303H363.586V330.102C363.765 330.107 363.938 330.123 364.111 330.134Z" fill="#00A199"/>
<path opacity="0.1" d="M449.697 96.6477H428.183V89.9625H437.828V70.0483C438.664 70.3527 439.496 70.6658 440.326 70.9876V89.9625H449.697V96.6477Z" fill="#00A199"/>
<path opacity="0.1" d="M501.532 175.223H395.911C395.911 175.223 395.911 175.223 395.948 175.25L395.9 175.223H376.306V102.1H381.858V156.149H407.23V124.139H428.188V98.8937H449.703V124.16H470.661V156.17H501.532V175.223Z" fill="#00A199"/>
<path opacity="0.1" d="M376.306 177.464V250.057H501.532V177.464H376.306ZM535.525 335.507L535.698 278.047H501.532V252.335H376.306V378.536C386.573 378.967 396.856 378.845 407.109 378.169H407.287C412.185 377.861 417.06 377.413 421.912 376.826H422.022C447.908 373.813 473.22 367.059 497.166 356.775" fill="#00A199"/>
<path opacity="0.1" d="M550.632 252.303H579.845C579.588 267.043 576.628 281.521 570.153 294.892C564.764 306.001 557.275 315.714 548.428 324.199V278.021H550.632V252.303Z" fill="#00A199"/>
<path opacity="0.1" d="M579.86 250.057H550.632V189.391H566.448C574.634 208.518 579.834 229.508 579.86 250.057Z" fill="#00A199"/>
<path opacity="0.1" d="M363.592 122.423H345.903V145.35H363.592V122.423Z" fill="#00A199"/>
<path opacity="0.1" d="M363.592 169.944H345.903V175.223H363.592V169.944Z" fill="#00A199"/>
<path opacity="0.1" d="M363.592 177.464H345.903V192.865H363.592V177.464Z" fill="#00A199"/>
<path opacity="0.1" d="M363.592 217.465H345.903V240.391H363.592V217.465Z" fill="#00A199"/>
<path opacity="0.1" d="M363.592 264.986H345.903V287.913H363.592V264.986Z" fill="#00A199"/>
<path opacity="0.1" d="M363.587 330.102C363.765 330.102 363.938 330.102 364.112 330.134H363.587V335.46H345.903V312.508H363.587V330.102Z" fill="#00A199"/>
<path opacity="0.1" d="M363.587 360.018V377.728C357.675 377.228 351.78 376.548 345.903 375.687V360.018H363.587Z" fill="#00A199"/>
<path opacity="0.1" d="M275.518 248.373H199.708V250.057H275.518V248.373Z" fill="#00A199"/>
<path opacity="0.1" d="M275.518 252.298H199.708V258.752H275.518V252.298Z" fill="#00A199"/>
<path opacity="0.1" d="M275.518 279.91H199.708V290.29H275.518V279.91Z" fill="#00A199"/>
<path opacity="0.1" d="M275.513 311.448V321.827H216.217C213.642 319.861 211.098 317.842 208.587 315.771C206.85 314.339 205.129 312.87 203.376 311.448H275.513Z" fill="#00A199"/>
<path opacity="0.1" d="M275.513 342.979V353.348H269.253C262.218 350.175 255.321 346.714 248.562 342.964L275.513 342.979Z" fill="#00A199"/>
<path opacity="0.1" d="M422.038 184.501H407.114V199.425H422.038V184.501Z" fill="#00A199"/>
<path opacity="0.1" d="M98.9096 114.967H83.9858V129.89H98.9096V114.967Z" fill="#00A199"/>
<path opacity="0.1" d="M98.9096 149.631H83.9858V164.555H98.9096V149.631Z" fill="#00A199"/>
<path opacity="0.1" d="M98.9096 184.296H83.9858V199.22H98.9096V184.296Z" fill="#00A199"/>
<path opacity="0.1" d="M98.9096 218.956H83.9858V233.879H98.9096V218.956Z" fill="#00A199"/>
<path opacity="0.1" d="M98.9096 253.62H83.9858V268.544H98.9096V253.62Z" fill="#00A199"/>
<path opacity="0.1" d="M98.9096 288.285H83.9858V303.209H98.9096V288.285Z" fill="#00A199"/>
<path opacity="0.1" d="M479.01 184.501H464.086V199.425H479.01V184.501Z" fill="#00A199"/>
<path opacity="0.1" d="M422.038 221.312H407.114V236.236H422.038V221.312Z" fill="#00A199"/>
<path opacity="0.1" d="M479.01 221.312H464.086V236.236H479.01V221.312Z" fill="#00A199"/>
<path opacity="0.1" d="M422.038 258.118H407.114V273.041H422.038V258.118Z" fill="#00A199"/>
<path opacity="0.1" d="M479.01 258.118H464.086V273.041H479.01V258.118Z" fill="#00A199"/>
<path opacity="0.1" d="M422.038 294.928H407.114V309.852H422.038V294.928Z" fill="#00A199"/>
<path opacity="0.1" d="M479.01 294.928H464.086V309.852H479.01V294.928Z" fill="#00A199"/>
<path opacity="0.1" d="M422.038 331.739H407.114V346.663H422.038V331.739Z" fill="#00A199"/>
<path opacity="0.1" d="M479.01 331.739H464.086V346.663H479.01V331.739Z" fill="#00A199"/>
<path opacity="0.1" d="M407.114 378.169V368.545H422.033V376.799L407.114 378.169Z" fill="#00A199"/>
<path opacity="0.1" d="M9.44531 156.569V165.106H60.5189V156.569H9.44531ZM14.5354 164.571H10.3689V157.093H14.5668L14.5354 164.571ZM19.6201 164.571H15.4222V157.093H19.6201V164.571ZM24.6944 164.571H20.4965V157.093H24.6944V164.571ZM29.7792 164.571H25.5865V157.093H29.7845L29.7792 164.571ZM34.8588 164.571H30.6608V157.093H34.8588V164.571ZM39.9436 164.571H35.7456V157.093H39.9436V164.571ZM45.0284 164.571H40.8304V157.093H45.0284V164.571ZM50.1079 164.571H45.9099V157.093H50.1079V164.571ZM55.1875 164.571H50.9895V157.093H55.1875V164.571ZM60.267 164.571H56.069V157.093H60.267V164.571Z" fill="#00A199"/>
<path opacity="0.1" d="M9.44531 181.41V189.948H60.5189V181.41H9.44531ZM14.5354 189.407H10.3689V181.951H14.5668L14.5354 189.407ZM19.6201 189.407H15.4222V181.951H19.6201V189.407ZM24.6944 189.407H20.4965V181.951H24.6944V189.407ZM29.7792 189.407H25.5865V181.951H29.7845L29.7792 189.407ZM34.8588 189.407H30.6608V181.951H34.8588V189.407ZM39.9436 189.407H35.7456V181.951H39.9436V189.407ZM45.0284 189.407H40.8304V181.951H45.0284V189.407ZM50.1079 189.407H45.9099V181.951H50.1079V189.407ZM55.1875 189.407H50.9895V181.951H55.1875V189.407ZM60.267 189.407H56.069V181.951H60.267V189.407Z" fill="#00A199"/>
<path opacity="0.1" d="M9.44531 206.262V214.815H60.5189V206.262H9.44531ZM14.5354 214.259H10.3689V206.797H14.5668L14.5354 214.259ZM19.6201 214.259H15.4222V206.797H19.6201V214.259ZM24.6944 214.259H20.4965V206.797H24.6944V214.259ZM29.7792 214.259H25.5865V206.797H29.7845L29.7792 214.259ZM34.8588 214.259H30.6608V206.797H34.8588V214.259ZM39.9436 214.259H35.7456V206.797H39.9436V214.259ZM45.0284 214.259H40.8304V206.797H45.0284V214.259ZM50.1079 214.259H45.9099V206.797H50.1079V214.259ZM55.1875 214.259H50.9895V206.797H55.1875V214.259ZM60.267 214.259H56.069V206.797H60.267V214.259Z" fill="#00A199"/>
<path opacity="0.1" d="M9.44531 231.114V239.641H60.5189V231.114H9.44531ZM14.5354 239.111H10.3689V231.644H14.5668L14.5354 239.111ZM19.6201 239.111H15.4222V231.644H19.6201V239.111ZM24.6944 239.111H20.4965V231.644H24.6944V239.111ZM29.7792 239.111H25.5865V231.644H29.7845L29.7792 239.111ZM34.8588 239.111H30.6608V231.644H34.8588V239.111ZM39.9436 239.111H35.7456V231.644H39.9436V239.111ZM45.0284 239.111H40.8304V231.644H45.0284V239.111ZM50.1079 239.111H45.9099V231.644H50.1079V239.111ZM55.1875 239.111H50.9895V231.644H55.1875V239.111ZM60.267 239.111H56.069V231.644H60.267V239.111Z" fill="#00A199"/>
<path opacity="0.1" d="M9.66602 255.961C9.87067 256.764 10.1016 257.566 10.3429 258.359V256.496H14.5409V263.958H12.295C12.3632 264.131 12.4314 264.32 12.4996 264.483H60.5192V255.961H9.66602ZM19.6362 263.958H15.4382V256.496H19.6362V263.958ZM24.7105 263.958H20.5125V256.496H24.7105V263.958ZM29.7953 263.958H25.5868V256.496H29.7848L29.7953 263.958ZM34.8748 263.958H30.6769V256.496H34.8748V263.958ZM39.9596 263.958H35.7617V256.496H39.9596V263.958ZM45.0444 263.958H40.8464V256.496H45.0444V263.958ZM50.124 263.958H45.926V256.496H50.124V263.958ZM55.2035 263.958H51.0055V256.496H55.2035V263.958ZM60.2831 263.958H56.0851V256.496H60.2831V263.958Z" fill="#00A199"/>
<path opacity="0.1" d="M21.5254 280.813C21.6566 280.981 21.7825 281.17 21.919 281.338H24.6949V284.922C24.994 285.278 25.2878 285.635 25.5922 285.971V281.317H29.7901V288.805H28.09C28.2579 288.978 28.4206 289.161 28.6147 289.329H60.535V280.813H21.5254ZM34.8592 288.805H30.6612V281.348H34.8592V288.805ZM39.944 288.805H35.746V281.348H39.944V288.805ZM45.0288 288.805H40.8308V281.348H45.0288V288.805ZM50.1083 288.805H45.9104V281.348H50.1083V288.805ZM55.1879 288.805H50.9899V281.348H55.1879V288.805ZM60.2674 288.805H56.0694V281.348H60.2674V288.805Z" fill="#00A199"/>
<path opacity="0.1" d="M49.541 305.659C50.0185 305.932 50.5065 306.184 50.9998 306.457V306.195H55.1978V308.556L56.0899 308.971V306.195H60.2878V310.734C60.3683 310.774 60.4527 310.805 60.5397 310.828V305.659H49.541Z" fill="#00A199"/>
<path opacity="0.1" d="M395.911 175.223H395.942H395.911ZM363.586 330.097H364.111H363.586ZM329.861 251.296C329.961 251.632 330.045 251.968 330.139 252.298C330.055 251.968 329.966 251.632 329.861 251.296ZM395.911 175.208H395.942H395.911ZM78.9639 96.6321V98.8727H102.404V96.6321H78.9639ZM363.586 330.097H364.111H363.586ZM329.861 251.296C329.961 251.632 330.045 251.968 330.139 252.298C330.055 251.968 329.966 251.632 329.861 251.296ZM395.911 175.208H395.942H395.911ZM363.586 330.081H364.111H363.586ZM329.861 251.296C329.961 251.632 330.045 251.968 330.139 252.298C330.055 251.968 329.966 251.632 329.861 251.296Z" fill="#00A199"/>
<path d="M242.223 199.23C242.223 199.23 240.155 198.942 240.155 195.93C240.155 192.918 238.676 187.292 238.676 187.292C238.676 187.266 237.395 177.495 235.627 175.942C233.858 174.389 231.586 165.269 231.586 165.269C231.586 165.269 231.198 160.32 230.406 159.255C229.613 158.19 228.543 155.582 226.963 151.862C225.384 148.141 218.798 145.565 218.798 145.565C218.798 145.565 206.892 138.659 203.518 136.408C203.211 136.223 202.924 136.007 202.662 135.762C202.075 134.991 199.514 134.975 199.514 134.975C199.246 133.286 198.989 131.344 198.905 129.586C198.905 129.397 198.905 129.208 198.879 129.019C202.641 126.795 205.475 123.289 206.86 119.144C206.923 118.944 206.976 118.734 207.033 118.535C207.259 118.461 207.466 118.34 207.642 118.181C207.819 118.022 207.96 117.828 208.057 117.611C208.361 116.934 208.366 116.142 208.744 115.512C209.185 114.767 210.024 114.368 210.686 113.807C212.354 112.39 212.785 110.003 212.706 107.83C212.653 106.072 212.37 104.299 212.48 102.551L212.512 102.11C212.543 101.848 212.58 101.586 212.627 101.334C212.884 100.032 213.446 98.8044 213.761 97.5136C214.075 96.2227 214.107 94.7691 213.372 93.6567C212.297 92.0247 210.056 91.6994 208.088 91.5315C205.858 91.3426 203.864 91.5892 202.437 89.7368C201.769 88.7687 201.017 87.8609 200.191 87.0239C199.897 86.751 197.042 85.0089 197.042 84.8934C194.256 83.603 191.098 83.3608 188.148 84.2112C186.668 84.6415 185.272 85.3447 183.771 85.6963C180.534 86.4624 176.808 85.6333 174.058 87.4857C172.526 88.5352 171.608 90.2039 170.747 91.8306C170.047 93.1704 169.337 94.5085 168.617 95.8449C167.457 98.0436 166.276 100.279 165.788 102.714C165.686 103.244 165.623 103.78 165.599 104.32V104.346C165.599 104.54 165.599 104.734 165.599 104.928V105.175C165.599 105.359 165.599 105.537 165.631 105.7C165.662 105.862 165.657 105.915 165.673 106.025C165.689 106.135 165.715 106.382 165.746 106.55C165.778 106.718 165.841 107.011 165.904 107.242C165.93 107.342 165.967 107.437 165.998 107.531C166.051 107.709 166.114 107.883 166.182 108.056C166.219 108.145 166.255 108.239 166.297 108.329C166.376 108.512 166.47 108.691 166.565 108.853C166.607 108.927 166.638 108.995 166.68 109.063C166.827 109.307 166.988 109.542 167.163 109.766C168.286 111.167 169.939 112.06 171.162 113.371C171.162 113.424 171.162 113.476 171.162 113.524C171.162 113.671 171.162 113.812 171.162 113.959C171.227 116.885 172.005 119.75 173.43 122.307C174.855 124.863 176.883 127.032 179.337 128.626C179.337 128.825 179.363 129.03 179.374 129.229C179.476 130.787 179.457 132.35 179.316 133.905C179.103 133.653 178.835 133.453 178.534 133.318C178.232 133.184 177.904 133.119 177.574 133.128C177.349 133.117 177.123 133.137 176.902 133.186L176.855 133.149V133.196C175.701 133.48 174.279 134.681 172.92 138.097C172.92 138.097 168.785 142.757 165.636 142.563C162.488 142.369 154.517 147.412 154.517 147.412C154.517 147.412 146.74 152.46 145.071 157.602C144.139 160.518 143.02 163.372 141.723 166.145L132.11 185.954L130.336 201.67C130.336 201.67 131.318 208.66 131.124 209.725C130.929 210.791 135.159 220.399 135.159 220.399C135.159 220.399 149.133 244.952 154.842 246.211L155.251 245.922C155.496 246.05 155.755 246.147 156.023 246.211L157.198 245.382C157.269 246.306 157.239 247.235 157.109 248.153C156.322 250.577 157.403 266.398 158.778 269.499C160.153 272.6 159.665 313.263 159.665 313.263L159.47 316.852C159.47 316.852 159.47 316.968 159.518 317.167L159.47 318.017L159.612 318.091C159.759 319.229 159.711 320.384 159.47 321.507C158.977 323.081 158.778 327.531 158.778 327.531C158.778 327.531 154.847 352.656 156.71 357.704C158.573 362.752 160.158 368.283 160.158 368.283C160.158 368.283 162.126 374.58 160.252 375.655C158.379 376.731 153.053 378.536 154.149 381.16C155.146 383.584 158.93 390.081 159.491 391.03L159.444 391.529L158.673 399.888C158.798 400.992 159.097 402.069 159.56 403.079C160.404 404.9 162.047 406.789 165.169 406.584C165.694 406.547 166.303 406.484 166.89 406.406C172.605 405.639 179.642 403.089 179.642 403.089C179.276 402.857 178.941 402.58 178.645 402.265C178.364 401.993 178.141 401.667 177.99 401.306C177.84 400.945 177.764 400.557 177.768 400.166C177.852 398.645 175.003 391.393 174.294 389.608C174.184 389.351 174.127 389.204 174.127 389.204C174.127 389.204 180.623 382.414 179.542 376.395C179.542 376.395 172.353 372.197 174.719 369.894C177.086 367.59 181.316 360.973 181.316 360.973C181.316 360.973 181.51 336.231 181.316 332.537C181.113 329.973 181.235 327.394 181.678 324.86C181.756 324.477 181.851 324.104 181.95 323.737C185.223 324.226 188.528 324.476 191.837 324.487C193.044 324.487 194.272 324.487 195.51 324.414C195.51 324.764 195.526 325.142 195.557 325.547C195.83 331.676 196.339 342.423 196.754 346.417C197.341 352.142 200.589 367.569 200.589 367.569C200.589 367.569 194.392 371.547 201.67 381.349C201.67 381.349 201.67 384.901 201.188 385.416C200.672 387.097 200.257 388.807 199.944 390.537C199.64 392.384 199.514 394.252 200.007 395.223C201.188 397.543 208.272 397.354 208.272 397.354L208.445 397.322C209.782 397.184 211.134 397.313 212.421 397.701C213.708 398.089 214.906 398.729 215.944 399.584C218.636 401.746 228.852 400.796 234.383 400.109C236.55 399.836 237.999 399.584 237.999 399.584C238.069 399.339 238.094 399.082 238.072 398.828C238.014 397.469 236.949 394.489 229.729 391.828C229.729 391.828 222.938 387.263 223.033 383.285H222.891H222.104C222.676 383.254 223.043 383.285 223.043 383.285C223.043 383.285 220.383 373.577 221.469 372.79C222.555 372.003 219.302 361.246 219.302 361.246C219.302 361.246 217.439 343.195 217.339 341.93C217.344 340.845 217.508 339.766 217.827 338.729L217.339 328.832C217.339 328.832 217.245 325.542 217.339 324.472C217.323 323.542 217.248 322.615 217.114 321.696C217.066 321.328 217.019 320.945 216.967 320.568C219.512 319.922 221.165 319.324 221.165 319.324L220.871 284.874C223.033 280.676 223.432 271.467 223.421 264.934C223.421 260.736 223.232 257.629 223.232 257.629L226.187 252.807C226.187 252.807 226.869 247.035 225.788 245.77C225.31 245.198 225.525 244.605 225.919 244.117C226.123 243.955 226.339 243.808 226.564 243.676C226.564 243.676 226.533 243.629 226.496 243.561C226.702 243.389 226.922 243.233 227.152 243.094C227.152 243.094 226.103 241.467 227.042 240.78C227.924 241.378 228.711 241.829 229.309 242.197C229.267 242.58 229.225 242.8 229.225 242.8L229.477 242.275C230.054 242.601 230.406 242.8 230.406 242.8C230.406 242.8 235.034 233.58 234.934 232.221C234.834 230.862 238.083 225.137 238.083 225.137C238.083 225.137 238.476 222.13 240.25 220.871C242.023 219.612 241.625 210.486 241.625 210.486C241.625 210.486 242.118 205.732 243.299 203.79C244.479 201.849 242.223 199.23 242.223 199.23ZM153.667 195.185L153.756 197.383C153.231 196.538 152.853 195.93 152.853 195.93L153.667 195.185Z" fill="url(#paint0_linear_1941_116)"/>
<path d="M230.657 238.817L229.524 243.645C229.524 243.645 220.446 239.012 218.809 233.124C217.171 227.236 221.548 225.001 221.548 225.001L230.007 228.585L230.657 238.817Z" fill="white"/>
<path opacity="0.1" d="M230.657 238.817L229.524 243.645C229.524 243.645 220.446 239.012 218.809 233.124C217.171 227.236 221.548 225.001 221.548 225.001L230.007 228.585L230.657 238.817Z" fill="black"/>
<path d="M179.71 403.121C179.71 403.121 171.314 406.206 165.542 406.595C162.477 406.799 160.866 404.921 160.037 403.11C159.584 402.104 159.292 401.033 159.171 399.936L159.922 391.618L160.321 387.189L172.584 384.004L174.321 389.315L174.483 389.719C175.181 391.492 177.978 398.708 177.894 400.214C177.891 400.599 177.965 400.982 178.113 401.338C178.261 401.694 178.479 402.017 178.755 402.286C179.036 402.604 179.357 402.884 179.71 403.121Z" fill="white"/>
<path d="M237.059 398.891C237.08 399.144 237.055 399.398 236.986 399.642C236.986 399.642 219.029 402.638 215.356 399.642C214.32 398.766 213.113 398.117 211.812 397.736C210.51 397.355 209.144 397.249 207.799 397.427C207.799 397.427 200.852 397.616 199.692 395.328C199.209 394.368 199.335 392.505 199.634 390.669C199.939 388.948 200.346 387.246 200.852 385.573L201.13 385.353L202.783 384.025L222.135 383.453H222.282C222.188 387.41 228.852 391.949 228.852 391.949C235.931 394.573 236.975 397.537 237.059 398.891Z" fill="white"/>
<path opacity="0.1" d="M237.059 398.891C237.077 399.144 237.051 399.398 236.98 399.642C236.98 399.642 219.029 402.638 215.356 399.642C214.321 398.767 213.114 398.118 211.814 397.737C210.514 397.355 209.148 397.25 207.804 397.427C207.804 397.427 200.852 397.616 199.697 395.328C199.214 394.363 199.335 392.505 199.634 390.668C202.31 390.936 206.535 391.602 208.193 393.192C210.701 395.612 214.952 398.025 217.56 398.214C219.601 398.345 231.812 398.734 237.059 398.891Z" fill="black"/>
<path opacity="0.1" d="M179.71 403.121C179.71 403.121 171.314 406.206 165.542 406.594C162.477 406.799 160.866 404.92 160.042 403.105C162.178 403.824 165.143 404.579 166.702 403.887C168.549 403.068 175.097 402.538 178.771 402.312C179.05 402.619 179.366 402.89 179.71 403.121Z" fill="black"/>
<path d="M192.168 154.47C185.241 151.778 176.331 142.883 178.556 138.727C179.05 137.679 179.344 136.547 179.422 135.39C179.565 133.82 179.586 132.241 179.485 130.667C179.329 128.09 179.018 125.525 178.556 122.985C178.556 122.985 200.181 123.473 198.921 126.658C198.554 127.592 198.496 129.214 198.596 131.029C198.696 132.845 198.958 134.897 199.231 136.634C199.609 139.016 199.986 140.832 199.986 140.832C199.986 140.832 198.664 142.684 197.887 142.784C197.111 142.883 202.106 158.306 192.168 154.47Z" fill="#CF6F80"/>
<path opacity="0.1" d="M174.468 389.719L174.305 389.897C167.84 382.078 160.022 391.823 160.022 391.823L159.906 391.618L160.305 387.189L172.568 384.004L174.305 389.315L174.468 389.719Z" fill="black"/>
<path opacity="0.1" d="M222.288 384.004C222.288 384.004 217.565 383.904 215.046 386.129C212.528 388.354 200.354 386.612 200.878 386.129C201.034 385.89 201.128 385.616 201.151 385.332L202.804 384.004L222.157 383.432C222.23 383.784 222.288 384.004 222.288 384.004Z" fill="black"/>
<path d="M182.512 322.604C182.16 323.473 181.893 324.375 181.715 325.296C181.277 327.817 181.155 330.384 181.352 332.936C181.547 336.609 181.352 361.225 181.352 361.225C181.352 361.225 177.202 367.79 174.888 370.104C172.573 372.418 179.61 376.574 179.61 376.574C180.66 382.556 174.3 389.315 174.3 389.315C167.835 381.496 160.016 391.246 160.016 391.246C160.016 391.246 155.766 383.899 154.706 381.276C153.646 378.652 158.857 376.836 160.688 375.771C162.519 374.706 160.599 368.424 160.599 368.424C160.599 368.424 159.051 362.92 157.214 357.898C155.377 352.876 159.24 327.877 159.24 327.877C159.24 327.877 159.439 323.438 159.917 321.89C160.157 320.773 160.205 319.623 160.058 318.49C160.027 318.107 159.99 317.786 159.964 317.571C159.938 317.356 159.917 317.256 159.917 317.256L159.99 317.131L162.614 312.24C162.614 312.24 183.772 319.523 182.512 322.604Z" fill="#00A199"/>
<path d="M222.288 383.427C222.288 383.427 217.565 383.327 215.046 385.526C212.528 387.725 200.353 386.009 200.878 385.526C201.403 385.043 201.361 381.47 201.361 381.47C194.219 371.72 200.311 367.763 200.311 367.763C200.311 367.763 197.121 352.414 196.544 346.721C196.14 342.743 195.641 332.054 195.374 325.951C195.258 323.328 195.19 321.523 195.19 321.523L201.025 320.347L201.776 320.195L215.849 317.372C215.849 317.372 216.238 319.996 216.5 322.142C216.631 323.058 216.704 323.982 216.72 324.907C216.626 325.957 216.72 329.242 216.72 329.242L217.198 339.091C216.886 340.124 216.725 341.197 216.72 342.276C216.815 343.53 218.646 361.487 218.646 361.487C218.646 361.487 221.831 372.203 220.745 372.974C219.659 373.745 222.288 383.427 222.288 383.427Z" fill="#00A199"/>
<path opacity="0.1" d="M198.921 126.658C198.553 127.592 198.496 129.214 198.595 131.029C195.699 132.774 192.369 133.665 188.988 133.602C185.608 133.539 182.313 132.524 179.484 130.672C179.328 128.094 179.018 125.527 178.555 122.985C178.555 122.985 200.18 123.462 198.921 126.658Z" fill="black"/>
<path d="M207.28 115.061C207.284 116.952 206.987 118.832 206.399 120.629C205.084 124.655 202.388 128.088 198.788 130.319C195.187 132.55 190.914 133.437 186.722 132.822C182.531 132.207 178.693 130.131 175.885 126.959C173.077 123.788 171.48 119.726 171.377 115.491C171.377 115.344 171.377 115.208 171.377 115.061C171.336 112.677 171.771 110.31 172.655 108.096C173.539 105.882 174.855 103.866 176.526 102.166C178.197 100.466 180.19 99.1154 182.389 98.1937C184.587 97.272 186.947 96.7973 189.331 96.7973C191.715 96.7973 194.075 97.272 196.274 98.1937C198.473 99.1154 200.466 100.466 202.137 102.166C203.808 103.866 205.124 105.882 206.008 108.096C206.892 110.31 207.326 112.677 207.286 115.061H207.28Z" fill="#CF6F80"/>
<path opacity="0.1" d="M192.168 154.47C185.241 151.778 176.331 142.883 178.556 138.727C179.05 137.678 179.344 136.546 179.422 135.39L188.904 143.182L194.77 147.994L199.231 136.639C199.609 139.021 199.986 140.837 199.986 140.837C199.986 140.837 198.664 142.689 197.887 142.789C197.111 142.888 202.106 158.305 192.168 154.47Z" fill="black"/>
<path d="M216.688 188.909L208.77 321.932L198.443 322.609L171.702 245.476L176.089 153.903L177.012 134.555L188.903 144.321L194.775 149.133L199.366 137.447L207.904 144.888L216.688 188.909Z" fill="#00A199"/>
<path opacity="0.1" d="M182.512 322.604C182.16 323.473 181.893 324.375 181.714 325.296C174.2 324.135 166.902 321.855 160.063 318.532L159.921 318.458L159.969 317.613L159.995 317.172L162.619 312.282C162.619 312.282 183.771 319.523 182.512 322.604Z" fill="black"/>
<path opacity="0.1" d="M201.146 325.317C199.225 325.643 197.288 325.864 195.342 325.978C195.227 323.354 195.159 321.549 195.159 321.549L200.994 320.373L201.146 325.317Z" fill="black"/>
<path opacity="0.1" d="M216.468 322.168C212.737 323.139 206.976 324.23 201.817 323.548L201.744 320.221L215.818 317.398C215.818 317.398 216.206 319.996 216.468 322.168Z" fill="black"/>
<path opacity="0.1" d="M201.723 324.157C180.209 327.83 160.504 317.298 160.504 317.298L160.693 313.73C160.693 313.73 161.181 273.277 159.827 270.176C158.474 267.075 157.419 251.348 158.185 248.934C158.951 246.521 155.388 210.324 155.388 210.324L154.811 195.631L133.685 187.072L143.13 167.384C144.406 164.623 145.503 161.784 146.415 158.883C148.057 153.772 155.682 148.75 155.682 148.75C155.682 148.75 163.501 143.733 166.591 143.922C169.682 144.111 173.733 139.483 173.733 139.483C176.724 131.858 179.432 135.311 179.432 135.311C179.432 135.673 179.432 135.311 179.285 136.439C178.236 144.809 196.255 171.256 196.512 171.723L198.228 213.524L199.965 266.424L201.723 324.157Z" fill="black"/>
<path d="M201.146 324.157C179.631 327.83 159.922 317.298 159.922 317.298L160.116 313.73C160.116 313.73 160.604 273.277 159.245 270.176C157.886 267.075 156.836 251.348 157.607 248.934C158.379 246.521 154.811 210.324 154.811 210.324L154.228 195.631L133.091 187.041L142.537 167.352C143.81 164.591 144.907 161.751 145.822 158.851C147.459 153.74 155.089 148.718 155.089 148.718C155.089 148.718 162.907 143.702 165.993 143.891C169.078 144.08 173.135 139.451 173.135 139.451C176.131 131.827 179.432 135.28 179.432 135.28C179.432 135.642 179.117 135.804 179.285 136.408C181.594 144.526 195.678 171.225 195.935 171.692L197.672 213.493L199.409 266.393L201.146 324.157Z" fill="white"/>
<path opacity="0.1" d="M195.347 172.883C193.033 171.917 180.775 157.922 180.775 157.922V154.737C180.329 153.688 177.679 154.328 175.527 155.062L176.451 135.715L177.5 136.586C179.799 144.699 195.079 172.416 195.347 172.883Z" fill="black"/>
<path d="M195.929 171.723C193.61 170.758 181.352 156.763 181.352 156.763V153.578C180.906 152.528 178.256 153.168 176.104 153.903L177.033 134.555L178.083 135.427C180.386 143.539 195.672 171.261 195.929 171.723Z" fill="white"/>
<path opacity="0.1" d="M160.504 241.52C160.793 241.52 175.465 239.977 175.465 239.977C175.465 239.977 184.349 257.446 183.766 261.696C183.184 265.947 182.129 269.709 178.556 269.043C174.982 268.376 159.324 269.568 159.324 269.568L160.504 241.52Z" fill="black"/>
<path d="M159.921 240.36C160.21 240.36 174.882 238.817 174.882 238.817C174.882 238.817 183.761 256.291 183.183 260.536C182.606 264.782 181.541 268.549 177.973 267.883C174.404 267.216 158.741 268.408 158.741 268.408L159.921 240.36Z" fill="white"/>
<path d="M170.978 232.158C170.978 232.158 184.443 239.394 184.732 241.604C185.02 243.813 177.878 240.638 176.336 240.255C175.32 240.01 174.287 239.849 173.245 239.772L162.955 240.05L170.978 232.158Z" fill="#CF6F80"/>
<path opacity="0.1" d="M191.59 173.785C192.373 173.785 193.007 173.151 193.007 172.369C193.007 171.586 192.373 170.952 191.59 170.952C190.808 170.952 190.173 171.586 190.173 172.369C190.173 173.151 190.808 173.785 191.59 173.785Z" fill="black"/>
<path d="M191.59 173.208C192.373 173.208 193.007 172.574 193.007 171.791C193.007 171.009 192.373 170.375 191.59 170.375C190.808 170.375 190.173 171.009 190.173 171.791C190.173 172.574 190.808 173.208 191.59 173.208Z" fill="#3F3D56"/>
<path opacity="0.1" d="M194.198 235.118C194.981 235.118 195.615 234.483 195.615 233.701C195.615 232.918 194.981 232.284 194.198 232.284C193.416 232.284 192.781 232.918 192.781 233.701C192.781 234.483 193.416 235.118 194.198 235.118Z" fill="black"/>
<path d="M194.198 234.535C194.981 234.535 195.615 233.901 195.615 233.119C195.615 232.336 194.981 231.702 194.198 231.702C193.416 231.702 192.781 232.336 192.781 233.119C192.781 233.901 193.416 234.535 194.198 234.535Z" fill="#3F3D56"/>
<path opacity="0.1" d="M193.002 204.452C193.784 204.452 194.419 203.817 194.419 203.035C194.419 202.252 193.784 201.618 193.002 201.618C192.219 201.618 191.585 202.252 191.585 203.035C191.585 203.817 192.219 204.452 193.002 204.452Z" fill="black"/>
<path d="M193.002 203.874C193.784 203.874 194.419 203.24 194.419 202.458C194.419 201.675 193.784 201.041 193.002 201.041C192.219 201.041 191.585 201.675 191.585 202.458C191.585 203.24 192.219 203.874 193.002 203.874Z" fill="#3F3D56"/>
<path d="M225.662 239.479C225.662 239.479 226.627 240.927 225.662 241.604C224.696 242.281 225.756 243.918 225.756 243.918C225.756 243.918 223.348 245.329 224.408 246.599C225.468 247.869 224.796 253.605 224.796 253.605L221.899 258.401C221.899 258.401 222.073 261.492 222.083 265.669C222.083 272.186 221.7 281.348 219.58 285.525L219.874 319.796C219.874 319.796 209.731 323.501 201.24 322.373L199.981 267.379C199.981 267.379 201.817 236.194 202.494 230.211C202.89 227.106 203.052 223.975 202.977 220.845C202.977 220.845 202.688 211.483 201.718 207.138C201.718 207.138 200.668 188.316 200.563 183.105C200.516 180.612 200.647 173.339 200.794 166.423C200.957 158.862 201.14 151.73 201.14 151.73L199.225 136.576C199.225 136.576 201.14 136.382 201.718 137.153C201.976 137.394 202.257 137.611 202.557 137.798C205.863 140.034 217.544 146.908 217.544 146.908C217.544 146.908 224.009 149.479 225.557 153.163C227.105 156.847 228.181 159.46 228.931 160.509C229.681 161.559 230.091 166.492 230.091 166.492C230.091 166.492 232.316 175.57 234.053 177.107C235.789 178.645 237.059 188.426 237.059 188.426L221.71 200.495C221.71 200.495 220.362 220.572 220.073 221.349C219.785 222.125 225.662 239.479 225.662 239.479Z" fill="white"/>
<path d="M226.244 239.479C226.244 239.479 227.205 240.927 226.244 241.604C225.284 242.281 226.334 243.918 226.334 243.918C226.334 243.918 223.941 245.345 224.99 246.615C226.04 247.885 225.379 253.62 225.379 253.62L222.482 258.417C222.482 258.417 222.655 261.507 222.671 265.684C222.671 272.202 222.288 281.364 220.168 285.541L220.456 319.812C220.456 319.812 210.297 323.517 201.817 322.388L200.563 267.395C200.563 267.395 202.4 236.209 203.077 230.227C203.473 227.122 203.633 223.99 203.554 220.861C203.554 220.861 203.266 211.499 202.3 207.154C202.3 207.154 201.251 188.331 201.141 183.121C201.093 180.628 201.23 173.355 201.371 166.439C201.534 158.877 201.718 151.746 201.718 151.746L199.188 136.387C199.188 136.387 201.718 136.387 202.3 137.169C202.556 137.413 202.838 137.629 203.14 137.814C206.446 140.05 218.132 146.924 218.132 146.924C218.132 146.924 224.591 149.495 226.139 153.179C227.687 156.862 228.763 159.476 229.519 160.525C230.274 161.575 230.673 166.507 230.673 166.507C230.673 166.507 232.898 175.585 234.635 177.123C236.372 178.66 237.626 188.421 237.626 188.421L222.277 200.49C222.277 200.49 220.929 220.567 220.635 221.343C220.341 222.12 226.244 239.479 226.244 239.479Z" fill="white"/>
<path opacity="0.1" d="M207.863 156.201L209.248 160.242L201.954 167.588C202.117 160.032 202.3 152.895 202.3 152.895L199.771 137.536C199.771 137.536 202.3 137.536 202.883 138.318C203.138 138.562 203.42 138.776 203.722 138.958L209.925 156.852L207.863 156.201Z" fill="black"/>
<path d="M207.28 155.041L208.671 159.082L201.377 166.428C201.539 158.867 201.723 151.736 201.723 151.736L199.188 136.376C199.188 136.376 201.723 136.376 202.3 137.158C202.558 137.401 202.839 137.617 203.14 137.804L209.348 155.692L207.28 155.041Z" fill="white"/>
<path opacity="0.1" d="M207.28 115.061C207.284 116.952 206.987 118.832 206.399 120.629C206.3 120.644 206.198 120.64 206.101 120.615C206.004 120.591 205.912 120.547 205.832 120.487C205.696 115.764 203.371 111.33 200.511 107.557C199.708 106.418 198.735 105.409 197.625 104.566C196.503 103.723 195.107 103.329 193.71 103.459C192.136 103.674 190.746 104.745 189.156 104.881C187.057 105.054 185.178 103.601 183.095 103.527C182.248 103.535 181.412 103.724 180.644 104.08C179.876 104.437 179.193 104.953 178.64 105.595C177.545 106.889 176.732 108.398 176.252 110.024C175.427 112.489 174.978 115.065 174.919 117.664C174.893 119.133 174.751 120.975 173.387 121.51C173.49 120.43 173.367 119.34 173.026 118.309C172.686 117.278 172.135 116.33 171.409 115.523L171.377 115.491C171.377 115.344 171.377 115.208 171.377 115.061C171.336 112.677 171.771 110.31 172.655 108.096C173.539 105.882 174.855 103.866 176.526 102.166C178.197 100.466 180.19 99.1154 182.389 98.1937C184.587 97.272 186.947 96.7973 189.331 96.7973C191.715 96.7973 194.075 97.272 196.274 98.1937C198.473 99.1154 200.466 100.466 202.137 102.166C203.808 103.866 205.124 105.882 206.008 108.096C206.892 110.31 207.326 112.677 207.286 115.061H207.28Z" fill="black"/>
<path d="M196.764 86.5516C194.037 85.269 190.936 85.0264 188.043 85.8695C186.589 86.2998 185.22 86.9977 183.745 87.3492C180.597 88.1101 176.924 87.2863 174.221 89.1281C172.72 90.1776 171.818 91.8358 170.978 93.4468L168.879 97.4454C167.735 99.6336 166.581 101.858 166.103 104.267C165.626 106.676 165.914 109.373 167.441 111.309C168.554 112.721 170.196 113.608 171.403 114.935C172.126 115.743 172.675 116.691 173.014 117.72C173.354 118.75 173.477 119.838 173.376 120.917C174.746 120.393 174.877 118.545 174.908 117.076C174.967 114.477 175.416 111.901 176.241 109.436C176.72 107.809 177.533 106.301 178.629 105.007C179.182 104.366 179.866 103.85 180.634 103.494C181.402 103.137 182.237 102.948 183.084 102.939C185.183 103.013 187.067 104.461 189.145 104.288C190.719 104.157 192.115 103.081 193.7 102.871C195.097 102.739 196.493 103.134 197.614 103.978C198.724 104.82 199.696 105.829 200.495 106.97C203.36 110.742 205.685 115.166 205.821 119.899C206.414 120.335 207.27 119.768 207.563 119.096C207.857 118.425 207.868 117.638 208.24 116.997C208.671 116.258 209.495 115.864 210.14 115.308C211.777 113.896 212.186 111.519 212.124 109.362C212.061 107.206 211.641 105.017 212.05 102.897C212.297 101.596 212.853 100.379 213.157 99.0931C213.462 97.8074 213.498 96.3644 212.779 95.2572C211.73 93.6305 209.521 93.3104 207.595 93.1582C205.407 92.9693 203.449 93.2107 202.054 91.3688C201.398 90.4077 200.661 89.5052 199.85 88.6716C199.572 88.3987 196.764 86.6671 196.764 86.5516Z" fill="#512E4E"/>
<path opacity="0.1" d="M139.729 197.21L134.246 187.072L132.509 202.715C132.509 202.715 133.474 209.662 133.28 210.728C133.086 211.793 137.237 221.343 137.237 221.343C137.237 221.343 150.948 245.765 156.547 247.024L175.465 233.507L170.448 227.137C170.448 227.137 168.711 226.46 168.276 227.137C168.276 227.137 158.961 211.111 157.996 209.951C157.03 208.791 157.219 206.477 157.219 206.477C157.219 206.477 155.771 204.935 156.254 203.486C156.736 202.038 153.457 197.016 153.457 197.016L156.448 194.219L139.729 197.21Z" fill="black"/>
<path d="M134.534 185.918L133.086 187.072L131.349 202.715C131.349 202.715 132.315 209.662 132.12 210.728C131.926 211.793 136.082 221.343 136.082 221.343C136.082 221.343 149.789 245.765 155.388 247.024L174.31 233.507L169.288 227.136C169.288 227.136 167.551 226.46 167.116 227.136C167.116 227.136 157.802 211.111 156.836 209.951C155.871 208.791 156.065 206.477 156.065 206.477C156.065 206.477 154.616 204.934 155.099 203.486C155.582 202.038 152.297 197.016 152.297 197.016L155.288 194.219L134.534 185.918Z" fill="white"/>
<path opacity="0.1" d="M224.408 247.197C225.457 248.473 224.796 254.198 224.796 254.198L221.899 258.994C221.899 258.994 222.072 262.09 222.083 266.262L217.213 267.783C216.773 267.921 216.307 267.951 215.852 267.871C215.398 267.792 214.97 267.605 214.603 267.326C214.235 267.047 213.94 266.685 213.742 266.268C213.543 265.852 213.447 265.395 213.461 264.934L214.301 237.852L225.662 242.197C224.696 242.868 225.756 244.516 225.756 244.516C225.756 244.516 223.348 245.922 224.408 247.197Z" fill="black"/>
<path d="M224.99 246.615C226.04 247.89 225.379 253.62 225.379 253.62L222.482 258.417C222.482 258.417 222.655 261.507 222.671 265.684L217.712 267.232C217.281 267.366 216.824 267.395 216.38 267.317C215.935 267.239 215.516 267.055 215.157 266.782C214.797 266.509 214.508 266.154 214.314 265.747C214.12 265.34 214.025 264.892 214.039 264.441L214.884 237.274L226.25 241.619C225.279 242.291 226.339 243.934 226.339 243.934C226.339 243.934 223.941 245.345 224.99 246.615Z" fill="white"/>
<path d="M228.753 233.706C228.753 233.706 227.982 238.634 226.05 238.922C224.119 239.211 223.254 246.893 221.328 246.62C219.402 246.348 220.677 239.479 220.745 238.146C220.813 236.813 218.646 231.293 220.268 230.038C221.889 228.784 227.021 230.038 227.021 230.038L228.753 233.706Z" fill="#CF6F80"/>
<path opacity="0.1" d="M232.862 195.762L236.503 188.415C236.503 188.415 237.952 194.015 237.952 197.006C237.952 199.997 239.977 200.29 239.977 200.29C239.977 200.29 242.197 202.914 241.027 204.824C239.857 206.734 239.384 211.489 239.384 211.489C239.384 211.489 239.767 220.561 238.03 221.816C236.294 223.07 235.931 226.066 235.931 226.066C235.931 226.066 232.741 231.76 232.841 233.113C232.94 234.467 228.401 243.635 228.401 243.635C228.401 243.635 230.621 232.242 217.686 227.32C217.686 227.32 217.586 223.453 218.552 222.393C219.517 221.333 221.023 220.85 220.079 215.492C219.134 210.135 219.806 203.733 219.806 202.447C219.806 201.162 222.703 193.143 222.703 193.143L232.862 195.762Z" fill="black"/>
<path d="M234.436 187.366L237.616 188.415C237.616 188.415 239.069 194.015 239.069 197.006C239.069 199.997 241.095 200.29 241.095 200.29C241.095 200.29 243.314 202.914 242.144 204.824C240.974 206.734 240.507 211.489 240.507 211.489C240.507 211.489 240.89 220.561 239.153 221.816C237.416 223.07 237.028 226.066 237.028 226.066C237.028 226.066 233.843 231.76 233.942 233.113C234.042 234.467 229.498 243.635 229.498 243.635C229.498 243.635 231.723 232.242 218.783 227.32C218.783 227.32 218.688 223.453 219.654 222.393C220.619 221.333 222.125 220.85 221.181 215.492C220.236 210.135 220.908 203.733 220.908 202.447C220.908 201.162 223.804 193.143 223.804 193.143L234.436 187.366Z" fill="white"/>
<path opacity="0.1" d="M164.199 377.781C164.199 377.781 169.268 374.596 172.595 376.91C175.922 379.224 164.199 377.781 164.199 377.781Z" fill="black"/>
<path opacity="0.1" d="M203.586 367.931C203.586 367.931 208.073 367.354 211.84 371.41C215.608 375.466 203.586 367.931 203.586 367.931Z" fill="black"/>
<g opacity="0.1">
<path opacity="0.1" d="M210.15 114.158C209.504 114.715 208.675 115.113 208.245 115.853C207.878 116.488 207.867 117.27 207.573 117.952C207.279 118.634 206.424 119.191 205.831 118.76C205.695 114.038 203.365 109.603 200.505 105.825C199.705 104.685 198.733 103.676 197.624 102.834C196.501 101.99 195.103 101.595 193.704 101.727C192.13 101.942 190.745 103.013 189.155 103.144C187.056 103.322 185.172 101.869 183.089 101.795C182.242 101.804 181.407 101.993 180.639 102.35C179.872 102.708 179.19 103.225 178.639 103.868C177.543 105.16 176.73 106.667 176.251 108.292C175.427 110.757 174.977 113.333 174.918 115.932C174.887 117.396 174.75 119.222 173.396 119.768C173.428 120.155 173.428 120.545 173.396 120.933C174.761 120.408 174.897 118.561 174.929 117.092C174.987 114.492 175.437 111.917 176.262 109.451C176.741 107.825 177.554 106.316 178.649 105.022C179.202 104.382 179.884 103.866 180.651 103.509C181.419 103.153 182.253 102.964 183.099 102.955C185.198 103.028 187.087 104.477 189.165 104.304C190.739 104.172 192.135 103.097 193.715 102.887C195.114 102.755 196.511 103.15 197.635 103.994C198.744 104.836 199.716 105.845 200.515 106.985C203.375 110.758 205.705 115.182 205.842 119.915C206.435 120.35 207.29 119.784 207.584 119.112C207.878 118.44 207.888 117.653 208.255 117.013C208.686 116.273 209.515 115.879 210.16 115.323C211.797 113.912 212.207 111.535 212.144 109.378C212.144 109.31 212.144 109.241 212.144 109.178C212.044 111.047 211.546 112.951 210.15 114.158Z" fill="black"/>
<path opacity="0.1" d="M171.413 113.786C170.206 112.458 168.558 111.571 167.451 110.165C166.519 108.92 165.986 107.422 165.924 105.867C165.759 107.81 166.301 109.746 167.451 111.32C168.558 112.731 170.206 113.618 171.413 114.946C172.572 116.244 173.267 117.89 173.391 119.626C173.472 118.57 173.338 117.508 172.998 116.504C172.658 115.501 172.119 114.576 171.413 113.786Z" fill="black"/>
<path opacity="0.1" d="M213.167 97.9438C212.857 99.2294 212.306 100.452 212.055 101.748C211.905 102.614 211.851 103.494 211.892 104.372C211.909 103.872 211.964 103.374 212.055 102.882C212.306 101.58 212.857 100.363 213.167 99.0772C213.347 98.3681 213.406 97.6335 213.34 96.9048C213.308 97.2548 213.25 97.6021 213.167 97.9438Z" fill="black"/>
</g>
<path opacity="0.1" d="M69.6494 399.117C97.8884 399.117 120.781 395.44 120.781 390.905C120.781 386.369 97.8884 382.692 69.6494 382.692C41.4103 382.692 18.5181 386.369 18.5181 390.905C18.5181 395.44 41.4103 399.117 69.6494 399.117Z" fill="#00A199"/>
<path d="M71.297 233.586H68.0068V307.664H71.297V233.586Z" fill="#535461"/>
<path d="M91.9722 307.438L91.7676 310.776L91.4737 315.498L91.353 317.461L91.0644 322.184L90.9385 324.146L90.6446 328.869L87.3282 382.43C87.1841 384.734 86.1672 386.897 84.4846 388.479C82.802 390.06 80.5801 390.94 78.2711 390.941H61.0279C58.7195 390.94 56.4982 390.06 54.8164 388.478C53.1347 386.897 52.1189 384.734 51.9761 382.43L48.6754 328.832L48.3815 324.11L48.2609 322.147L47.967 317.424L47.8463 315.462L47.5524 310.739L47.3426 307.402C47.3061 306.759 47.4013 306.116 47.6222 305.512C47.8432 304.908 48.1853 304.355 48.6275 303.888C49.0697 303.421 49.6028 303.049 50.1939 302.795C50.7851 302.541 51.4219 302.41 52.0653 302.411H87.3335C87.9744 302.417 88.6074 302.554 89.1934 302.813C89.7795 303.073 90.3061 303.45 90.7407 303.921C91.1754 304.392 91.5089 304.947 91.7207 305.552C91.9326 306.157 92.0181 306.799 91.9722 307.438Z" fill="#3F3D56"/>
<path d="M91.7674 310.776L91.4735 315.483H47.8251L47.5312 310.776H91.7674Z" fill="#9D9CB5"/>
<path d="M91.3533 317.445L91.0647 322.158H48.2401L47.9463 317.445H91.3533Z" fill="#9D9CB5"/>
<path d="M90.9383 324.125L90.6497 328.832H48.6542L48.3604 324.125H90.9383Z" fill="#9D9CB5"/>
<path d="M42.5097 261.35C61.6682 275.214 69.6653 296.896 69.6653 296.896C69.6653 296.896 46.5765 296.104 27.4127 282.24C8.24897 268.376 0.267578 246.699 0.267578 246.699C0.267578 246.699 23.3459 247.486 42.5097 261.35Z" fill="#00A199"/>
<path d="M0.251953 246.699C0.251953 246.699 24.2224 260.001 31.9099 271.016C39.5974 282.03 69.6654 296.896 69.6654 296.896" stroke="#535461" stroke-width="1.04949" stroke-miterlimit="10"/>
<path d="M54.8777 233.423C65.3044 240.964 69.665 252.765 69.665 252.765C69.665 252.765 57.0974 252.335 46.6654 244.794C36.2334 237.254 31.8833 225.447 31.8833 225.447C31.8833 225.447 44.4457 225.877 54.8777 233.423Z" fill="#00A199"/>
<path d="M31.8833 225.447C31.8833 225.447 44.9285 232.688 49.1107 238.681C53.293 244.673 69.665 252.765 69.665 252.765" stroke="#535461" stroke-width="1.04949" stroke-miterlimit="10"/>
<path d="M84.8045 252.167C72.8246 265.333 70.29 282.539 70.29 282.539C70.29 282.539 87.1816 278.394 99.1511 265.223C111.121 252.051 113.666 234.85 113.666 234.85C113.666 234.85 96.7845 239.001 84.8045 252.167Z" fill="#00A199"/>
<path d="M113.676 234.855C113.676 234.855 98.0701 248.352 94.103 257.65C90.136 266.949 70.29 282.539 70.29 282.539" stroke="#535461" stroke-width="1.04949" stroke-miterlimit="10"/>
<path d="M524.573 247.533C524.573 247.533 515.909 204.431 519.226 199.068C519.226 199.068 519.346 194.083 519.147 187.728C519.147 187.487 519.147 187.245 519.147 186.999C519.731 187.388 520.339 187.738 520.968 188.048C524.024 189.618 527.532 190.071 530.886 189.329L528.262 186.406C527.632 185.708 526.976 184.952 526.84 184.029C526.703 183.105 527.081 182.281 527.407 181.457C529.899 175.16 530.03 167.242 525.229 162.435C521.173 158.395 520.186 153.179 515.783 149.49C512.567 146.787 510.798 142.825 509.13 138.995C507.718 135.757 506.296 132.493 505.488 129.061C504.858 126.38 504.606 123.604 503.741 120.986C502.875 118.367 501.253 115.822 498.719 114.652C497.816 114.237 496.814 114.001 495.99 113.45C494.909 112.721 494.258 111.535 493.476 110.496C489.504 105.248 476.202 108.339 469.905 110.47C468.193 111.006 466.608 111.884 465.245 113.051L465.303 112.957C465.35 112.878 465.408 112.8 465.46 112.721C464.771 113.278 464.176 113.943 463.697 114.689C462.779 116.142 462.396 117.837 461.63 119.411C460.706 121.274 455.569 126.474 457.778 128.568C457.933 128.709 458.11 128.822 458.303 128.904C459.132 129.249 460.045 129.34 460.926 129.166L460.832 129.392C460.077 131.239 459.691 133.216 459.693 135.211C459.693 143.833 466.804 150.823 475.583 150.823C477.233 150.824 478.874 150.571 480.447 150.072C480.484 150.272 480.515 150.471 480.552 150.67C480.552 150.749 480.578 150.828 480.589 150.907L480.311 151.295C480.297 151.271 480.281 151.248 480.263 151.227L472.025 162.74C470.765 163.626 463.513 168.874 463.104 172.81C462.674 177.118 462.244 182.16 462.244 182.16L462.186 183.241C461.826 183.542 461.405 183.761 460.952 183.884C460.499 184.006 460.025 184.029 459.562 183.95C456.991 183.53 456.991 193.395 456.991 193.395C456.991 193.395 455.28 194.97 454.105 193.605C452.929 192.241 449.823 196.864 449.823 196.864L430.355 197.703L429.909 197.73L428.859 194.482C428.746 194.139 428.503 193.855 428.181 193.691C427.86 193.527 427.487 193.496 427.143 193.605C427.062 193.632 426.983 193.665 426.907 193.705L426.834 193.747L426.697 193.841L426.629 193.904C426.591 193.938 426.556 193.975 426.524 194.014L426.461 194.088L426.43 194.119C426.308 194.287 426.228 194.481 426.195 194.685C426.163 194.889 426.178 195.098 426.241 195.295L427.143 198.081C423.386 198.837 419.545 200.967 422.678 206.834L406.799 203.901L411.936 208.214L438.457 213.687C438.105 214.317 438.336 215.23 439.433 216.516C444.156 222.062 452.761 223.568 456.225 223.957C457.139 226.003 458.282 227.939 459.63 229.729L459.331 235.254C459.331 235.254 450.563 277.37 448.957 279.506C449.768 278.588 450.509 277.611 451.177 276.583C448.632 285.236 445.074 297.08 444.14 298.854C442.639 301.687 441.248 313.153 442.959 313.888C443.484 314.113 444.985 314.003 447.126 313.84V314.79L447.031 350.782C447.031 350.782 447.461 372.859 446.281 374.963C445.1 377.067 444.785 381.48 444.785 381.48C444.785 381.48 440.063 390.186 436.321 393.686C436.296 393.713 436.267 393.738 436.237 393.759L436.122 392.941C436.122 392.941 431.625 398.618 421.675 398.298C421.675 398.298 415.688 402.192 424.567 402.402C433.445 402.612 444.785 402.087 444.785 402.087C444.785 402.087 452.704 390.018 459.336 391.592V400.738H461.367V391.445C462.309 390.825 463.115 390.02 463.737 389.079C464.358 388.139 464.782 387.082 464.983 385.972C465.157 384.828 465.029 383.659 464.613 382.58C464.197 381.5 463.507 380.548 462.611 379.817C462.208 379.453 461.885 379.009 461.662 378.514C461.439 378.02 461.321 377.484 461.315 376.941L461.241 377.004C461.241 376.82 461.194 376.632 461.173 376.437C460.591 371.715 459.861 361.97 462.438 354.76C465.969 344.874 467.04 331.104 464.468 322.908C463.639 320.288 462.957 317.623 462.427 314.927C462.364 314.585 462.307 314.26 462.254 313.956C464.012 314.194 465.752 314.544 467.465 315.005C473.421 316.648 486.45 316.952 497.575 316.863C497.601 317.167 497.632 317.487 497.669 317.807C497.868 320.032 498.282 322.233 498.908 324.377C500.303 328.575 500.944 347.083 500.944 347.083C500.944 347.083 502.743 362.301 501.762 368.493C501.237 371.935 500.713 375.393 500.414 378.867V378.935C500.414 378.935 497.465 387.331 495.308 391.891C495.255 392.007 495.198 392.122 495.145 392.232C494.57 392.285 494.004 392.41 493.461 392.605C493.461 392.605 490.569 398.377 487.688 399.332C484.808 400.287 485.763 403.43 492.285 402.276C498.808 401.121 508.657 400.177 508.657 400.177L509.082 394.289L511.087 391.781L510.562 397.653L512.698 397.233L512.415 390.091L515.694 385.988C515.694 385.988 519.656 382.461 513.768 375.524V375.676C513.705 375.577 513.648 375.472 513.579 375.372V375.341C512.603 373.829 511.827 371.011 513.249 366.011C515.82 356.975 517.316 348.773 517.316 348.773C517.316 348.773 523.056 326.802 516.156 316.406H516.46C515.753 314.944 515.253 313.389 514.975 311.789C514.94 311.6 514.909 311.406 514.881 311.206C519.987 310.912 524.998 309.989 529.086 307.995C529.07 307.974 526.609 255.835 524.573 247.533ZM459.751 211.168V211.273L458.702 211.326L459.751 211.168ZM456.151 211.667C455.979 211.705 455.817 211.782 455.679 211.893C455.228 212.531 454.944 213.273 454.855 214.049L453.218 213.682C453.218 213.682 452.069 213.435 450.416 213.157L449.634 212.37C451.785 212.192 454.021 211.929 456.151 211.667Z" fill="url(#paint1_linear_1941_116)"/>
<path d="M510.321 390.165L509.697 397.6L511.791 397.181L511.476 389.115L510.321 390.165Z" fill="#1D2366"/>
<path d="M462.553 354.86C460.029 362.049 460.743 371.751 461.31 376.464C461.52 378.206 461.714 379.266 461.714 379.266C461.714 379.266 457.941 387.861 457.626 388.187C457.311 388.512 446.522 395.097 446.522 395.097L438.982 399.5C438.982 399.5 431.331 396.147 434.999 394.992C435.748 394.692 436.423 394.232 436.977 393.644C440.65 390.154 445.263 381.48 445.263 381.48C445.263 381.48 445.578 377.078 446.732 374.984C447.887 372.89 447.467 350.888 447.467 350.888L447.556 315.021V310.346L461.908 310.451C461.998 312.038 462.205 313.616 462.527 315.173C463.042 317.861 463.71 320.517 464.526 323.128C467.056 331.309 466.006 345.01 462.553 354.86Z" fill="#FFB0B1"/>
<path opacity="0.1" d="M461.714 379.266C461.714 379.266 457.941 387.861 457.626 388.186C457.311 388.512 446.522 395.097 446.522 395.097L438.982 399.5C438.982 399.5 431.331 396.147 434.999 394.992C435.748 394.692 436.423 394.231 436.977 393.644L437.303 395.937L439.816 395.832L461.331 376.474C461.52 378.206 461.714 379.266 461.714 379.266Z" fill="black"/>
<path d="M461.451 376.962L439.816 396.451L437.303 396.556L436.778 392.883C436.778 392.883 432.38 398.54 422.61 398.225C422.61 398.225 416.743 402.103 425.438 402.313C434.133 402.522 445.237 401.998 445.237 401.998C445.237 401.998 452.993 389.929 459.484 391.503V400.618H461.478V391.419C462.405 390.795 463.196 389.989 463.804 389.052C464.412 388.114 464.823 387.063 465.014 385.961C465.187 384.827 465.065 383.667 464.66 382.594C464.254 381.521 463.58 380.57 462.7 379.832C462.308 379.464 461.994 379.02 461.78 378.526C461.565 378.033 461.453 377.5 461.451 376.962Z" fill="#1D2366"/>
<path d="M512.315 366.068C510.919 371.053 511.68 373.861 512.635 375.367V375.398C513.86 377.258 514.712 379.338 515.144 381.522L515.228 381.994L505.383 396.346L500.041 398.445C500.041 398.445 491.451 395.512 493.02 394.672C493.414 394.468 494.028 393.376 494.731 391.87C496.83 387.331 499.727 378.956 499.727 378.956V378.888C500.031 375.43 500.514 371.982 501.049 368.55C502.009 362.374 500.246 347.214 500.246 347.214C500.246 347.214 499.616 328.78 498.252 324.587C497.636 322.455 497.227 320.269 497.029 318.059C496.746 315.436 496.683 313.274 496.683 313.274C496.683 313.274 502.34 305.402 512.709 313.903C513.538 314.581 514.268 315.373 514.876 316.254C522.039 326.445 516.272 348.893 516.272 348.893C516.272 348.893 514.829 357.058 512.315 366.068Z" fill="#FFB0B1"/>
<path opacity="0.1" d="M515.243 381.994L505.399 396.346L500.057 398.445C500.057 398.445 491.467 395.512 493.036 394.672C493.429 394.468 494.043 393.376 494.746 391.87C498.383 391.839 500.267 395.302 500.267 395.302L504.874 394.567C504.874 394.567 510.951 382.624 512.315 381.895C513.679 381.165 512.525 376.443 512.525 376.443V375.241C512.562 375.283 512.593 375.33 512.635 375.372V375.404C513.86 377.263 514.712 379.343 515.143 381.527L515.243 381.994Z" fill="black"/>
<path d="M500.582 395.612C500.582 395.612 497.958 390.794 492.931 392.573C492.931 392.573 490.103 398.346 487.274 399.28C484.446 400.214 485.39 403.362 491.782 402.213C498.173 401.064 507.808 400.114 507.808 400.114L508.227 394.242L514.724 385.967C514.724 385.967 518.596 382.456 512.835 375.545V376.747C512.835 376.747 513.989 381.47 512.625 382.199C511.26 382.928 505.205 394.877 505.205 394.877L500.582 395.612Z" fill="#1D2366"/>
<path opacity="0.1" d="M461.924 310.44C462.014 312.027 462.221 313.606 462.543 315.163C456.634 314.297 451.151 314.727 447.556 315.01V310.335L461.924 310.44Z" fill="black"/>
<path opacity="0.1" d="M515.459 317.561C515.459 317.561 507.063 317.97 497.05 318.054C496.767 315.43 496.704 313.268 496.704 313.268C496.704 313.268 502.361 305.397 512.73 313.898C513.559 314.576 514.289 315.367 514.897 316.249C515.06 316.696 515.247 317.134 515.459 317.561Z" fill="black"/>
<path d="M515.459 316.616C515.459 316.616 478.684 318.395 467.476 315.252C456.267 312.109 445.158 314.832 443.484 314.103C441.81 313.373 443.169 301.95 444.639 299.121C446.108 296.293 454.168 267.689 454.168 267.689L461.924 227.252L470.094 225.001L470.671 224.838L484.908 220.913L495.34 218.032C495.34 218.032 516.083 299.016 514.304 304.988C513.658 307.275 513.554 309.68 514 312.014C514.271 313.608 514.762 315.157 515.459 316.616Z" fill="#1D2366"/>
<path d="M434.889 199.598C434.889 199.598 427.543 207.469 433.105 211.856C438.667 216.243 442.325 212.276 442.325 212.276L434.889 199.598Z" fill="#C7DAF5"/>
<path opacity="0.1" d="M434.889 199.598C434.889 199.598 427.543 207.469 433.105 211.856C438.667 216.243 442.325 212.276 442.325 212.276L434.889 199.598Z" fill="black"/>
<path d="M494.243 147.847C494.243 147.847 493.382 148.666 492.086 149.873C490.239 151.599 487.505 154.123 485.081 156.238C481.722 159.161 478.952 161.307 479.943 159.476C480.935 157.644 480.746 154.454 480.253 151.468C480.216 151.269 480.185 151.069 480.148 150.875C479.74 148.682 479.198 146.516 478.527 144.389C478.527 144.389 483.952 137.379 486.954 134.613C488.072 133.564 488.854 133.133 488.901 133.863C488.953 134.844 489.688 137.011 490.601 139.31C490.627 139.383 490.654 139.451 490.685 139.525C491.294 141.099 491.981 142.715 492.585 144.111C493.508 146.252 494.243 147.847 494.243 147.847Z" fill="#FFB0B1"/>
<path opacity="0.1" d="M490.685 139.525C490.175 142.267 488.938 144.823 487.103 146.924C485.268 149.025 482.902 150.594 480.253 151.468C479.836 149.073 479.259 146.708 478.527 144.389C478.527 144.389 488.743 131.192 488.901 133.863C488.938 134.876 489.735 137.122 490.685 139.525Z" fill="black"/>
<path opacity="0.1" d="M479.235 154.994L480.558 153.131C480.558 153.131 481.434 158.473 484.656 156.117C487.878 153.761 488.035 173.848 488.035 173.848L484.577 225.552L459.589 224.056L460.297 199.073L463.126 186.479L470.121 168.171L474.282 162.12L479.235 154.994Z" fill="black"/>
<path d="M488.035 174.169L484.887 220.918L484.556 225.872L470.624 225.037L470.099 225.006L459.604 224.376L460.313 199.388L463.141 186.794L470.136 168.486L474.297 162.435L479.251 155.283L480.573 153.425C480.573 153.425 481.449 158.767 484.671 156.411L484.74 156.364C487.888 154.37 488.035 174.169 488.035 174.169Z" fill="#1D2366"/>
<path d="M463.492 182.417C463.492 182.417 462.238 185.041 459.72 184.616C457.201 184.191 457.206 194.062 457.206 194.062C457.206 194.062 455.532 195.636 454.378 194.272C453.223 192.907 450.18 197.52 450.18 197.52L431.11 198.359C431.11 198.359 439.596 202.237 437.932 213.97C437.932 213.97 466.741 212.186 467.685 209.463C468.63 206.739 463.492 182.417 463.492 182.417Z" fill="white"/>
<path opacity="0.03" d="M463.492 182.417C463.492 182.417 462.238 185.041 459.72 184.616C457.201 184.191 457.206 194.062 457.206 194.062C457.206 194.062 455.532 195.636 454.378 194.272C453.223 192.907 450.18 197.52 450.18 197.52L431.11 198.359C431.11 198.359 439.596 202.237 437.932 213.97C437.932 213.97 466.741 212.186 467.685 209.463C468.63 206.739 463.492 182.417 463.492 182.417Z" fill="black"/>
<path d="M408.074 204.525L413.101 208.818L454.483 217.513L449.351 212.276L408.074 204.525Z" fill="white"/>
<path d="M479.314 156.647C478.626 157.697 476.658 163.07 475.016 167.761C473.646 171.671 472.503 175.108 472.503 175.108C472.503 175.108 469.832 192.498 468.467 195.641C467.103 198.784 467.843 211.043 467.843 211.043L462.758 241.315C462.758 241.315 460.454 256.926 456.897 266.251C453.386 275.429 449.477 279.732 449.356 279.868C450.93 277.738 459.51 235.79 459.51 235.79L462.343 182.885C462.343 182.885 462.758 177.858 463.178 173.56C463.598 169.262 472.098 163.396 472.098 163.396L480.295 151.741C481.119 152.843 480.568 154.763 479.314 156.647Z" fill="white"/>
<path d="M457.941 224.639C457.941 224.639 445.872 224.114 440.026 217.093C434.181 210.072 453.538 214.291 453.538 214.291L458.571 215.445L457.941 224.639Z" fill="#FFB0B1"/>
<path opacity="0.1" d="M514.304 304.993C513.658 307.28 513.554 309.686 514 312.02C500.834 312.954 486.749 309.396 486.749 309.396C484.126 311.81 477.215 315.367 477.215 315.367L473.447 268.665C471.039 262.368 470.094 229.377 470.094 229.377C470.094 229.377 470.309 227.651 470.619 225.064C470.619 225.001 470.619 224.933 470.645 224.87C471.584 217.644 473.447 204.079 474.36 202.248C475.62 199.729 470.488 193.028 470.488 193.028L472.823 173.114L473.106 170.711C478.028 168.512 481.801 161.491 481.801 161.491L484.698 156.416C487.846 154.396 488.009 174.195 488.009 174.195L484.86 220.945L495.292 218.064C495.292 218.064 516.083 299.022 514.304 304.993Z" fill="black"/>
<path d="M527.817 308.22C513.465 315.346 487.38 308.745 487.38 308.745C484.756 311.159 477.845 314.717 477.845 314.717L474.072 268.014C471.669 261.717 470.724 228.726 470.724 228.726C470.724 228.726 473.757 204.111 475.017 201.597C475.384 200.862 475.205 199.771 474.77 198.596C472.629 193.001 471.841 186.979 472.472 181.022L473.479 172.463L473.757 170.065C478.685 167.861 482.457 160.84 482.457 160.84L485.081 156.243L489.909 147.774L492.197 143.765L492.585 144.116L495.55 146.803C495.55 146.803 496.809 147.853 498.698 149.427C502.807 152.89 509.907 158.988 513.57 162.719C516.792 166.004 517.81 178.781 518.103 188.4C518.298 194.733 518.182 199.697 518.182 199.697C514.934 205.045 523.43 247.974 523.43 247.974C525.408 256.27 527.817 308.22 527.817 308.22Z" fill="white"/>
<path opacity="0.03" d="M500.267 160.735C500.267 160.735 490.418 179.484 491.562 186.61C492.706 193.736 495.959 201.802 494.39 203.686C493.851 204.399 493.154 204.979 492.354 205.378C491.554 205.778 490.672 205.987 489.778 205.989C488.204 206.094 484.006 209.027 484.006 209.342C484.006 209.657 480.128 209.657 476.659 211.126C473.191 212.596 468.069 213.43 468.069 213.43C468.069 213.43 458.099 213.115 457.17 214.06C456.241 215.004 455.286 220.656 457.275 225.163C459.264 229.671 461.473 233.035 463.142 233.649C464.81 234.262 475.4 230.715 483.99 229.876C492.58 229.036 501.905 222.23 501.905 222.23C501.905 222.23 512.174 218.557 513.974 212.381C515.774 206.204 511.775 172.258 511.775 172.258C511.775 172.258 508.753 156.437 500.267 160.735Z" fill="black"/>
<path opacity="0.03" d="M499.008 159.161C499.008 159.161 489.158 177.915 490.313 185.036C491.467 192.157 494.71 200.228 493.136 202.117C492.599 202.831 491.903 203.411 491.103 203.811C490.304 204.211 489.422 204.419 488.528 204.42C486.954 204.525 482.756 207.459 482.756 207.773C482.756 208.088 478.878 208.088 475.41 209.552C471.941 211.016 466.82 211.856 466.82 211.856C466.82 211.856 456.849 211.541 455.926 212.486C455.002 213.43 454.037 219.087 456.031 223.589C458.025 228.092 460.229 231.46 461.898 232.074C463.566 232.688 474.156 229.141 482.746 228.307C491.336 227.472 500.661 220.656 500.661 220.656C500.661 220.656 510.925 216.983 512.703 210.812C514.482 204.641 510.505 170.684 510.505 170.684C510.505 170.684 507.493 154.868 499.008 159.161Z" fill="black"/>
<path d="M499.957 159.79C499.957 159.79 490.108 178.545 491.262 185.666C492.417 192.787 495.66 200.857 494.091 202.741C493.554 203.457 492.857 204.039 492.057 204.439C491.256 204.84 490.373 205.049 489.478 205.05C487.904 205.155 483.706 208.088 483.706 208.398C483.706 208.707 479.833 208.713 476.36 210.182C472.886 211.651 467.769 212.486 467.769 212.486C467.769 212.486 457.799 212.171 456.87 213.115C455.942 214.06 454.987 219.717 456.975 224.219C458.964 228.721 461.173 232.09 462.842 232.704C464.511 233.318 475.1 229.771 483.69 228.931C492.28 228.091 501.605 221.285 501.605 221.285C501.605 221.285 511.874 217.612 513.674 211.436C515.474 205.26 511.502 171.314 511.502 171.314C511.502 171.314 508.437 155.519 499.957 159.79Z" fill="white"/>
<path opacity="0.1" d="M499.742 210.093C499.742 210.093 491.871 208.519 494.61 211.142C497.349 213.766 497.334 216.064 500.687 215.959C504.04 215.854 499.742 210.093 499.742 210.093Z" fill="black"/>
<path opacity="0.1" d="M513.044 266.545C513.044 266.545 509.486 268.953 516.292 274.505C523.098 280.057 513.044 266.545 513.044 266.545Z" fill="black"/>
<path opacity="0.1" d="M506.254 286.344C506.254 286.658 504.994 297.888 509.707 300.695C514.419 303.503 506.254 286.344 506.254 286.344Z" fill="black"/>
<path d="M431.436 198.333C427.637 198.464 419.43 199.624 423.686 207.563C427.448 214.59 433.771 209.893 437.329 206.33C436.461 203.008 434.352 200.146 431.436 198.333Z" fill="#FFB0B1"/>
<path d="M437.376 206.268L437.534 206.105L437.376 206.268Z" fill="#FFB0B1"/>
<path opacity="0.1" d="M498.698 149.747C494.668 152.502 491.289 154.827 490.627 155.309C488.822 156.647 485.38 164.503 483.16 168.512C481.392 171.739 475.646 172.568 473.479 172.773L473.757 170.375C478.684 168.171 482.457 161.15 482.457 161.15L492.196 144.074L495.55 147.123C495.55 147.123 496.809 148.173 498.698 149.747Z" fill="black"/>
<path d="M498.698 149.432C494.668 152.187 491.289 154.511 490.627 154.999C488.822 156.332 485.38 164.188 483.16 168.197C481.392 171.424 475.646 172.253 473.479 172.458L473.757 170.06C478.684 167.856 482.457 160.835 482.457 160.835L492.196 143.759L495.55 146.798C495.55 146.798 496.809 147.837 498.698 149.432Z" fill="#DCE7FF"/>
<path d="M490.942 136.061C490.944 139.212 489.989 142.288 488.203 144.882C486.093 147.95 482.954 150.16 479.354 151.112C475.755 152.063 471.934 151.692 468.584 150.067C465.234 148.442 462.578 145.67 461.098 142.254C459.617 138.838 459.41 135.004 460.514 131.449C461.618 127.893 463.96 124.851 467.116 122.874C470.271 120.898 474.03 120.118 477.711 120.676C481.392 121.234 484.751 123.093 487.178 125.916C489.606 128.739 490.941 132.338 490.942 136.061Z" fill="#FFB0B1"/>
<path opacity="0.1" d="M518.103 188.405C515.972 187.094 514.236 185.23 513.081 183.011C512.205 181.279 511.622 179.28 510.127 178.052C508.778 176.95 506.978 176.682 505.299 176.189C499.779 174.557 495.151 169.519 494.977 163.768C494.893 161.06 495.738 158.358 495.355 155.677C495.137 154.159 494.534 152.723 493.603 151.505C493.14 150.922 492.633 150.377 492.086 149.873C491.351 149.18 490.58 148.509 489.908 147.774C489.485 147.319 489.116 146.817 488.806 146.278C488.557 145.837 488.355 145.371 488.203 144.888C487.153 141.676 488.108 137.867 486.954 134.618L486.891 134.44C486.456 133.286 485.569 132.131 484.336 132.042C483.102 131.953 482.048 132.976 480.872 133.433C478.411 134.388 475.756 132.761 473.704 131.103C471.652 129.444 469.338 127.55 466.73 127.917C465.004 128.164 463.64 129.34 462.05 129.948C461.691 130.087 461.32 130.194 460.942 130.268C462.288 126.913 464.76 124.13 467.934 122.399C471.108 120.668 474.786 120.097 478.336 120.783C481.886 121.469 485.086 123.37 487.386 126.159C489.687 128.948 490.944 132.451 490.942 136.067C490.944 137.159 490.83 138.247 490.601 139.315C490.627 139.388 490.654 139.457 490.685 139.53C491.294 141.104 491.981 142.721 492.585 144.116L495.549 146.803C495.549 146.803 496.809 147.853 498.698 149.427C502.807 152.89 509.906 158.988 513.569 162.719C516.791 166.014 517.799 178.786 518.103 188.405Z" fill="black"/>
<path d="M461.866 120.361C462.616 118.834 462.989 117.123 463.886 115.675C465.203 113.576 467.502 112.233 469.863 111.419C476.029 109.294 489.058 106.209 492.952 111.419C493.718 112.469 494.353 113.634 495.413 114.358C496.221 114.909 497.197 115.145 498.084 115.56C500.566 116.724 502.151 119.264 502.996 121.856C503.841 124.449 504.092 127.23 504.712 129.901C505.504 133.327 506.895 136.576 508.28 139.803C509.912 143.612 511.644 147.564 514.792 150.256C519.09 153.929 520.039 159.129 524.028 163.159C528.75 167.945 528.598 175.842 526.163 182.113C525.843 182.937 525.481 183.798 525.607 184.674C525.733 185.55 526.384 186.348 526.998 187.046L529.579 189.958C523.471 191.433 516.56 188.242 513.716 182.643C512.84 180.911 512.257 178.917 510.757 177.684C509.413 176.582 507.608 176.32 505.934 175.827C500.414 174.189 495.786 169.147 495.613 163.395C495.529 160.693 496.373 157.99 495.99 155.314C495.777 153.787 495.172 152.34 494.232 151.116C492.789 149.232 490.612 147.968 489.436 145.869C487.447 142.358 488.959 137.798 487.526 134.031C487.085 132.876 486.204 131.722 484.971 131.632C483.738 131.543 482.683 132.567 481.502 133.023C479.046 133.978 476.391 132.357 474.339 130.693C472.288 129.03 469.973 127.141 467.36 127.513C465.634 127.755 464.275 128.93 462.685 129.544C461.509 129.995 459.127 130.399 458.098 129.408C455.926 127.408 460.958 122.229 461.866 120.361Z" fill="#591D4B"/>
<path opacity="0.1" d="M515.175 180.912C514.294 179.18 513.717 177.186 512.216 175.958C510.872 174.856 509.067 174.588 507.388 174.095C501.873 172.463 497.245 167.42 497.066 161.669C496.982 158.967 497.827 156.259 497.449 153.583C497.23 152.065 496.624 150.629 495.692 149.411C494.243 147.527 492.066 146.263 490.895 144.164C488.907 140.658 490.418 136.098 488.98 132.325C488.545 131.176 487.658 130.022 486.43 129.927C485.202 129.833 484.137 130.867 482.961 131.323C480.505 132.278 477.845 130.651 475.798 128.993C473.752 127.335 471.427 125.441 468.819 125.808C467.093 126.055 465.729 127.23 464.144 127.839C462.968 128.29 460.581 128.699 459.552 127.708C457.39 125.609 462.423 120.44 463.325 118.582C464.076 117.05 464.448 115.345 465.351 113.896C465.398 113.818 465.45 113.739 465.503 113.66C464.828 114.219 464.245 114.882 463.776 115.623C462.879 117.071 462.507 118.771 461.756 120.309C460.848 122.166 455.816 127.351 457.983 129.434C459.033 130.431 461.394 130.022 462.57 129.57C464.144 128.957 465.519 127.781 467.245 127.54C469.869 127.167 472.178 129.061 474.224 130.72C476.271 132.378 478.947 134.005 481.392 133.05C482.568 132.593 483.596 131.564 484.856 131.659C486.115 131.753 486.955 132.903 487.411 134.057C488.844 137.825 487.332 142.385 489.321 145.895C490.497 147.958 492.674 149.248 494.117 151.143C495.056 152.367 495.662 153.813 495.875 155.341C496.258 158.017 495.413 160.719 495.497 163.422C495.671 169.194 500.299 174.216 505.819 175.853C507.483 176.346 509.298 176.609 510.642 177.711C512.148 178.944 512.741 180.938 513.601 182.67C516.445 188.269 523.356 191.459 529.464 189.985L528.247 188.61C522.952 188.688 517.595 185.676 515.175 180.912Z" fill="black"/>
<path opacity="0.1" d="M478.999 156.962C478.312 158.012 476.344 163.385 474.702 168.076C473.164 167.478 471.768 163.663 471.768 163.663L479.965 152.003C480.804 153.158 480.253 155.073 478.999 156.962Z" fill="black"/>
<path d="M479.314 156.647C478.626 157.697 476.659 163.07 475.016 167.761C473.479 167.168 472.083 163.348 472.083 163.348L480.279 151.694C481.119 152.843 480.568 154.763 479.314 156.647Z" fill="#DCE7FF"/>
<path d="M431.657 210.255L427.112 195.925C427.058 195.757 427.038 195.58 427.053 195.405C427.068 195.229 427.117 195.058 427.198 194.902C427.279 194.745 427.39 194.606 427.525 194.493C427.659 194.379 427.815 194.293 427.983 194.24C428.322 194.135 428.688 194.167 429.002 194.33C429.317 194.493 429.554 194.774 429.662 195.111L434.207 209.426L433.756 212.423L431.657 210.255Z" fill="#BE8B87"/>
<path opacity="0.1" d="M427.543 194.665C427.881 194.558 428.249 194.589 428.565 194.753C428.88 194.916 429.119 195.198 429.227 195.536L433.771 209.851L433.43 212.097L433.761 212.444L434.212 209.447L429.642 195.132C429.533 194.795 429.296 194.514 428.981 194.351C428.667 194.188 428.301 194.155 427.962 194.261C427.678 194.353 427.432 194.538 427.264 194.786C427.354 194.738 427.447 194.698 427.543 194.665Z" fill="white"/>
<path d="M431.656 210.255L434.207 209.447L433.834 211.903L433.755 212.444L433.01 211.667L431.656 210.255Z" fill="#EFC8C4"/>
<path d="M433.01 211.667C433.055 211.611 433.11 211.564 433.173 211.53C433.21 211.507 433.253 211.495 433.297 211.495C433.34 211.495 433.383 211.507 433.42 211.53C433.456 211.574 433.486 211.621 433.509 211.672C433.544 211.73 433.591 211.779 433.647 211.817C433.704 211.854 433.767 211.878 433.834 211.887L433.756 212.412L433.01 211.667Z" fill="#727A9C"/>
<path d="M427.086 201.015C427.086 201.015 436.201 200.962 434.055 204.84C431.908 208.718 428.555 209.185 428.555 209.185L427.086 201.015Z" fill="#FFB0B1"/>
<path d="M370.397 26.9824H370.004C354.345 26.9824 340.497 35.2682 332.531 47.4948C324.566 35.2682 310.718 26.9824 295.059 26.9824H294.666C282.914 27.0944 271.682 31.8395 263.41 40.1865C255.138 48.5335 250.494 59.8079 250.487 71.5596C250.487 86.1528 256.879 106.859 269.341 123.898C293.086 156.364 332.531 184.768 332.531 184.768C332.531 184.768 371.977 156.369 395.716 123.898C408.184 106.859 414.57 86.1528 414.57 71.5596C414.564 59.8088 409.921 48.5352 401.649 40.1883C393.378 31.8415 382.147 27.0958 370.397 26.9824ZM364.767 126.396C362.983 126.389 361.244 125.843 359.776 124.83C358.309 123.816 357.182 122.383 356.544 120.718H347.182C346.566 120.714 345.966 120.518 345.466 120.157C344.967 119.795 344.593 119.287 344.396 118.703L341.52 110.039L332.421 141.834C332.244 142.446 331.873 142.984 331.364 143.367C330.855 143.75 330.235 143.958 329.598 143.959H329.414C328.75 143.927 328.116 143.667 327.619 143.224C327.123 142.781 326.793 142.181 326.686 141.524L317.308 85.1243L310.455 118.498C310.298 119.132 309.933 119.695 309.419 120.098C308.904 120.5 308.27 120.718 307.616 120.718H294.43C294.034 120.735 293.64 120.671 293.27 120.531C292.899 120.392 292.561 120.179 292.276 119.905C291.99 119.631 291.763 119.302 291.607 118.938C291.452 118.574 291.372 118.183 291.372 117.787C291.372 117.392 291.452 117 291.607 116.636C291.763 116.272 291.99 115.943 292.276 115.67C292.561 115.396 292.899 115.183 293.27 115.043C293.64 114.903 294.034 114.84 294.43 114.856H305.308L315.015 69.9854C315.175 69.322 315.56 68.7345 316.104 68.3235C316.649 67.9124 317.319 67.7032 318.001 67.7317C318.682 67.7602 319.333 68.0246 319.841 68.4797C320.35 68.9348 320.684 69.5524 320.788 70.2268L330.364 127.76L338.519 99.3135C338.689 98.7144 339.048 98.1862 339.542 97.8079C340.037 97.4296 340.641 97.2215 341.263 97.2145H341.321C341.938 97.2147 342.539 97.4096 343.038 97.7714C343.537 98.1333 343.91 98.6435 344.102 99.2295L349.302 114.872H356.428C356.935 113.333 357.857 111.964 359.093 110.915C360.329 109.867 361.83 109.18 363.431 108.931C365.033 108.683 366.671 108.881 368.167 109.505C369.663 110.128 370.957 111.153 371.907 112.466C372.857 113.779 373.426 115.329 373.551 116.944C373.676 118.56 373.352 120.179 372.615 121.622C371.878 123.065 370.756 124.277 369.374 125.123C367.992 125.969 366.403 126.417 364.782 126.417L364.767 126.396Z" fill="#00A199"/>
</g>
<defs>
<linearGradient id="paint0_linear_1941_116" x1="186.983" y1="406.61" x2="186.983" y2="83.7127" gradientUnits="userSpaceOnUse">
<stop stop-color="#808080" stop-opacity="0.25"/>
<stop offset="0.54" stop-color="#808080" stop-opacity="0.12"/>
<stop offset="1" stop-color="#808080" stop-opacity="0.1"/>
</linearGradient>
<linearGradient id="paint1_linear_1941_116" x1="468.824" y1="402.528" x2="468.824" y2="107.62" gradientUnits="userSpaceOnUse">
<stop stop-color="#808080" stop-opacity="0.25"/>
<stop offset="0.54" stop-color="#808080" stop-opacity="0.12"/>
<stop offset="1" stop-color="#808080" stop-opacity="0.1"/>
</linearGradient>
<clipPath id="clip0_1941_116">
<rect width="579.866" height="410.74" fill="white"/>
</clipPath>
</defs>
</svg>
